<svg width="60" height="21" viewBox="0 0 60 21" fill="none" xmlns="http://www.w3.org/2000/svg">
<g clip-path="url(#clip0_6_426)">
<path d="M12.7468 20.3669C12.3404 19.1455 12.1414 15.9768 12.1414 10.6851C12.1414 9.41082 12.1562 7.96723 12.1837 6.39663C12.2028 5.71506 12.2261 5.05465 12.2536 4.42599C12.2811 3.79733 12.3086 3.2364 12.3382 2.75803C12.3658 2.27542 12.4123 1.76529 12.4716 1.24035C12.516 0.855112 12.6176 0.444472 12.7722 0.0126648H9.01502C9.52303 0.905913 9.7728 2.14207 9.7728 3.76346C9.7728 4.73079 9.52938 5.35945 9.0256 5.68542C8.80335 5.82513 8.40117 5.96271 7.04437 5.96271H5.72355C4.39638 5.96271 3.96034 5.79549 3.73385 5.64732C3.46503 5.48434 3.27452 5.23245 3.16446 4.90436C3.07132 4.62284 3.02475 4.25877 3.02475 3.79098C3.02475 3.36552 3.03957 2.95276 3.06709 2.56541C3.12636 1.57479 3.36343 0.719643 3.77407 0.0147815H0.00633911L0.0253894 0.0634656C0.112174 0.287836 0.209542 0.681542 0.325961 1.26999C0.442379 1.86054 0.531281 3.53697 0.599015 6.39452C0.607482 7.07398 0.618066 7.76826 0.626532 8.47735C0.634999 9.18433 0.641349 10.4903 0.641349 12.353C0.641349 14.2157 0.590549 15.9154 0.48683 17.3717C0.431796 18.0724 0.376762 18.665 0.325961 19.1392C0.285744 19.5159 0.177792 19.9456 0.00210571 20.4388H3.80793C3.69151 20.242 3.59415 20.0515 3.51583 19.8673C3.12001 18.8958 2.92739 16.633 2.92739 12.9499L2.9422 8.77792C2.9422 8.5472 2.95702 8.32495 2.98877 8.11963C3.09461 7.5079 3.57721 6.78822 5.29386 6.78822H7.49099C8.44986 6.78822 9.10815 7.00201 9.49974 7.44228C9.74316 7.71322 9.85746 8.13656 9.85746 8.77792L9.87228 12.5859C9.87228 14.7978 9.8109 16.5187 9.69024 17.7041C9.63309 18.3264 9.55054 18.8809 9.44471 19.3466C9.36851 19.681 9.21399 20.0409 8.97692 20.4388H12.7743C12.7658 20.4134 12.7573 20.3901 12.7489 20.3669H12.7468Z" fill="#231F20"/>
<path d="M23.9378 19.6493C24.0457 19.3699 24.1261 19.046 24.1769 18.6947C24.2299 18.3327 24.2553 17.8311 24.2553 17.2045C24.2553 17.0966 24.251 16.995 24.2447 16.8997C24.1621 17.0775 24.0775 17.249 23.9949 17.4162C23.743 17.9178 23.4149 18.356 23.0233 18.7222C22.6254 19.0947 22.1301 19.3868 21.548 19.59C20.9765 19.7911 20.3373 19.8927 19.643 19.8927C18.9487 19.8927 17.8798 19.861 17.5686 19.7932C17.1749 19.7086 16.8447 19.4482 16.5886 19.0228C16.4256 18.7497 16.2372 18.1253 16.2372 15.708V9.07849C16.2372 8.28473 16.3917 7.73227 16.7113 7.38936C16.904 7.18404 17.1622 7.03376 17.4818 6.94486C17.7676 6.86442 18.1126 6.82421 18.5338 6.82421C18.955 6.82421 19.4228 6.88982 19.952 7.01683C20.187 7.07398 20.4389 7.10149 20.7013 7.10149C21.3512 7.10149 21.8443 6.92369 22.2105 6.5575C22.2846 6.48342 22.3862 6.3543 22.5069 6.13416H18.7963C17.7252 6.13416 17.0204 5.90556 16.6457 5.43353L16.6415 5.4293L16.6373 5.42507C16.4552 5.18165 16.3388 4.87472 16.2922 4.51065C16.252 4.19738 16.233 3.66609 16.233 2.88714C16.233 2.01718 16.3854 1.42239 16.7008 1.07101C16.9209 0.836059 17.2193 0.692123 17.5898 0.637089C17.8903 0.592638 18.4851 0.569355 19.1604 0.569355C19.8356 0.569355 20.4918 0.670956 21.0527 0.872043C22.0878 1.24035 22.8921 1.97484 23.4403 3.05013L23.6922 3.5539C23.707 3.38668 23.7155 3.20888 23.7155 3.01838C23.7155 2.69241 23.6859 2.35162 23.6245 2.00659C23.434 0.903793 23.1017 0.220099 22.6656 0.0190125H13.132C13.6125 0.71964 13.8453 1.77376 13.8453 3.24063V10.5517C13.8453 12.5478 13.8496 14.8063 13.8601 17.2638C13.8601 18.3539 13.6167 19.2746 13.1362 19.9986C13.0367 20.1488 12.9076 20.297 12.7446 20.4452H23.2223C23.4848 20.4452 23.7219 20.1785 23.9293 19.6556L23.9378 19.6493Z" fill="#231F20"/>
<path d="M34.6948 0.014801H32.2247C32.2247 0.0550183 32.2247 0.0952357 32.2247 0.13757C32.2247 1.39912 31.9474 2.74111 31.4034 4.12755L30.8742 5.43779C30.6054 6.09185 30.2413 6.76708 29.7926 7.44442L29.4306 7.99265L29.0856 7.43384C28.7342 6.86233 28.4336 6.29294 28.1966 5.74048L27.5277 4.12332C27.297 3.56451 27.1065 2.94643 26.9625 2.28602C26.8863 1.94523 26.8249 1.60656 26.7763 1.27635C26.7276 0.937683 26.7022 0.611711 26.7022 0.304789C26.7022 0.203187 26.7064 0.107936 26.7128 0.0169177H22.6953C23.4403 0.865715 24.2468 2.20559 25.1379 4.07252L25.593 4.9827C25.7793 5.35524 26.1413 6.13207 26.6704 7.2899C27.388 8.90071 27.7372 10.1199 27.7372 11.0216V12.6071L27.7224 15.5133V17.5136C27.7224 18.7476 27.3965 19.7298 26.7509 20.4431H31.3441C31.0901 20.187 30.8488 19.8483 30.6287 19.4355C30.3704 18.9529 30.2455 18.2184 30.2455 17.1939V10.8417C30.2455 9.48915 30.7303 7.75981 31.7293 5.55421L32.4384 4.00902C32.6649 3.53487 33.0608 2.7771 33.6174 1.74626C33.9815 1.07103 34.3414 0.493175 34.6927 0.0169177L34.6948 0.014801Z" fill="#231F20"/>
<path d="M43.5236 17.5136C43.985 16.8278 44.4528 16.015 44.9143 15.0984C45.3736 14.1861 45.8012 13.113 46.1822 11.9086C46.5632 10.6999 46.887 9.30713 47.141 7.76829C47.395 6.22945 47.539 4.88535 47.5665 3.77408C47.594 2.64376 47.6131 1.79285 47.6215 1.24039C47.6279 0.82763 47.6829 0.412757 47.7845 0H44.2369C44.5523 0.605376 44.7957 1.306 44.9629 2.0913C45.0773 2.62683 45.1598 3.22585 45.2085 3.87145C45.2551 4.50857 45.2783 5.41664 45.2783 6.57024C45.2783 7.72384 45.1535 9.00021 44.91 10.3168C44.2412 13.9131 43.0092 16.7981 41.246 18.8916L40.6914 19.552L40.5136 18.7095C40.4396 18.3603 40.3591 17.992 40.2723 17.611C40.1856 17.2278 39.9443 16.1144 39.5548 14.3047C39.3685 13.4241 38.706 10.1115 37.5799 4.45777C37.3026 2.95915 37.1693 1.84153 37.1693 1.0393C37.1693 0.711212 37.2074 0.368306 37.2814 0.0148169H33.7466C34.4112 1.33564 35.6241 5.10337 37.4614 17.3654C37.6138 18.4555 37.6879 19.2599 37.6879 19.8314C37.6879 20.0303 37.6667 20.2335 37.6243 20.4389H41.2418L42.2007 19.2831C42.6176 18.7942 43.0622 18.1973 43.5236 17.5094V17.5136Z" fill="#231F20"/>
<path d="M51.8867 9.54631C52.5979 9.89768 53.2668 10.412 53.8743 11.0788C55.229 12.569 56.027 14.4867 56.2471 16.7833C56.2746 17.105 56.3042 17.3845 56.336 17.6236C56.3677 17.8713 56.3974 18.0957 56.4207 18.2968C56.4439 18.5 56.463 18.6947 56.4778 18.8746C56.4926 19.063 56.499 19.3318 56.499 19.6938C56.499 19.9626 56.4672 20.2864 56.4037 20.6696H60C59.4158 19.4567 58.385 16.1758 56.9287 6.13842L56.5815 3.60473C56.4566 2.73688 56.3974 2.12092 56.3974 1.72722C56.3974 1.16206 56.4884 0.664632 56.6662 0.243408H53.2287C52.9323 0.584197 52.5704 0.97367 52.1555 1.40124C51.6962 1.87538 51.1988 2.45324 50.6759 3.11789C50.1573 3.78042 49.6303 4.56994 49.1096 5.46108C48.5931 6.34797 48.1168 7.39574 47.6977 8.57898C47.2765 9.76433 46.9294 11.1381 46.6669 12.66C46.4044 14.1819 46.269 15.8414 46.269 17.5919C46.269 18.9783 46.2034 19.9986 46.0658 20.6823H49.0249C48.6249 19.7361 48.3179 18.7836 48.1063 17.8438C47.939 17.0606 47.8607 15.9324 47.8607 14.3872C47.8607 12.6536 48.1295 10.9687 48.6608 9.37486L48.7349 9.1526L48.9614 9.09757C49.2281 9.03407 49.5858 9.00232 50.0536 9.00232C50.5553 9.00232 51.1543 9.178 51.8867 9.53996V9.54631ZM48.8386 8.79488L49.245 7.86988C49.9795 6.20192 50.9278 4.66731 52.0581 3.30839L52.8519 2.36223L53.415 1.69123L53.5864 2.5485L54.0732 4.98059C54.1748 5.51188 54.4542 6.96605 54.9072 9.34945L55.2226 11.0068L54.1664 9.69236C53.7621 9.18859 53.2498 8.81605 52.6487 8.58533C52.3545 8.46467 52.0624 8.38001 51.7745 8.32921C51.4803 8.2784 51.1416 8.25301 50.7691 8.25301C50.4241 8.25301 50.0917 8.31439 49.7806 8.43292L48.8386 8.79488Z" fill="#231F20"/>
</g>
<defs>
<clipPath id="clip0_6_426">
<rect width="60" height="20.6865" fill="white"/>
</clipPath>
</defs>
</svg>
