<svg width="40" height="40" viewBox="0 0 40 40" fill="none" xmlns="http://www.w3.org/2000/svg">
<path d="M30.3876 18.1409C30.515 17.682 30.5687 17.203 30.6559 16.7334C30.6653 16.6824 30.6787 16.6328 30.6908 16.5831V15.6359C30.6116 15.3193 30.5647 14.9892 30.4452 14.6887C30.0709 13.7347 29.3343 13.2061 28.3455 13.0464C27.0534 12.8398 25.8606 13.0934 24.8316 13.9413C24.2077 14.4552 23.7703 15.1006 23.5247 15.872C23.4831 16.0022 23.4281 16.0612 23.2873 16.0827C23.0686 16.1162 22.8552 16.1847 22.6231 16.241V16.0116L22.6084 15.33C22.6084 14.7302 22.607 14.1748 22.6124 13.6247L22.6084 12.6385C22.6084 12.2065 22.5882 11.8268 22.6124 11.4484C22.6513 10.8487 22.1978 10.367 21.4974 10.524C20.8923 10.6595 20.2872 10.6488 19.6781 10.524C19.0059 10.3872 18.5765 10.7481 18.5739 11.4337C18.5739 11.8147 18.5739 12.1958 18.5739 12.6305L18.5712 13.7293L18.5671 15.3166V15.9941C18.5658 16.0813 18.5658 16.1578 18.5658 16.2356C18.3015 16.1766 18.0452 16.1256 17.7943 16.0559C17.7433 16.0411 17.6937 15.9606 17.6736 15.9002C17.2268 14.5733 16.348 13.6596 15.0277 13.2061C14.0818 12.8814 13.1104 12.8639 12.1712 13.2369C11.1811 13.6341 10.6551 14.4217 10.5397 15.4534C10.3398 17.2285 10.8322 18.8359 11.8492 20.2849C12.2678 20.882 12.7227 21.4535 13.1601 22.0372C13.207 22.1002 13.2513 22.166 13.3036 22.2411C13.1842 22.3162 13.0635 22.378 12.9588 22.4612C12.712 22.6557 12.5161 22.8757 12.4959 23.2232C12.4772 23.5385 12.178 23.7747 11.8452 23.7532C11.6507 23.7411 11.4561 23.6942 11.2683 23.6392C10.8269 23.5117 10.4928 23.7398 10.4928 24.192C10.4901 25.9402 10.4887 27.6898 10.4928 29.438C10.4941 30.0284 10.8685 30.4443 11.4561 30.4765C11.9539 30.5033 12.4557 30.498 12.9535 30.4698C13.4539 30.4416 13.8229 30.0391 13.8484 29.5346C13.8766 28.9778 13.8672 28.417 13.9262 27.8629C13.996 27.2081 14.2133 26.5896 14.5501 25.967C14.5809 26.1965 14.5903 26.3856 14.636 26.5668C14.7339 26.9532 14.8131 27.3517 14.9687 27.7153C15.3793 28.6759 16.2326 29.1885 17.2778 29.1334C18.6798 29.0583 19.7505 28.421 20.4764 27.2135C20.5072 27.1625 20.5381 27.1128 20.5864 27.0337C20.6334 27.1061 20.6709 27.1625 20.7058 27.2188C21.4209 28.4036 22.4702 29.0422 23.8494 29.1294C25.0462 29.2046 25.9948 28.5498 26.337 27.4C26.4711 26.9492 26.5516 26.4836 26.6603 26.0073C26.7529 26.2126 26.8562 26.4192 26.9394 26.6339C27.2252 27.3718 27.3392 28.1406 27.3258 28.9309C27.3218 29.1348 27.3204 29.3387 27.3325 29.5413C27.3607 30.0418 27.7296 30.443 28.2328 30.4698C28.7305 30.4966 29.231 30.4953 29.7301 30.4765C30.193 30.4591 30.4935 30.1988 30.6438 29.7627C30.6546 29.7332 30.6733 29.7064 30.6881 29.6795V23.9987C30.4479 23.5882 30.2842 23.5426 29.812 23.6673C29.5906 23.7264 29.345 23.7465 29.1196 23.7156C28.8741 23.6821 28.7051 23.4849 28.6863 23.2393C28.6514 22.7778 28.3616 22.5309 28.0033 22.3243C27.9752 22.3082 27.9443 22.2948 27.9175 22.2787C27.9067 22.272 27.9 22.2599 27.8719 22.2304C28.1778 21.8292 28.4837 21.42 28.7976 21.0175C29.4819 20.144 30.0843 19.2223 30.3849 18.1422L30.3876 18.1409ZM21.9308 14.6645L21.9348 15.4897C21.9348 15.8009 21.9348 16.1135 21.9348 16.4248C21.9348 16.4731 21.9348 16.5228 21.912 16.5657C21.8879 16.6113 21.8436 16.6422 21.7993 16.6704C21.0855 17.1077 20.1302 17.1158 19.4097 16.6878C19.3534 16.6543 19.2957 16.6153 19.2689 16.555C19.2487 16.5107 19.2487 16.4597 19.2487 16.4114C19.2487 14.7423 19.246 13.0746 19.2447 11.4055C19.2447 11.3384 19.2474 11.2633 19.2943 11.2163C19.3561 11.1533 19.4594 11.1694 19.5452 11.1881C20.1678 11.3196 20.8132 11.3317 21.4397 11.223C21.5632 11.2016 21.6879 11.1761 21.81 11.2029C21.8436 11.2096 21.8771 11.223 21.8959 11.2499C21.9134 11.2754 21.9134 11.3062 21.9147 11.3371C21.9201 11.7141 21.9201 12.0898 21.9214 12.4668L21.9308 14.6658V14.6645ZM21.9281 14.1426L21.9295 13.3389L21.9281 14.1426ZM13.6498 26.2796C13.3211 27.0632 13.1883 27.8897 13.1829 28.7376C13.1815 28.9805 13.1869 29.2233 13.1789 29.4662C13.1722 29.6782 13.0608 29.803 12.8501 29.8083C12.4034 29.8191 11.9566 29.8191 11.5111 29.811C11.2924 29.807 11.1811 29.6795 11.165 29.4595C11.1609 29.4139 11.1636 29.3682 11.1636 29.3213C11.1636 27.7327 11.1636 26.1428 11.1636 24.5542V24.3436C12.288 24.4724 12.4557 24.4281 12.9374 23.8995C13.364 24.3355 13.7907 24.7729 14.2039 25.1969C14.0268 25.539 13.8095 25.8986 13.6485 26.281L13.6498 26.2796ZM14.3529 24.4482C13.9825 24.0122 13.6122 23.5748 13.207 23.0985C13.3949 22.9898 13.5317 22.9106 13.682 22.8234C13.9933 23.3427 14.263 23.8444 14.4146 24.4026C14.3931 24.4187 14.373 24.4335 14.3515 24.4496L14.3529 24.4482ZM20.2376 26.0207C20.1946 26.3132 20.0484 26.6057 19.8914 26.8646C19.4164 27.6468 18.7604 28.2104 17.8399 28.4022C17.3234 28.5096 16.8041 28.5216 16.3225 28.2613C15.712 27.9326 15.4544 27.3584 15.3524 26.717C15.2639 26.1549 15.2303 25.582 15.1981 25.0131C15.1619 24.3972 14.9727 23.831 14.7017 23.285C14.2214 22.3136 13.5908 21.4428 12.9145 20.6002C12.3443 19.8904 11.8439 19.1364 11.5406 18.2697C11.2227 17.3654 11.0818 16.4342 11.2079 15.4789C11.338 14.4941 12.025 13.8206 13.0125 13.7025C14.1825 13.563 15.2491 13.7991 16.1279 14.6377C16.4982 14.9919 16.8645 15.5983 16.9839 16.0398C16.3668 16.2383 16.0179 16.6851 15.9213 17.3063C15.8717 17.627 15.8878 17.9624 15.9133 18.2885C15.9736 19.025 16.246 19.6878 16.6592 20.297C16.6847 20.3332 16.7049 20.3735 16.7304 20.4177C16.6056 20.5036 16.5157 20.56 16.3641 20.4459C16.1642 20.297 15.8972 20.4634 15.8837 20.7371C15.8542 21.361 15.9106 21.9768 16.199 22.5417C16.8015 23.7237 17.738 24.4013 19.0998 24.4455C19.4366 24.4563 19.7707 24.5569 20.1061 24.6146C20.2148 24.6334 20.2564 24.6884 20.2537 24.8024C20.247 25.2103 20.2953 25.6235 20.2362 26.0234L20.2376 26.0207ZM17.1302 20.9839C17.9097 21.8037 18.2894 22.8543 18.9509 23.7626C18.1646 23.6955 17.5837 23.3306 17.1194 22.759C16.8095 22.378 16.6445 21.9339 16.5734 21.4508C16.5546 21.3274 16.5707 21.2415 16.7049 21.1906C16.8511 21.1355 16.9866 21.0537 17.1288 20.9826L17.1302 20.9839ZM19.8176 23.5895C19.5238 23.4393 19.3252 23.1924 19.179 22.9106C18.6839 21.95 18.0855 21.0577 17.4213 20.2057C16.8793 19.5094 16.5439 18.7299 16.5479 17.8256C16.5573 17.682 16.5519 17.5344 16.5787 17.3949C16.6888 16.8327 17.047 16.6207 17.6575 16.7133C18.2237 16.7992 18.7094 17.0662 19.2004 17.3318C19.6834 17.5934 20.204 17.7182 20.7555 17.6833C21.1996 17.6538 21.6209 17.5331 22.0113 17.3144C22.4822 17.0514 22.9518 16.7777 23.5006 16.7254C23.7233 16.7039 23.9729 16.6918 24.1728 16.771C24.48 16.8917 24.586 17.195 24.6102 17.5116C24.6826 18.4562 24.4156 19.3028 23.8615 20.0635C23.8186 20.1226 23.7797 20.1829 23.734 20.2393C23.0726 21.0685 22.505 21.9567 22.0059 22.8932C21.5618 23.7237 20.6307 24.0055 19.8163 23.5909L19.8176 23.5895ZM24.0493 20.9826C24.2063 21.0604 24.3781 21.1369 24.5391 21.2348C24.582 21.2603 24.6115 21.3542 24.6048 21.4106C24.4935 22.3095 24.044 22.9925 23.2604 23.446C22.8552 23.6808 22.5909 23.7452 22.2448 23.7438C22.8874 22.8516 23.2698 21.8024 24.0493 20.9826ZM28.2449 23.8968C28.6863 24.4979 29.3155 24.5126 30.0159 24.3248V24.5314C30.0159 26.1294 30.0159 27.7273 30.0159 29.324C30.0159 29.7117 29.9139 29.8137 29.5248 29.815C29.1827 29.815 28.8406 29.815 28.4998 29.815C28.0906 29.815 27.9913 29.7238 27.9993 29.3199C28.0181 28.4344 27.9591 27.561 27.6907 26.7103C27.5176 26.1629 27.2855 25.6464 26.9461 25.2237C27.3821 24.7769 27.8075 24.3436 28.2449 23.8968ZM27.9376 23.0797C27.5928 23.5855 27.2413 24.043 26.7515 24.4563C26.9125 23.8458 27.1862 23.3494 27.4975 22.8207C27.6518 22.9106 27.7887 22.9911 27.9389 23.0797H27.9376ZM26.5422 23.1562C26.1759 23.8485 25.9626 24.5743 25.964 25.3606C25.964 25.9335 25.9143 26.5037 25.7493 27.0551C25.5252 27.8025 25.0838 28.3432 24.264 28.4465C23.6415 28.5243 23.0471 28.4009 22.501 28.0829C21.7872 27.6656 21.3082 27.0444 20.9862 26.2957C20.9433 26.1965 20.9299 26.0797 20.9285 25.9697C20.9218 25.5954 20.9312 25.2197 20.9232 24.8454C20.9205 24.7058 20.9514 24.6213 21.1016 24.5985C21.4451 24.5462 21.7872 24.4388 22.1294 24.4428C23.5395 24.459 25.0087 23.285 25.2435 21.6655C25.2851 21.3811 25.2958 21.0899 25.2971 20.8015C25.2971 20.4325 25.0516 20.3091 24.7323 20.4848C24.6652 20.5224 24.5498 20.4714 24.4908 20.466C24.7175 19.9468 24.955 19.4785 25.1267 18.9875C25.3092 18.4682 25.3441 17.9155 25.2703 17.3707C25.1817 16.724 24.8463 16.2491 24.1795 16.0357C24.4478 15.3246 24.8423 14.7155 25.4716 14.2902C26.3759 13.6784 27.3781 13.5294 28.43 13.7521C29.2967 13.936 29.8858 14.6296 29.977 15.5299C30.1179 16.9226 29.8173 18.2254 29.0861 19.4128C28.7493 19.9589 28.3549 20.4727 27.9618 20.9813C27.4291 21.6695 26.9501 22.3874 26.5422 23.1562Z" fill="#365888"/>
<path d="M21.9281 14.1426L21.9295 13.3389M30.3876 18.1409C30.515 17.682 30.5687 17.203 30.6559 16.7334C30.6653 16.6824 30.6787 16.6328 30.6908 16.5831V15.6359C30.6116 15.3193 30.5647 14.9892 30.4452 14.6887C30.0709 13.7347 29.3343 13.2061 28.3455 13.0464C27.0534 12.8398 25.8606 13.0934 24.8316 13.9413C24.2077 14.4552 23.7703 15.1006 23.5247 15.872C23.4831 16.0022 23.4281 16.0612 23.2873 16.0827C23.0686 16.1162 22.8552 16.1847 22.6231 16.241V16.0116L22.6084 15.33C22.6084 14.7302 22.607 14.1748 22.6124 13.6247L22.6084 12.6385C22.6084 12.2065 22.5882 11.8268 22.6124 11.4484C22.6513 10.8487 22.1978 10.367 21.4974 10.524C20.8923 10.6595 20.2872 10.6488 19.6781 10.524C19.0059 10.3872 18.5765 10.7481 18.5739 11.4337C18.5739 11.8147 18.5739 12.1958 18.5739 12.6305L18.5712 13.7293L18.5671 15.3166V15.9941C18.5658 16.0813 18.5658 16.1578 18.5658 16.2356C18.3015 16.1766 18.0452 16.1256 17.7943 16.0559C17.7433 16.0411 17.6937 15.9606 17.6736 15.9002C17.2268 14.5733 16.348 13.6596 15.0277 13.2061C14.0818 12.8814 13.1104 12.8639 12.1712 13.2369C11.1811 13.6341 10.6551 14.4217 10.5397 15.4534C10.3398 17.2285 10.8322 18.8359 11.8492 20.2849C12.2678 20.882 12.7227 21.4535 13.1601 22.0372C13.207 22.1002 13.2513 22.166 13.3036 22.2411C13.1842 22.3162 13.0635 22.378 12.9588 22.4612C12.712 22.6557 12.5161 22.8757 12.4959 23.2232C12.4772 23.5385 12.178 23.7747 11.8452 23.7532C11.6507 23.7411 11.4561 23.6942 11.2683 23.6392C10.8269 23.5117 10.4928 23.7398 10.4928 24.192C10.4901 25.9402 10.4887 27.6898 10.4928 29.438C10.4941 30.0284 10.8685 30.4443 11.4561 30.4765C11.9539 30.5033 12.4557 30.498 12.9535 30.4698C13.4539 30.4416 13.8229 30.0391 13.8484 29.5346C13.8766 28.9778 13.8672 28.417 13.9262 27.8629C13.996 27.2081 14.2133 26.5896 14.5501 25.967C14.5809 26.1965 14.5903 26.3856 14.636 26.5668C14.7339 26.9532 14.8131 27.3517 14.9687 27.7153C15.3793 28.6759 16.2326 29.1885 17.2778 29.1334C18.6798 29.0583 19.7505 28.421 20.4764 27.2135C20.5072 27.1625 20.5381 27.1128 20.5864 27.0337C20.6334 27.1061 20.6709 27.1625 20.7058 27.2188C21.4209 28.4036 22.4702 29.0422 23.8494 29.1294C25.0462 29.2046 25.9948 28.5498 26.3369 27.4C26.4711 26.9492 26.5516 26.4836 26.6603 26.0073C26.7529 26.2126 26.8562 26.4192 26.9394 26.6339C27.2252 27.3718 27.3392 28.1406 27.3258 28.9309C27.3218 29.1348 27.3204 29.3387 27.3325 29.5413C27.3607 30.0418 27.7296 30.443 28.2328 30.4698C28.7305 30.4966 29.231 30.4953 29.7301 30.4765C30.193 30.4591 30.4935 30.1988 30.6438 29.7627C30.6546 29.7332 30.6733 29.7064 30.6881 29.6795V23.9987C30.4479 23.5882 30.2842 23.5426 29.812 23.6673C29.5906 23.7264 29.345 23.7465 29.1196 23.7156C28.8741 23.6821 28.7051 23.4849 28.6863 23.2393C28.6514 22.7778 28.3616 22.5309 28.0033 22.3243C27.9752 22.3082 27.9443 22.2948 27.9175 22.2787C27.9067 22.272 27.9 22.2599 27.8719 22.2304C28.1778 21.8292 28.4837 21.42 28.7976 21.0175C29.4819 20.144 30.0843 19.2223 30.3849 18.1422L30.3876 18.1409ZM21.9308 14.6645L21.9348 15.4897C21.9348 15.8009 21.9348 16.1135 21.9348 16.4248C21.9348 16.4731 21.9348 16.5228 21.912 16.5657C21.8879 16.6113 21.8436 16.6422 21.7993 16.6704C21.0855 17.1077 20.1302 17.1158 19.4097 16.6878C19.3534 16.6543 19.2957 16.6153 19.2689 16.555C19.2487 16.5107 19.2487 16.4597 19.2487 16.4114C19.2487 14.7423 19.246 13.0746 19.2447 11.4055C19.2447 11.3384 19.2474 11.2633 19.2943 11.2163C19.3561 11.1533 19.4594 11.1694 19.5452 11.1881C20.1678 11.3196 20.8132 11.3317 21.4397 11.223C21.5632 11.2016 21.6879 11.1761 21.81 11.2029C21.8436 11.2096 21.8771 11.223 21.8959 11.2499C21.9134 11.2754 21.9134 11.3062 21.9147 11.3371C21.9201 11.7141 21.9201 12.0898 21.9214 12.4668L21.9308 14.6658V14.6645ZM13.6498 26.2796C13.3211 27.0632 13.1883 27.8897 13.1829 28.7376C13.1815 28.9805 13.1869 29.2233 13.1789 29.4662C13.1722 29.6782 13.0608 29.803 12.8501 29.8083C12.4034 29.8191 11.9566 29.8191 11.5111 29.811C11.2924 29.807 11.1811 29.6795 11.165 29.4595C11.1609 29.4139 11.1636 29.3682 11.1636 29.3213C11.1636 27.7327 11.1636 26.1428 11.1636 24.5542V24.3436C12.288 24.4724 12.4557 24.4281 12.9374 23.8995C13.364 24.3355 13.7907 24.7729 14.2039 25.1969C14.0268 25.539 13.8095 25.8986 13.6485 26.281L13.6498 26.2796ZM14.3529 24.4482C13.9825 24.0122 13.6122 23.5748 13.207 23.0985C13.3949 22.9898 13.5317 22.9106 13.682 22.8234C13.9933 23.3427 14.263 23.8444 14.4146 24.4026C14.3931 24.4187 14.373 24.4335 14.3515 24.4496L14.3529 24.4482ZM20.2376 26.0207C20.1946 26.3132 20.0484 26.6057 19.8914 26.8646C19.4164 27.6468 18.7604 28.2104 17.8399 28.4022C17.3234 28.5096 16.8041 28.5216 16.3225 28.2613C15.712 27.9326 15.4544 27.3584 15.3524 26.717C15.2639 26.1549 15.2303 25.582 15.1981 25.0131C15.1619 24.3972 14.9727 23.831 14.7017 23.285C14.2214 22.3136 13.5908 21.4428 12.9145 20.6002C12.3443 19.8904 11.8439 19.1364 11.5406 18.2697C11.2227 17.3654 11.0818 16.4342 11.2079 15.4789C11.338 14.4941 12.025 13.8206 13.0125 13.7025C14.1825 13.563 15.2491 13.7991 16.1279 14.6377C16.4982 14.9919 16.8645 15.5983 16.9839 16.0398C16.3668 16.2383 16.0179 16.6851 15.9213 17.3063C15.8717 17.627 15.8878 17.9624 15.9133 18.2885C15.9736 19.025 16.246 19.6878 16.6592 20.297C16.6847 20.3332 16.7049 20.3735 16.7304 20.4177C16.6056 20.5036 16.5157 20.56 16.3641 20.4459C16.1642 20.297 15.8972 20.4634 15.8837 20.7371C15.8542 21.361 15.9106 21.9768 16.199 22.5417C16.8015 23.7237 17.738 24.4013 19.0998 24.4455C19.4366 24.4563 19.7707 24.5569 20.1061 24.6146C20.2148 24.6334 20.2564 24.6884 20.2537 24.8024C20.247 25.2103 20.2953 25.6235 20.2362 26.0234L20.2376 26.0207ZM17.1302 20.9839C17.9097 21.8037 18.2894 22.8543 18.9509 23.7626C18.1646 23.6955 17.5837 23.3306 17.1194 22.759C16.8095 22.378 16.6445 21.9339 16.5734 21.4508C16.5546 21.3274 16.5707 21.2415 16.7049 21.1906C16.8511 21.1355 16.9866 21.0537 17.1288 20.9826L17.1302 20.9839ZM19.8176 23.5895C19.5238 23.4393 19.3252 23.1924 19.179 22.9106C18.6839 21.95 18.0855 21.0577 17.4213 20.2057C16.8793 19.5094 16.5439 18.7299 16.5479 17.8256C16.5573 17.682 16.5519 17.5344 16.5787 17.3949C16.6888 16.8327 17.047 16.6207 17.6575 16.7133C18.2237 16.7992 18.7094 17.0662 19.2004 17.3318C19.6834 17.5934 20.204 17.7182 20.7555 17.6833C21.1996 17.6538 21.6209 17.5331 22.0113 17.3144C22.4822 17.0514 22.9518 16.7777 23.5006 16.7254C23.7233 16.7039 23.9729 16.6918 24.1728 16.771C24.48 16.8917 24.586 17.195 24.6102 17.5116C24.6826 18.4562 24.4156 19.3028 23.8615 20.0635C23.8186 20.1226 23.7797 20.1829 23.734 20.2393C23.0726 21.0685 22.505 21.9567 22.0059 22.8932C21.5618 23.7237 20.6307 24.0055 19.8163 23.5909L19.8176 23.5895ZM24.0493 20.9826C24.2063 21.0604 24.3781 21.1369 24.5391 21.2348C24.582 21.2603 24.6115 21.3542 24.6048 21.4106C24.4934 22.3095 24.044 22.9925 23.2604 23.446C22.8552 23.6808 22.5909 23.7452 22.2448 23.7438C22.8874 22.8516 23.2698 21.8024 24.0493 20.9826ZM28.2449 23.8968C28.6863 24.4979 29.3155 24.5126 30.0159 24.3248V24.5314C30.0159 26.1294 30.0159 27.7273 30.0159 29.324C30.0159 29.7117 29.9139 29.8137 29.5248 29.815C29.1827 29.815 28.8406 29.815 28.4998 29.815C28.0906 29.815 27.9913 29.7238 27.9993 29.3199C28.0181 28.4344 27.9591 27.561 27.6907 26.7103C27.5176 26.1629 27.2855 25.6464 26.9461 25.2237C27.3821 24.7769 27.8075 24.3436 28.2449 23.8968ZM27.9376 23.0797C27.5928 23.5855 27.2413 24.043 26.7515 24.4563C26.9125 23.8458 27.1862 23.3494 27.4975 22.8207C27.6518 22.9106 27.7887 22.9911 27.9389 23.0797H27.9376ZM26.5422 23.1562C26.1759 23.8485 25.9626 24.5743 25.964 25.3606C25.964 25.9335 25.9143 26.5037 25.7493 27.0551C25.5252 27.8025 25.0838 28.3432 24.264 28.4465C23.6415 28.5243 23.0471 28.4009 22.501 28.0829C21.7872 27.6656 21.3082 27.0444 20.9862 26.2957C20.9433 26.1965 20.9299 26.0797 20.9285 25.9697C20.9218 25.5954 20.9312 25.2197 20.9232 24.8454C20.9205 24.7058 20.9514 24.6213 21.1016 24.5985C21.4451 24.5462 21.7872 24.4388 22.1294 24.4428C23.5395 24.459 25.0087 23.285 25.2435 21.6655C25.2851 21.3811 25.2958 21.0899 25.2971 20.8015C25.2971 20.4325 25.0516 20.3091 24.7323 20.4848C24.6652 20.5224 24.5498 20.4714 24.4908 20.466C24.7175 19.9468 24.955 19.4785 25.1267 18.9875C25.3092 18.4682 25.3441 17.9155 25.2703 17.3707C25.1817 16.724 24.8463 16.2491 24.1795 16.0357C24.4478 15.3246 24.8423 14.7155 25.4716 14.2902C26.3759 13.6784 27.3781 13.5294 28.43 13.7521C29.2967 13.936 29.8858 14.6296 29.977 15.5299C30.1179 16.9226 29.8173 18.2254 29.0861 19.4128C28.7493 19.9589 28.3549 20.4727 27.9618 20.9813C27.4291 21.6695 26.9501 22.3874 26.5422 23.1562Z" stroke="#365888" stroke-width="0.2" stroke-miterlimit="10"/>
</svg>
