<svg width="40" height="40" viewBox="0 0 40 40" fill="none" xmlns="http://www.w3.org/2000/svg">
<path d="M15.7746 10.0383C12.6195 11.6711 10.4461 14.7861 10.0602 18.3259C9.69312 21.696 11.0231 25.1227 13.5673 27.3627C16.0914 29.5851 19.5809 30.4801 22.8656 29.7511C26.0836 29.0371 28.8566 26.7606 30.1928 23.7487C31.8652 19.9765 31.1415 15.5672 28.465 12.474L29.2199 11.4813C29.4751 11.113 29.2387 10.6064 28.7937 10.5662L25.5104 10.2645C25.2602 10.2419 25.078 10.4983 25.1848 10.7271H25.1823L26.6907 13.7566C26.8315 14.0595 27.2488 14.096 27.4399 13.8219L28.076 12.9855C30.2874 15.5993 31.0574 19.2028 30.003 22.4929C29.0653 25.4193 26.7372 27.814 23.8322 28.8234C20.9272 29.8328 17.454 29.3978 14.8507 27.5789C12.2989 25.7927 10.7101 22.8261 10.6309 19.7149C10.5341 15.8734 12.6962 12.3386 16.0927 10.5813C16.4522 10.3953 16.1342 9.85222 15.7759 10.0383H15.7746Z" fill="#365888"/>
<path fill-rule="evenodd" clip-rule="evenodd" d="M24.9598 16.8401H24.9585C24.941 16.8389 24.9243 16.8389 24.9083 16.8401H23.3209C23.3259 16.7264 23.3327 16.6093 23.3396 16.4903C23.3762 15.8602 23.416 15.1748 23.2075 14.6403C22.816 13.6375 21.8081 13.6546 20.9035 13.6699C20.7942 13.6718 20.6865 13.6736 20.5815 13.6736C20.4723 13.6736 20.3605 13.6716 20.2475 13.6696C19.3525 13.6535 18.3793 13.636 17.9719 14.6025C17.7443 15.1402 17.7857 15.8494 17.8234 16.4952C17.8301 16.6098 17.8367 16.7225 17.8417 16.8319C17.7308 16.8269 17.6168 16.8203 17.501 16.8136L17.5007 16.8136L17.5003 16.8135C16.8702 16.777 16.1847 16.7372 15.6502 16.9457C14.6475 17.3371 14.6645 18.345 14.6799 19.2497C14.6817 19.3589 14.6835 19.4667 14.6835 19.5716C14.6835 19.6808 14.6815 19.7926 14.6795 19.9056C14.6634 20.8006 14.646 21.7738 15.6125 22.1812C16.1502 22.4089 16.8595 22.3674 17.5048 22.3297L17.505 22.3297C17.6193 22.323 17.7316 22.3164 17.8405 22.3115C17.8356 22.4225 17.829 22.5368 17.8222 22.6529C17.7857 23.2829 17.7459 23.9685 17.9543 24.5029C18.3458 25.5057 19.3537 25.4886 20.2584 25.4733C20.3676 25.4714 20.4754 25.4696 20.5803 25.4696C20.6894 25.4696 20.8011 25.4716 20.914 25.4736H20.9142C21.8092 25.4897 22.7825 25.5072 23.1899 24.5407C23.4175 24.003 23.3761 23.2936 23.3384 22.6483L23.3384 22.6481C23.3316 22.5326 23.325 22.4192 23.32 22.3092C23.3863 22.3109 23.4538 22.3129 23.5222 22.3149L23.5226 22.3149C24.8116 22.3524 26.4211 22.3992 26.4783 20.7318C26.4833 20.5846 26.4921 20.4253 26.5013 20.2581C26.5772 18.8776 26.6829 16.9564 24.9598 16.8401ZM24.9598 17.4698C24.9642 17.4698 24.9686 17.4698 24.9729 17.4696C25.8508 17.5372 25.8503 18.3148 25.8498 18.9805L25.8498 19.0261C25.8498 19.2143 25.853 19.4036 25.8562 19.5933C25.8626 19.9736 25.8691 20.3553 25.8498 20.7318C25.7931 21.8264 24.474 21.7514 23.5132 21.6967C23.3231 21.6859 23.1471 21.6759 22.9976 21.6759C22.8279 21.6759 22.6833 21.8204 22.6833 21.9901C22.6833 22.2021 22.6873 22.4154 22.6914 22.629V22.6293C22.6995 23.0577 22.7076 23.4878 22.6833 23.9121C22.6266 24.9051 21.6879 24.8742 20.9167 24.8487C20.7994 24.8448 20.6861 24.8411 20.5803 24.8411C20.4732 24.8411 20.3584 24.8449 20.2398 24.8489H20.2397C19.4702 24.8748 18.5383 24.9061 18.4773 23.926C18.4504 23.499 18.4594 23.0654 18.4684 22.6333C18.4728 22.4178 18.4773 22.2026 18.4773 21.9889C18.4773 21.8192 18.3327 21.6746 18.163 21.6746C17.951 21.6746 17.7378 21.6787 17.5242 21.6827H17.5239C17.0954 21.6908 16.6654 21.6989 16.241 21.6746C15.248 21.6179 15.279 20.6793 15.3044 19.908C15.3083 19.7908 15.3121 19.6774 15.3121 19.5716C15.3121 19.4644 15.3082 19.3496 15.3042 19.231C15.2783 18.4615 15.247 17.5296 16.2272 17.4686C16.6541 17.4417 17.0877 17.4507 17.5199 17.4597L17.52 17.4597C17.7355 17.4641 17.9506 17.4686 18.1643 17.4686C18.334 17.4686 18.4785 17.324 18.4785 17.1543C18.4785 16.9423 18.4745 16.7291 18.4704 16.5155V16.5152C18.4623 16.0867 18.4542 15.6567 18.4785 15.2323C18.5353 14.2393 19.4739 14.2703 20.2452 14.2958C20.3624 14.2996 20.4757 14.3034 20.5815 14.3034C20.6887 14.3034 20.8035 14.2995 20.9222 14.2955C21.6917 14.2697 22.6236 14.2383 22.6846 15.2185C22.7114 15.6454 22.7024 16.0791 22.6935 16.5112C22.689 16.7267 22.6846 16.9418 22.6846 17.1556C22.6846 17.3253 22.8291 17.4698 22.9988 17.4698H24.9598Z" fill="#365888"/>
<path fill-rule="evenodd" clip-rule="evenodd" d="M26.6903 24.6148C26.78 24.5318 26.881 24.4689 26.9912 24.4162C27.0452 24.3898 27.0993 24.3672 27.1558 24.3458C27.1714 24.3396 27.1883 24.3342 27.2055 24.3287C27.2438 24.3165 27.2835 24.3039 27.313 24.2805C27.3683 24.2365 27.3859 24.1573 27.3595 24.0932C27.3287 24.0173 27.2408 23.9891 27.1618 23.9638C27.1373 23.956 27.1138 23.9484 27.093 23.9398C26.8516 23.8392 26.6505 23.6997 26.5185 23.4684C26.4569 23.3603 26.4117 23.2459 26.3677 23.1303C26.3337 23.0435 26.2746 22.9656 26.1691 22.9895C26.0816 23.0093 26.0536 23.0895 26.0273 23.165C26.0219 23.1806 26.0165 23.1961 26.0107 23.2107C25.9616 23.3364 25.9038 23.4596 25.8259 23.5702C25.6738 23.7839 25.4349 23.8971 25.1961 23.9863C25.1131 24.0177 25.0277 24.0617 25.0352 24.1661C25.0431 24.2684 25.1315 24.3013 25.2149 24.3324C25.2204 24.3344 25.2259 24.3365 25.2314 24.3385C25.2338 24.3394 25.2362 24.3403 25.2385 24.3412C25.2403 24.3419 25.2421 24.3426 25.2439 24.3433C25.4915 24.4388 25.7203 24.5671 25.8636 24.7983C25.939 24.9178 25.9906 25.0485 26.0408 25.1805C26.0773 25.2735 26.1489 25.3577 26.2596 25.315C26.3427 25.2829 26.3754 25.1832 26.4047 25.0941C26.4144 25.0647 26.4237 25.0364 26.4343 25.012C26.4959 24.8713 26.5713 24.7405 26.6782 24.6299C26.6829 24.625 26.6869 24.6199 26.6903 24.6148ZM26.2055 24.7687C26.2729 24.6358 26.3535 24.5108 26.4594 24.4049C26.5649 24.2994 26.6883 24.2195 26.8195 24.1535C26.6866 24.0861 26.5616 24.0055 26.4557 23.8996C26.3502 23.7941 26.2703 23.6707 26.2042 23.5395C26.1369 23.6724 26.0562 23.7974 25.9503 23.9033C25.8448 24.0088 25.7215 24.0887 25.5903 24.1548C25.7232 24.2221 25.8482 24.3028 25.9541 24.4087C26.0596 24.5142 26.1395 24.6375 26.2055 24.7687Z" fill="#365888"/>
<path fill-rule="evenodd" clip-rule="evenodd" d="M15.5077 15.2449C15.5974 15.1619 15.6984 15.099 15.8086 15.0463C15.8626 15.0199 15.9167 14.9973 15.9733 14.9759C15.9888 14.9697 16.0057 14.9643 16.0229 14.9588C16.0612 14.9466 16.1009 14.934 16.1304 14.9105C16.1857 14.8665 16.2033 14.7873 16.1769 14.7232C16.1462 14.6474 16.0582 14.6192 15.9792 14.5939C15.9548 14.586 15.9312 14.5785 15.9104 14.5699C15.6691 14.4693 15.4679 14.3298 15.3359 14.0985C15.2743 13.9904 15.2291 13.876 15.1851 13.7603C15.1512 13.6736 15.0921 13.5957 14.9865 13.6195C14.899 13.6393 14.871 13.7195 14.8447 13.7951C14.8393 13.8107 14.8339 13.8261 14.8281 13.8408C14.7791 13.9665 14.7212 14.0897 14.6433 14.2003C14.4912 14.414 14.2524 14.5271 14.0135 14.6164C13.9306 14.6478 13.8451 14.6918 13.8526 14.7961C13.8605 14.8985 13.949 14.9314 14.0323 14.9624C14.0421 14.9661 14.0518 14.9697 14.0613 14.9734C14.3089 15.0689 14.5377 15.1971 14.681 15.4284C14.7564 15.5478 14.808 15.6786 14.8583 15.8106C14.8947 15.9036 14.9664 15.9878 15.077 15.9451C15.1601 15.9129 15.1929 15.8133 15.2221 15.7242C15.2318 15.6948 15.2411 15.6665 15.2517 15.6421C15.3133 15.5013 15.3887 15.3706 15.4956 15.26C15.5003 15.2551 15.5043 15.25 15.5077 15.2449ZM15.0217 15.3988C15.0891 15.2659 15.1697 15.1409 15.2756 15.035C15.3811 14.9295 15.5045 14.8496 15.6356 14.7835C15.5028 14.7162 15.3777 14.6356 15.2718 14.5296C15.1663 14.4241 15.0865 14.3008 15.0204 14.1696C14.953 14.3025 14.8724 14.4275 14.7665 14.5334C14.661 14.6389 14.5376 14.7188 14.4065 14.7848C14.5393 14.8522 14.6644 14.9328 14.7703 15.0387C14.8758 15.1442 14.9556 15.2676 15.0217 15.3988Z" fill="#365888"/>
<path d="M15.7746 10.0383C12.6195 11.6711 10.4461 14.7861 10.0602 18.3259C9.69312 21.696 11.0231 25.1227 13.5673 27.3627C16.0914 29.5851 19.5809 30.4801 22.8656 29.7511C26.0836 29.0371 28.8566 26.7606 30.1928 23.7487C31.8652 19.9765 31.1415 15.5672 28.465 12.474L29.2199 11.4813C29.4751 11.113 29.2387 10.6064 28.7937 10.5662L25.5104 10.2645C25.2602 10.2419 25.078 10.4983 25.1848 10.7271H25.1823L26.6907 13.7566C26.8315 14.0595 27.2488 14.096 27.4399 13.8219L28.076 12.9855C30.2874 15.5993 31.0574 19.2028 30.003 22.4929C29.0653 25.4193 26.7372 27.814 23.8322 28.8234C20.9272 29.8328 17.454 29.3978 14.8507 27.5789C12.2989 25.7927 10.7101 22.8261 10.6309 19.7149C10.5341 15.8734 12.6962 12.3386 16.0927 10.5813C16.4522 10.3953 16.1342 9.85222 15.7759 10.0383H15.7746Z" stroke="#365888" stroke-width="0.2" stroke-miterlimit="10"/>
<path fill-rule="evenodd" clip-rule="evenodd" d="M24.9598 16.8401H24.9585C24.941 16.8389 24.9243 16.8389 24.9083 16.8401H23.3209C23.3259 16.7264 23.3327 16.6093 23.3396 16.4903C23.3762 15.8602 23.416 15.1748 23.2075 14.6403C22.816 13.6375 21.8081 13.6546 20.9035 13.6699C20.7942 13.6718 20.6865 13.6736 20.5815 13.6736C20.4723 13.6736 20.3605 13.6716 20.2475 13.6696C19.3525 13.6535 18.3793 13.636 17.9719 14.6025C17.7443 15.1402 17.7857 15.8494 17.8234 16.4952C17.8301 16.6098 17.8367 16.7225 17.8417 16.8319C17.7308 16.8269 17.6168 16.8203 17.501 16.8136L17.5007 16.8136L17.5003 16.8135C16.8702 16.777 16.1847 16.7372 15.6502 16.9457C14.6475 17.3371 14.6645 18.345 14.6799 19.2497C14.6817 19.3589 14.6835 19.4667 14.6835 19.5716C14.6835 19.6808 14.6815 19.7926 14.6795 19.9056C14.6634 20.8006 14.646 21.7738 15.6125 22.1812C16.1502 22.4089 16.8595 22.3674 17.5048 22.3297L17.505 22.3297C17.6193 22.323 17.7316 22.3164 17.8405 22.3115C17.8356 22.4225 17.829 22.5368 17.8222 22.6529C17.7857 23.2829 17.7459 23.9685 17.9543 24.5029C18.3458 25.5057 19.3537 25.4886 20.2584 25.4733C20.3676 25.4714 20.4754 25.4696 20.5803 25.4696C20.6894 25.4696 20.8011 25.4716 20.914 25.4736H20.9142C21.8092 25.4897 22.7825 25.5072 23.1899 24.5407C23.4175 24.003 23.3761 23.2936 23.3384 22.6483L23.3384 22.6481C23.3316 22.5326 23.325 22.4192 23.32 22.3092C23.3863 22.3109 23.4538 22.3129 23.5222 22.3149L23.5226 22.3149C24.8116 22.3524 26.4211 22.3992 26.4783 20.7318C26.4833 20.5846 26.4921 20.4253 26.5013 20.2581C26.5772 18.8776 26.6829 16.9564 24.9598 16.8401ZM24.9598 17.4698C24.9642 17.4698 24.9686 17.4698 24.9729 17.4696C25.8508 17.5372 25.8503 18.3148 25.8498 18.9805L25.8498 19.0261C25.8498 19.2143 25.853 19.4036 25.8562 19.5933C25.8626 19.9736 25.8691 20.3553 25.8498 20.7318C25.7931 21.8264 24.474 21.7514 23.5132 21.6967C23.3231 21.6859 23.1471 21.6759 22.9976 21.6759C22.8279 21.6759 22.6833 21.8204 22.6833 21.9901C22.6833 22.2021 22.6873 22.4154 22.6914 22.629V22.6293C22.6995 23.0577 22.7076 23.4878 22.6833 23.9121C22.6266 24.9051 21.6879 24.8742 20.9167 24.8487C20.7994 24.8448 20.6861 24.8411 20.5803 24.8411C20.4732 24.8411 20.3584 24.8449 20.2398 24.8489H20.2397C19.4702 24.8748 18.5383 24.9061 18.4773 23.926C18.4504 23.499 18.4594 23.0654 18.4684 22.6333C18.4728 22.4178 18.4773 22.2026 18.4773 21.9889C18.4773 21.8192 18.3327 21.6746 18.163 21.6746C17.951 21.6746 17.7378 21.6787 17.5242 21.6827H17.5239C17.0954 21.6908 16.6654 21.6989 16.241 21.6746C15.248 21.6179 15.279 20.6793 15.3044 19.908C15.3083 19.7908 15.3121 19.6774 15.3121 19.5716C15.3121 19.4644 15.3082 19.3496 15.3042 19.231C15.2783 18.4615 15.247 17.5296 16.2272 17.4686C16.6541 17.4417 17.0877 17.4507 17.5199 17.4597L17.52 17.4597C17.7355 17.4641 17.9506 17.4686 18.1643 17.4686C18.334 17.4686 18.4785 17.324 18.4785 17.1543C18.4785 16.9423 18.4745 16.7291 18.4704 16.5155V16.5152C18.4623 16.0867 18.4542 15.6567 18.4785 15.2323C18.5353 14.2393 19.4739 14.2703 20.2452 14.2958C20.3624 14.2996 20.4757 14.3034 20.5815 14.3034C20.6887 14.3034 20.8035 14.2995 20.9222 14.2955C21.6917 14.2697 22.6236 14.2383 22.6846 15.2185C22.7114 15.6454 22.7024 16.0791 22.6935 16.5112C22.689 16.7267 22.6846 16.9418 22.6846 17.1556C22.6846 17.3253 22.8291 17.4698 22.9988 17.4698H24.9598Z" stroke="#365888" stroke-width="0.2" stroke-miterlimit="10"/>
<path fill-rule="evenodd" clip-rule="evenodd" d="M26.6903 24.6148C26.78 24.5318 26.881 24.4689 26.9912 24.4162C27.0452 24.3898 27.0993 24.3672 27.1558 24.3458C27.1714 24.3396 27.1883 24.3342 27.2055 24.3287C27.2438 24.3165 27.2835 24.3039 27.313 24.2805C27.3683 24.2365 27.3859 24.1573 27.3595 24.0932C27.3287 24.0173 27.2408 23.9891 27.1618 23.9638C27.1373 23.956 27.1138 23.9484 27.093 23.9398C26.8516 23.8392 26.6505 23.6997 26.5185 23.4684C26.4569 23.3603 26.4117 23.2459 26.3677 23.1303C26.3337 23.0435 26.2746 22.9656 26.1691 22.9895C26.0816 23.0093 26.0536 23.0895 26.0273 23.165C26.0219 23.1806 26.0165 23.1961 26.0107 23.2107C25.9616 23.3364 25.9038 23.4596 25.8259 23.5702C25.6738 23.7839 25.4349 23.8971 25.1961 23.9863C25.1131 24.0177 25.0277 24.0617 25.0352 24.1661C25.0431 24.2684 25.1315 24.3013 25.2149 24.3324C25.2204 24.3344 25.2259 24.3365 25.2314 24.3385C25.2338 24.3394 25.2362 24.3403 25.2385 24.3412C25.2403 24.3419 25.2421 24.3426 25.2439 24.3433C25.4915 24.4388 25.7203 24.5671 25.8636 24.7983C25.939 24.9178 25.9906 25.0485 26.0408 25.1805C26.0773 25.2735 26.1489 25.3577 26.2596 25.315C26.3427 25.2829 26.3754 25.1832 26.4047 25.0941C26.4144 25.0647 26.4237 25.0364 26.4343 25.012C26.4959 24.8713 26.5713 24.7405 26.6782 24.6299C26.6829 24.625 26.6869 24.6199 26.6903 24.6148ZM26.2055 24.7687C26.2729 24.6358 26.3535 24.5108 26.4594 24.4049C26.5649 24.2994 26.6883 24.2195 26.8195 24.1535C26.6866 24.0861 26.5616 24.0055 26.4557 23.8996C26.3502 23.7941 26.2703 23.6707 26.2042 23.5395C26.1369 23.6724 26.0562 23.7974 25.9503 23.9033C25.8448 24.0088 25.7215 24.0887 25.5903 24.1548C25.7232 24.2221 25.8482 24.3028 25.9541 24.4087C26.0596 24.5142 26.1395 24.6375 26.2055 24.7687Z" stroke="#365888" stroke-width="0.2" stroke-miterlimit="10"/>
<path fill-rule="evenodd" clip-rule="evenodd" d="M15.5077 15.2449C15.5974 15.1619 15.6984 15.099 15.8086 15.0463C15.8626 15.0199 15.9167 14.9973 15.9733 14.9759C15.9888 14.9697 16.0057 14.9643 16.0229 14.9588C16.0612 14.9466 16.1009 14.934 16.1304 14.9105C16.1857 14.8665 16.2033 14.7873 16.1769 14.7232C16.1462 14.6474 16.0582 14.6192 15.9792 14.5939C15.9548 14.586 15.9312 14.5785 15.9104 14.5699C15.6691 14.4693 15.4679 14.3298 15.3359 14.0985C15.2743 13.9904 15.2291 13.876 15.1851 13.7603C15.1512 13.6736 15.0921 13.5957 14.9865 13.6195C14.899 13.6393 14.871 13.7195 14.8447 13.7951C14.8393 13.8107 14.8339 13.8261 14.8281 13.8408C14.7791 13.9665 14.7212 14.0897 14.6433 14.2003C14.4912 14.414 14.2524 14.5271 14.0135 14.6164C13.9306 14.6478 13.8451 14.6918 13.8526 14.7961C13.8605 14.8985 13.949 14.9314 14.0323 14.9624C14.0421 14.9661 14.0518 14.9697 14.0613 14.9734C14.3089 15.0689 14.5377 15.1971 14.681 15.4284C14.7564 15.5478 14.808 15.6786 14.8583 15.8106C14.8947 15.9036 14.9664 15.9878 15.077 15.9451C15.1601 15.9129 15.1929 15.8133 15.2221 15.7242C15.2318 15.6948 15.2411 15.6665 15.2517 15.6421C15.3133 15.5013 15.3887 15.3706 15.4956 15.26C15.5003 15.2551 15.5043 15.25 15.5077 15.2449ZM15.0217 15.3988C15.0891 15.2659 15.1697 15.1409 15.2756 15.035C15.3811 14.9295 15.5045 14.8496 15.6356 14.7835C15.5028 14.7162 15.3777 14.6356 15.2718 14.5296C15.1663 14.4241 15.0865 14.3008 15.0204 14.1696C14.953 14.3025 14.8724 14.4275 14.7665 14.5334C14.661 14.6389 14.5376 14.7188 14.4065 14.7848C14.5393 14.8522 14.6644 14.9328 14.7703 15.0387C14.8758 15.1442 14.9556 15.2676 15.0217 15.3988Z" stroke="#365888" stroke-width="0.2" stroke-miterlimit="10"/>
</svg>
