<svg width="12" height="22" viewBox="0 0 12 22" fill="none" xmlns="http://www.w3.org/2000/svg">
<path fill-rule="evenodd" clip-rule="evenodd" d="M1.61336 21C1.45702 21 1.29966 20.9385 1.1801 20.8167C0.939967 20.5729 0.939967 20.1771 1.1801 19.9333L9.65423 11.2949C9.81262 11.1324 9.81262 10.8678 9.65423 10.7053L1.1801 2.06691C0.939967 1.82317 0.939967 1.42734 1.1801 1.18359C1.41921 0.938803 1.80751 0.938803 2.04662 1.18359L10.5208 9.82202C10.8304 10.1366 11 10.5553 11 11.0001C11 11.4449 10.8304 11.8637 10.5208 12.1782L2.04662 20.8167C1.92707 20.9385 1.7697 21 1.61336 21Z" fill="#0F0F0E"/>
<path d="M1.61336 21C1.45702 21 1.29966 20.9385 1.1801 20.8167C0.939967 20.5729 0.939967 20.1771 1.1801 19.9333L9.65423 11.2949C9.81262 11.1324 9.81262 10.8678 9.65423 10.7053L1.1801 2.06691C0.939967 1.82317 0.939967 1.42734 1.1801 1.18359C1.41921 0.938803 1.80751 0.938803 2.04662 1.18359L10.5208 9.82202C10.8304 10.1366 11 10.5553 11 11.0001C11 11.4449 10.8304 11.8637 10.5208 12.1782L2.04662 20.8167C1.92707 20.9385 1.7697 21 1.61336 21" stroke="#0F0F0E" stroke-width="0.6"/>
</svg>
