<svg width="201" height="200" viewBox="0 0 201 200" fill="none" xmlns="http://www.w3.org/2000/svg">
<circle cx="100.5" cy="100" r="100" fill="#FAEDE3"/>
<path fill-rule="evenodd" clip-rule="evenodd" d="M50.9016 127.2H123.702C124.113 127.2 124.515 127.156 124.902 127.071C125.288 127.156 125.69 127.2 126.102 127.2H167.702C170.794 127.2 173.302 124.693 173.302 121.6C173.302 118.507 170.794 116 167.702 116H162.902C159.809 116 157.302 113.493 157.302 110.4C157.302 107.307 159.809 104.8 162.902 104.8H178.102C181.194 104.8 183.702 102.293 183.702 99.2001C183.702 96.1073 181.194 93.6001 178.102 93.6001H160.502C163.594 93.6001 166.102 91.0929 166.102 88.0001C166.102 84.9073 163.594 82.4001 160.502 82.4001H109.302C112.394 82.4001 114.902 79.8929 114.902 76.8001C114.902 73.7073 112.394 71.2001 109.302 71.2001H63.7016C60.6088 71.2001 58.1016 73.7073 58.1016 76.8001C58.1016 79.8929 60.6088 82.4001 63.7016 82.4001H31.7016C28.6088 82.4001 26.1016 84.9073 26.1016 88.0001C26.1016 91.0929 28.6088 93.6001 31.7016 93.6001H51.7016C54.7944 93.6001 57.3016 96.1073 57.3016 99.2001C57.3016 102.293 54.7944 104.8 51.7016 104.8H19.7016C16.6088 104.8 14.1016 107.307 14.1016 110.4C14.1016 113.493 16.6088 116 19.7016 116H50.9016C47.8088 116 45.3016 118.507 45.3016 121.6C45.3016 124.693 47.8088 127.2 50.9016 127.2ZM181.302 127.2C184.395 127.2 186.902 124.693 186.902 121.6C186.902 118.507 184.395 116 181.302 116C178.21 116 175.702 118.507 175.702 121.6C175.702 124.693 178.21 127.2 181.302 127.2Z" fill="#F18A6D" fill-opacity="0.2"/>
<path d="M76.3138 97.4646L77.2981 97.2878L76.3138 97.4646ZM76.5403 98.7253L76.473 99.7231L77.751 99.8093L77.5246 98.5485L76.5403 98.7253ZM75.2623 98.6392L75.3296 97.6414H75.3296L75.2623 98.6392ZM132.241 131V132H132.281L132.321 131.997L132.241 131ZM132.42 130.986L132.5 131.983L132.42 130.986ZM127.995 85.1303L128.099 86.1249H128.099L127.995 85.1303ZM127.198 85.2136L126.25 85.5319L126.505 86.2915L127.302 86.2082L127.198 85.2136ZM126.943 84.454L125.995 84.7724V84.7724L126.943 84.454ZM128.576 83.0708L127.638 83.4158L127.898 84.1235L128.65 84.0681L128.576 83.0708ZM133.5 132.889L133.385 131.896L132.5 131.999V132.889H133.5ZM133.5 133V134H134.5V133H133.5ZM74.154 96.6002L74.1512 97.6002L75.2982 97.6033L75.145 96.4666L74.154 96.6002ZM76.9 92.8001C76.9 78.8825 88.1824 67.6001 102.1 67.6001V65.6001C87.0779 65.6001 74.9 77.778 74.9 92.8001H76.9ZM77.2981 97.2878C77.0367 95.8329 76.9 94.3333 76.9 92.8001H74.9C74.9 94.4524 75.0473 96.0703 75.3296 97.6414L77.2981 97.2878ZM77.5246 98.5485L77.2981 97.2878L75.3296 97.6414L75.5561 98.9022L77.5246 98.5485ZM75.195 99.6369L76.473 99.7231L76.6076 97.7276L75.3296 97.6414L75.195 99.6369ZM74.1 99.6001C74.4684 99.6001 74.8335 99.6125 75.195 99.6369L75.3296 97.6414C74.9234 97.614 74.5133 97.6001 74.1 97.6001V99.6001ZM58.5 114.8C58.5 106.448 65.4412 99.6001 74.1 99.6001V97.6001C64.3794 97.6001 56.5 105.301 56.5 114.8H58.5ZM74.1 130C65.4412 130 58.5 123.152 58.5 114.8H56.5C56.5 124.299 64.3794 132 74.1 132V130ZM87.3062 130H74.1V132H87.3062V130ZM132.241 130H87.3062V132H132.241V130ZM132.341 129.989L132.162 130.003L132.321 131.997L132.5 131.983L132.341 129.989ZM152.9 108C152.9 119.521 143.871 129.069 132.341 129.989L132.5 131.983C145.04 130.982 154.9 120.592 154.9 108H152.9ZM130.5 86.0001C142.902 86.0001 152.9 95.8807 152.9 108H154.9C154.9 94.7455 143.976 84.0001 130.5 84.0001V86.0001ZM128.099 86.1249C128.887 86.0424 129.688 86.0001 130.5 86.0001V84.0001C129.619 84.0001 128.748 84.0461 127.891 84.1357L128.099 86.1249ZM127.302 86.2082L128.099 86.1249L127.891 84.1357L127.094 84.219L127.302 86.2082ZM125.995 84.7724L126.25 85.5319L128.146 84.8953L127.891 84.1357L125.995 84.7724ZM102.1 67.6001C113.208 67.6001 122.642 74.7883 125.995 84.7724L127.891 84.1357C124.273 73.3616 114.093 65.6001 102.1 65.6001V67.6001ZM102.1 63.6001C85.9733 63.6001 72.9 76.6734 72.9 92.8001H74.9C74.9 77.778 87.0779 65.6001 102.1 65.6001V63.6001ZM129.515 82.7257C125.413 71.5658 114.689 63.6001 102.1 63.6001V65.6001C113.824 65.6001 123.815 73.0172 127.638 83.4158L129.515 82.7257ZM130.5 82.0001C129.828 82.0001 129.162 82.0248 128.503 82.0735L128.65 84.0681C129.261 84.023 129.878 84.0001 130.5 84.0001V82.0001ZM156.9 108C156.9 93.6095 145.049 82.0001 130.5 82.0001V84.0001C143.976 84.0001 154.9 94.7454 154.9 108H156.9ZM133.615 133.883C146.708 132.363 156.9 121.342 156.9 108H154.9C154.9 120.295 145.501 130.489 133.385 131.896L133.615 133.883ZM134.5 133V132.889H132.5V133H134.5ZM132.5 134H133.5V132H132.5V134ZM87.3062 134H132.5V132H87.3062V134ZM74.1 134H87.3062V132H74.1V134ZM54.5 114.8C54.5 125.447 63.3192 134 74.1 134V132C64.3794 132 56.5 124.299 56.5 114.8H54.5ZM74.1 95.6001C63.3192 95.6001 54.5 104.153 54.5 114.8H56.5C56.5 105.301 64.3794 97.6001 74.1 97.6001V95.6001ZM74.1567 95.6002C74.138 95.6001 74.1191 95.6001 74.1 95.6001V97.6001C74.1169 97.6001 74.134 97.6001 74.1512 97.6002L74.1567 95.6002ZM72.9 92.8001C72.9 94.1331 72.9895 95.4463 73.1629 96.7337L75.145 96.4666C74.9834 95.2675 74.9 94.0436 74.9 92.8001H72.9Z" fill="#F18A6D" fill-opacity="0.6"/>
<path fill-rule="evenodd" clip-rule="evenodd" d="M93.791 71.4741C93.791 97.2526 117.007 118.494 146.901 121.362C143.155 125.969 137.37 129.094 130.779 129.585V129.6H77.0956C70.5822 129.6 59.7012 126.856 59.7012 114.839C59.7012 102.822 68.1605 100.077 77.0956 100.077C77.4756 100.077 77.8525 100.089 78.2259 100.113C77.9664 98.7645 77.9208 97.3747 77.831 95.9579C77.2242 86.3874 81.3995 74.3256 93.8055 70.4C93.7955 70.7579 93.791 71.1156 93.791 71.4741Z" fill="#F18A6D" fill-opacity="0.3"/>
<path d="M110.099 75.2001C115.306 76.5781 119.418 80.6504 120.852 85.8346" stroke="#F18A6D" stroke-width="2" stroke-linecap="round"/>
<path d="M86.8996 101.2C86.8996 104.072 89.4068 106.4 92.4996 106.4C95.5924 106.4 98.0996 104.072 98.0996 101.2" stroke="#F18A6D" stroke-opacity="0.6" stroke-width="2" stroke-linecap="round"/>
<path d="M110.101 101.2C110.101 104.072 112.608 106.4 115.701 106.4C118.794 106.4 121.301 104.072 121.301 101.2" stroke="#F18A6D" stroke-opacity="0.6" stroke-width="2" stroke-linecap="round"/>
<path d="M98.0996 116H109.7" stroke="#F18A6D" stroke-opacity="0.6" stroke-width="2" stroke-linecap="round"/>
<path fill-rule="evenodd" clip-rule="evenodd" d="M55.8231 68.2336H46.2663V70.1344H53.0247L45.7031 79.0048V80.8H55.9991V78.8992H48.5015L55.8231 69.9056V68.2336ZM66.5513 80.4608H59.6009V81.8432H64.5161L59.1913 88.2944V89.6H66.6793V88.2176H61.2265L66.5513 81.6768V80.4608Z" fill="#F18A6D"/>
</svg>
