<svg width="16" height="16" viewBox="0 0 16 16" fill="none" xmlns="http://www.w3.org/2000/svg">
<circle cx="8" cy="8" r="8" fill="white"/>
<path fill-rule="evenodd" clip-rule="evenodd" d="M8.38154 4.99761C8.98213 4.39703 9.95586 4.39703 10.5564 4.99761C11.157 5.59819 11.157 6.57193 10.5564 7.17251L7.0069 10.7221C6.77373 10.9552 6.45881 11.0883 6.12909 11.0929L5.28293 11.1049C4.81979 11.1114 4.44267 10.7343 4.4492 10.2711L4.46113 9.42497C4.46577 9.09524 4.59882 8.78033 4.832 8.54715L8.38154 4.99761ZM10.0222 5.53187C9.71667 5.22635 9.22132 5.22635 8.9158 5.53187L5.36626 9.08141C5.27217 9.1755 5.21848 9.30257 5.21661 9.43562L5.20468 10.2818C5.20415 10.3193 5.23473 10.3499 5.27228 10.3494L6.11844 10.3374C6.25149 10.3356 6.37856 10.2819 6.47264 10.1878L10.0222 6.63826C10.3277 6.33273 10.3277 5.83739 10.0222 5.53187Z" fill="black" fill-opacity="0.6"/>
<path fill-rule="evenodd" clip-rule="evenodd" d="M9.46899 7.45317L8.1021 6.08565L8.63623 5.55127L10.0031 6.91879L9.46899 7.45317Z" fill="black" fill-opacity="0.6"/>
<path fill-rule="evenodd" clip-rule="evenodd" d="M8.1355 11.0291C8.1355 10.8205 8.30463 10.6514 8.51328 10.6514H11.6239C11.8325 10.6514 12.0016 10.8205 12.0016 11.0291C12.0016 11.2378 11.8325 11.4069 11.6239 11.4069H8.51328C8.30463 11.4069 8.1355 11.2378 8.1355 11.0291Z" fill="black" fill-opacity="0.6"/>
</svg>
