<svg width="20" height="17" viewBox="0 0 20 17" fill="none" xmlns="http://www.w3.org/2000/svg">
<path fill-rule="evenodd" clip-rule="evenodd" d="M1.89878 1.53245V14.6605C1.90643 14.9363 2.02214 15.4165 2.71449 15.4369C4.35976 15.4829 17.6028 15.4573 17.7362 15.4573C18.1177 15.442 18.3157 15.1662 18.3157 14.6298L18.3152 5.12861C18.3157 5.10817 18.3147 4.82212 18.1483 4.64333C18.0216 4.51052 17.8026 4.439 17.4985 4.439C15.9044 4.439 9.22769 4.41346 9.22769 4.41346C9.0436 4.41346 8.86669 4.33684 8.73377 4.19892L6.1327 1.53245H1.89878ZM10.2911 17C6.90872 17 3.48286 16.9898 2.67672 16.9694C1.04913 16.9234 0.46198 15.5646 0.46437 14.6605V0.766226C0.46437 0.347356 0.785201 0 1.18158 0H6.42149C6.60653 0 6.7844 0.0766226 6.9178 0.214543L9.51983 2.88101C10.8141 2.88612 16.1033 2.90655 17.4985 2.90655C18.3902 2.90655 18.9109 3.27945 19.1907 3.59105C19.7692 4.23978 19.7525 5.07242 19.7491 5.16436L19.7501 14.6298C19.7501 15.534 19.4202 16.0703 19.1438 16.3666C18.5748 16.9694 17.8366 16.9898 17.7376 16.9898C17.7362 16.9898 17.7352 16.9898 17.7338 16.9898C17.4545 16.9898 13.8972 17 10.2911 17Z" fill="#1A1919"/>
</svg>
