<svg width="40" height="40" viewBox="0 0 40 40" fill="none" xmlns="http://www.w3.org/2000/svg">
<path fill-rule="evenodd" clip-rule="evenodd" d="M27.8906 8.65753C29.1421 9.54127 29.8255 11.1111 29.6595 12.6288H29.6608C29.4934 14.1534 28.585 15.4694 27.3554 16.3449C27.3568 18.7989 27.3596 21.2515 27.3623 23.7041L27.3623 23.7153C27.3625 23.8527 27.3645 23.9925 27.3665 24.1338C27.3793 25.0304 27.393 25.9891 26.952 26.7809C26.5829 27.4451 25.8405 27.9515 25.061 27.8829C23.3216 27.7303 23.3845 25.4702 23.4245 24.0342C23.4298 23.8422 23.4347 23.665 23.4349 23.5095C23.4377 20.9955 23.4829 18.4815 23.5639 15.9689C23.5639 15.947 23.5666 15.925 23.5708 15.9044C22.3055 14.9603 21.4973 13.492 21.6235 11.881C21.85 8.97727 25.3616 6.8736 27.8906 8.65753ZM26.8208 15.7093C26.8388 15.6964 26.8578 15.6829 26.8779 15.6684H26.8765C27.9716 14.8807 28.8142 13.6567 28.8512 12.2707C28.8828 11.0549 28.257 9.8116 27.1894 9.19957C26.1314 8.59441 24.8277 8.80711 23.8576 9.48363C21.7868 10.9286 22.1601 13.8886 24.0908 15.2595C24.2391 15.3651 24.2885 15.5188 24.2706 15.6643C24.3488 15.7315 24.3996 15.8331 24.3955 15.9689C24.3337 17.853 24.2939 19.7385 24.2761 21.624C24.2679 22.4871 24.2651 23.3517 24.2665 24.2162C24.2668 24.3569 24.2635 24.5024 24.2602 24.6504C24.2468 25.2456 24.2325 25.8824 24.4435 26.4241C24.7303 27.1597 25.4919 27.2132 26.0148 26.6588C26.5115 26.1306 26.5197 25.3131 26.5265 24.6323L26.5266 24.6265C26.5367 23.5817 26.5321 22.5357 26.5275 21.4897C26.5252 20.9667 26.5229 20.4438 26.5225 19.921L26.5225 19.913C26.5211 19.0456 26.5197 18.1797 26.5197 17.3124C26.5197 17.1933 26.5123 17.0646 26.5048 16.9328C26.489 16.6589 26.4725 16.3713 26.5197 16.1267C26.5657 15.8906 26.6477 15.8323 26.8208 15.7093Z" fill="#365888"/>
<path fill-rule="evenodd" clip-rule="evenodd" d="M9.84634 11.7808C9.94429 11.6902 10.0546 11.6215 10.1748 11.564C10.2338 11.5352 10.2928 11.5105 10.3546 11.4871C10.3716 11.4803 10.39 11.4744 10.4088 11.4685C10.4506 11.4552 10.4939 11.4413 10.5261 11.4158C10.5865 11.3677 10.6057 11.2813 10.5769 11.2113C10.5433 11.1285 10.4473 11.0977 10.361 11.0701C10.3344 11.0615 10.3086 11.0533 10.286 11.0439C10.0225 10.9341 9.80292 10.7818 9.65883 10.5293C9.59159 10.4113 9.54219 10.2864 9.49416 10.1602C9.45711 10.0655 9.39261 9.98039 9.27735 10.0065C9.18183 10.0281 9.15133 10.1156 9.1226 10.1981C9.11666 10.2151 9.11079 10.232 9.10444 10.248C9.05092 10.3852 8.9878 10.5197 8.90272 10.6404C8.73668 10.8737 8.47595 10.9972 8.21522 11.0947C8.12465 11.129 8.03134 11.177 8.03957 11.2909C8.04817 11.4027 8.14471 11.4386 8.23573 11.4724C8.2464 11.4764 8.257 11.4803 8.26736 11.4844C8.5377 11.5887 8.78745 11.7286 8.94389 11.9811C9.02622 12.1115 9.08248 12.2542 9.13738 12.3983C9.17717 12.4999 9.25539 12.5918 9.37615 12.5451C9.46693 12.5101 9.50265 12.4013 9.53461 12.304C9.54516 12.2719 9.55531 12.241 9.56689 12.2144C9.63413 12.0607 9.71647 11.918 9.83311 11.7973C9.83824 11.7919 9.84263 11.7864 9.84634 11.7808ZM9.3158 11.9488C9.38933 11.8037 9.47734 11.6672 9.59296 11.5516C9.70814 11.4364 9.84281 11.3493 9.98601 11.2771C9.84096 11.2036 9.70447 11.1156 9.58885 11C9.47367 10.8848 9.3865 10.7501 9.31436 10.6069C9.24084 10.752 9.15283 10.8885 9.0372 11.0041C8.92202 11.1193 8.78736 11.2064 8.64416 11.2786C8.7892 11.3521 8.92569 11.4401 9.04132 11.5557C9.1565 11.6709 9.24366 11.8056 9.3158 11.9488Z" fill="#365888"/>
<path fill-rule="evenodd" clip-rule="evenodd" d="M30.8419 18.5048C30.9398 18.4142 31.0501 18.3455 31.1703 18.288C31.2293 18.2592 31.2883 18.2345 31.3501 18.2112C31.3671 18.2044 31.3855 18.1985 31.4043 18.1925C31.4461 18.1792 31.4894 18.1654 31.5216 18.1398C31.582 18.0918 31.6012 18.0053 31.5724 17.9354C31.5388 17.8526 31.4428 17.8218 31.3566 17.7941C31.3299 17.7856 31.3042 17.7773 31.2815 17.7679C31.018 17.6582 30.7984 17.5058 30.6543 17.2534C30.5871 17.1353 30.5377 17.0105 30.4897 16.8842C30.4526 16.7895 30.3881 16.7044 30.2729 16.7305C30.1773 16.7521 30.1468 16.8397 30.1181 16.9222C30.1122 16.9392 30.1063 16.956 30.1 16.972C30.0464 17.1093 29.9833 17.2437 29.8982 17.3645C29.7322 17.5978 29.4715 17.7213 29.2107 17.8187C29.1202 17.853 29.0268 17.9011 29.0351 18.015C29.0437 18.1267 29.1402 18.1626 29.2312 18.1965C29.2419 18.2005 29.2525 18.2044 29.2629 18.2084C29.5332 18.3127 29.783 18.4527 29.9394 18.7052C30.0217 18.8356 30.078 18.9783 30.1329 19.1224C30.1727 19.2239 30.2509 19.3159 30.3717 19.2692C30.4624 19.2341 30.4982 19.1254 30.5301 19.0281C30.5407 18.996 30.5508 18.965 30.5624 18.9385C30.6296 18.7848 30.712 18.6421 30.8286 18.5213C30.8338 18.516 30.8381 18.5104 30.8419 18.5048ZM30.3113 18.6728C30.3848 18.5278 30.4729 18.3913 30.5885 18.2757C30.7037 18.1605 30.8383 18.0733 30.9815 18.0012C30.8365 17.9277 30.7 17.8397 30.5844 17.724C30.4692 17.6089 30.382 17.4742 30.3099 17.331C30.2364 17.476 30.1483 17.6125 30.0327 17.7282C29.9175 17.8433 29.7829 17.9305 29.6397 18.0026C29.7847 18.0762 29.9212 18.1642 30.0368 18.2798C30.152 18.395 30.2392 18.5296 30.3113 18.6728Z" fill="#365888"/>
<path fill-rule="evenodd" clip-rule="evenodd" d="M19.5404 11.6875C19.1576 11.3883 18.5469 11.3444 18.1956 11.7218C17.9501 11.985 17.898 12.3828 17.8504 12.7464C17.8389 12.834 17.8277 12.9195 17.8141 13.0007C17.8032 13.0652 17.7925 13.1297 17.7819 13.1941C17.7713 13.2587 17.7606 13.3232 17.7497 13.3877C17.5081 12.906 17.2145 12.4614 16.7397 12.2213C16.1798 11.9372 15.576 12.0429 15.2233 12.5836C14.9667 12.976 14.8638 13.47 14.8171 13.9503C14.6635 13.6841 14.4823 13.4193 14.2998 13.1928C13.9979 12.8168 13.4957 12.4011 12.9838 12.4161C11.9779 12.4463 11.9299 13.8282 11.9505 14.5527C11.9779 15.5531 12.1371 16.4739 12.5996 17.3659C13.132 18.3923 14.0295 19.4764 15.2384 19.4407C15.3014 20.1544 15.3644 20.8677 15.4275 21.5811C15.4907 22.2969 15.5539 23.0128 15.6172 23.729C15.7448 25.1795 16.0769 28.3055 16.339 29.7381C16.5311 30.7893 17.1802 31.9242 18.3699 31.9969C19.4087 32.0614 20.1058 31.1145 20.2526 30.1814C20.3288 29.6972 20.1027 28.2624 19.9549 27.3251C19.9084 27.0298 19.8696 26.784 19.8506 26.6327C19.8027 26.2505 19.7552 25.8686 19.7077 25.4868L19.7072 25.4828L19.7071 25.4823C19.6594 25.0992 19.6118 24.7162 19.5638 24.3328C19.4705 23.5856 19.3775 22.838 19.2845 22.0905C19.1915 21.343 19.0986 20.5955 19.0053 19.8483C18.9969 19.7816 18.9802 19.6987 18.9619 19.6076C18.8994 19.2974 18.818 18.8924 18.9792 18.7121C19.0409 18.6432 19.1464 18.5967 19.2507 18.5508C19.3274 18.517 19.4033 18.4836 19.4609 18.4417C19.8876 18.1302 20.158 17.6513 20.2979 17.1491C20.6286 15.9717 20.4969 14.6145 20.2691 13.4302C20.2613 13.39 20.2536 13.349 20.2457 13.3073C20.138 12.7393 20.0082 12.0544 19.5377 11.6875H19.5404ZM19.6461 15.4584C19.6571 16.3669 19.6091 17.4016 18.7418 17.9011C18.7229 17.912 18.704 17.9227 18.6853 17.9335C18.4464 18.0699 18.2213 18.1985 18.1119 18.4733C17.9921 18.7734 18.0575 19.1538 18.1155 19.4917C18.1326 19.591 18.149 19.6867 18.16 19.7756C18.3034 20.9259 18.4465 22.0762 18.5896 23.2266C18.7326 24.3761 18.8756 25.5257 19.019 26.6753C19.0283 26.7507 19.043 26.8531 19.0607 26.9767C19.2275 28.1413 19.6632 31.1828 18.4399 31.1667C17.1939 31.1516 16.8055 27.7223 16.7273 26.8523C16.57 25.0828 16.4138 23.3134 16.2577 21.5439C16.1796 20.6594 16.1016 19.7749 16.0234 18.8905C16.0096 18.7299 15.9246 18.6325 15.8148 18.5886C15.7407 18.546 15.646 18.5309 15.5348 18.5597C14.3519 18.8589 13.5862 17.558 13.1759 16.6441C12.8987 16.0252 12.7958 15.2965 12.7793 14.5692C12.7791 14.5576 12.7788 14.546 12.7785 14.5342C12.7782 14.5237 12.778 14.513 12.7777 14.5024C12.7691 14.1641 12.759 13.7635 12.8864 13.4522C12.9975 13.1832 13.0236 13.197 13.3173 13.4042C13.7962 13.7417 14.1722 14.4169 14.3547 14.9672L14.3618 14.9888C14.5165 15.4587 14.6511 15.8675 15.1918 15.9675C15.5266 16.0293 15.7119 15.6313 15.5993 15.3679C15.6477 15.4811 15.6406 15.4413 15.629 15.3768C15.6222 15.339 15.6139 15.2925 15.6144 15.2636C15.6157 15.1724 15.6136 15.0813 15.6115 14.99C15.6091 14.8903 15.6068 14.7903 15.6089 14.69C15.6185 14.2481 15.6432 13.7815 15.7832 13.3589C16.201 12.0951 17.0486 13.8747 17.4227 14.6601C17.4848 14.7906 17.5339 14.8936 17.5658 14.9507C17.773 15.3253 18.2862 15.2046 18.3562 14.7998C18.4125 14.4677 18.4687 14.1342 18.5236 13.8021C18.5417 13.6921 18.5527 13.562 18.5641 13.4256C18.5891 13.1282 18.6166 12.8008 18.7267 12.5863C18.9174 12.2144 19.1878 12.5589 19.2701 12.8114C19.3524 13.0625 19.4032 13.3287 19.4526 13.5894C19.5706 14.2069 19.6379 14.8341 19.6461 15.4612V15.4584Z" fill="#365888"/>
<path fill-rule="evenodd" clip-rule="evenodd" d="M27.8906 8.65753C29.1421 9.54127 29.8255 11.1111 29.6595 12.6288H29.6608C29.4934 14.1534 28.585 15.4694 27.3554 16.3449C27.3568 18.7989 27.3596 21.2515 27.3623 23.7041L27.3623 23.7153C27.3625 23.8527 27.3645 23.9925 27.3665 24.1338C27.3793 25.0304 27.393 25.9891 26.952 26.7809C26.5829 27.4451 25.8405 27.9515 25.061 27.8829C23.3216 27.7303 23.3845 25.4702 23.4245 24.0342C23.4298 23.8422 23.4347 23.665 23.4349 23.5095C23.4377 20.9955 23.4829 18.4815 23.5639 15.9689C23.5639 15.947 23.5666 15.925 23.5708 15.9044C22.3055 14.9603 21.4973 13.492 21.6235 11.881C21.85 8.97727 25.3616 6.8736 27.8906 8.65753ZM26.8208 15.7093C26.8388 15.6964 26.8578 15.6829 26.8779 15.6684H26.8765C27.9716 14.8807 28.8142 13.6567 28.8512 12.2707C28.8828 11.0549 28.257 9.8116 27.1894 9.19957C26.1314 8.59441 24.8277 8.80711 23.8576 9.48363C21.7868 10.9286 22.1601 13.8886 24.0908 15.2595C24.2391 15.3651 24.2885 15.5188 24.2706 15.6643C24.3488 15.7315 24.3996 15.8331 24.3955 15.9689C24.3337 17.853 24.2939 19.7385 24.2761 21.624C24.2679 22.4871 24.2651 23.3517 24.2665 24.2162C24.2668 24.3569 24.2635 24.5024 24.2602 24.6504C24.2468 25.2456 24.2325 25.8824 24.4435 26.4241C24.7303 27.1597 25.4919 27.2132 26.0148 26.6588C26.5115 26.1306 26.5197 25.3131 26.5265 24.6323L26.5266 24.6265C26.5367 23.5817 26.5321 22.5357 26.5275 21.4897C26.5252 20.9667 26.5229 20.4438 26.5225 19.921L26.5225 19.913C26.5211 19.0456 26.5197 18.1797 26.5197 17.3124C26.5197 17.1933 26.5123 17.0646 26.5048 16.9328C26.489 16.6589 26.4725 16.3713 26.5197 16.1267C26.5657 15.8906 26.6477 15.8323 26.8208 15.7093Z" stroke="#365888" stroke-width="0.24" stroke-miterlimit="10"/>
<path fill-rule="evenodd" clip-rule="evenodd" d="M9.84634 11.7808C9.94429 11.6902 10.0546 11.6215 10.1748 11.564C10.2338 11.5352 10.2928 11.5105 10.3546 11.4871C10.3716 11.4803 10.39 11.4744 10.4088 11.4685C10.4506 11.4552 10.4939 11.4413 10.5261 11.4158C10.5865 11.3677 10.6057 11.2813 10.5769 11.2113C10.5433 11.1285 10.4473 11.0977 10.361 11.0701C10.3344 11.0615 10.3086 11.0533 10.286 11.0439C10.0225 10.9341 9.80292 10.7818 9.65883 10.5293C9.59159 10.4113 9.54219 10.2864 9.49416 10.1602C9.45711 10.0655 9.39261 9.98039 9.27735 10.0065C9.18183 10.0281 9.15133 10.1156 9.1226 10.1981C9.11666 10.2151 9.11079 10.232 9.10444 10.248C9.05092 10.3852 8.9878 10.5197 8.90272 10.6404C8.73668 10.8737 8.47595 10.9972 8.21522 11.0947C8.12465 11.129 8.03134 11.177 8.03957 11.2909C8.04817 11.4027 8.14471 11.4386 8.23573 11.4724C8.2464 11.4764 8.257 11.4803 8.26736 11.4844C8.5377 11.5887 8.78745 11.7286 8.94389 11.9811C9.02622 12.1115 9.08248 12.2542 9.13738 12.3983C9.17717 12.4999 9.25539 12.5918 9.37615 12.5451C9.46693 12.5101 9.50265 12.4013 9.53461 12.304C9.54516 12.2719 9.55531 12.241 9.56689 12.2144C9.63413 12.0607 9.71647 11.918 9.83311 11.7973C9.83824 11.7919 9.84263 11.7864 9.84634 11.7808ZM9.3158 11.9488C9.38933 11.8037 9.47734 11.6672 9.59296 11.5516C9.70814 11.4364 9.84281 11.3493 9.98601 11.2771C9.84096 11.2036 9.70447 11.1156 9.58885 11C9.47367 10.8848 9.3865 10.7501 9.31436 10.6069C9.24084 10.752 9.15283 10.8885 9.0372 11.0041C8.92202 11.1193 8.78736 11.2064 8.64416 11.2786C8.7892 11.3521 8.92569 11.4401 9.04132 11.5557C9.1565 11.6709 9.24366 11.8056 9.3158 11.9488Z" stroke="#365888" stroke-width="0.24" stroke-miterlimit="10"/>
<path fill-rule="evenodd" clip-rule="evenodd" d="M30.8419 18.5048C30.9398 18.4142 31.0501 18.3455 31.1703 18.288C31.2293 18.2592 31.2883 18.2345 31.3501 18.2112C31.3671 18.2044 31.3855 18.1985 31.4043 18.1925C31.4461 18.1792 31.4894 18.1654 31.5216 18.1398C31.582 18.0918 31.6012 18.0053 31.5724 17.9354C31.5388 17.8526 31.4428 17.8218 31.3566 17.7941C31.3299 17.7856 31.3042 17.7773 31.2815 17.7679C31.018 17.6582 30.7984 17.5058 30.6543 17.2534C30.5871 17.1353 30.5377 17.0105 30.4897 16.8842C30.4526 16.7895 30.3881 16.7044 30.2729 16.7305C30.1773 16.7521 30.1468 16.8397 30.1181 16.9222C30.1122 16.9392 30.1063 16.956 30.1 16.972C30.0464 17.1093 29.9833 17.2437 29.8982 17.3645C29.7322 17.5978 29.4715 17.7213 29.2107 17.8187C29.1202 17.853 29.0268 17.9011 29.0351 18.015C29.0437 18.1267 29.1402 18.1626 29.2312 18.1965C29.2419 18.2005 29.2525 18.2044 29.2629 18.2084C29.5332 18.3127 29.783 18.4527 29.9394 18.7052C30.0217 18.8356 30.078 18.9783 30.1329 19.1224C30.1727 19.2239 30.2509 19.3159 30.3717 19.2692C30.4624 19.2341 30.4982 19.1254 30.5301 19.0281C30.5407 18.996 30.5508 18.965 30.5624 18.9385C30.6296 18.7848 30.712 18.6421 30.8286 18.5213C30.8338 18.516 30.8381 18.5104 30.8419 18.5048ZM30.3113 18.6728C30.3848 18.5278 30.4729 18.3913 30.5885 18.2757C30.7037 18.1605 30.8383 18.0733 30.9815 18.0012C30.8365 17.9277 30.7 17.8397 30.5844 17.724C30.4692 17.6089 30.382 17.4742 30.3099 17.331C30.2364 17.476 30.1483 17.6125 30.0327 17.7282C29.9175 17.8433 29.7829 17.9305 29.6397 18.0026C29.7847 18.0762 29.9212 18.1642 30.0368 18.2798C30.152 18.395 30.2392 18.5296 30.3113 18.6728Z" stroke="#365888" stroke-width="0.24" stroke-miterlimit="10"/>
<path fill-rule="evenodd" clip-rule="evenodd" d="M19.5404 11.6875C19.1576 11.3883 18.5469 11.3444 18.1956 11.7218C17.9501 11.985 17.898 12.3828 17.8504 12.7464C17.8389 12.834 17.8277 12.9195 17.8141 13.0007C17.8032 13.0652 17.7925 13.1297 17.7819 13.1941C17.7713 13.2587 17.7606 13.3232 17.7497 13.3877C17.5081 12.906 17.2145 12.4614 16.7397 12.2213C16.1798 11.9372 15.576 12.0429 15.2233 12.5836C14.9667 12.976 14.8638 13.47 14.8171 13.9503C14.6635 13.6841 14.4823 13.4193 14.2998 13.1928C13.9979 12.8168 13.4957 12.4011 12.9838 12.4161C11.9779 12.4463 11.9299 13.8282 11.9505 14.5527C11.9779 15.5531 12.1371 16.4739 12.5996 17.3659C13.132 18.3923 14.0295 19.4764 15.2384 19.4407C15.3014 20.1544 15.3644 20.8677 15.4275 21.5811C15.4907 22.2969 15.5539 23.0128 15.6172 23.729C15.7448 25.1795 16.0769 28.3055 16.339 29.7381C16.5311 30.7893 17.1802 31.9242 18.3699 31.9969C19.4087 32.0614 20.1058 31.1145 20.2526 30.1814C20.3288 29.6972 20.1027 28.2624 19.9549 27.3251C19.9084 27.0298 19.8696 26.784 19.8506 26.6327C19.8027 26.2505 19.7552 25.8686 19.7077 25.4868L19.7072 25.4828L19.7071 25.4823C19.6594 25.0992 19.6118 24.7162 19.5638 24.3328C19.4705 23.5856 19.3775 22.838 19.2845 22.0905C19.1915 21.343 19.0986 20.5955 19.0053 19.8483C18.9969 19.7816 18.9802 19.6987 18.9619 19.6076C18.8994 19.2974 18.818 18.8924 18.9792 18.7121C19.0409 18.6432 19.1464 18.5967 19.2507 18.5508C19.3274 18.517 19.4033 18.4836 19.4609 18.4417C19.8876 18.1302 20.158 17.6513 20.2979 17.1491C20.6286 15.9717 20.4969 14.6145 20.2691 13.4302C20.2613 13.39 20.2536 13.349 20.2457 13.3073C20.138 12.7393 20.0082 12.0544 19.5377 11.6875H19.5404ZM19.6461 15.4584C19.6571 16.3669 19.6091 17.4016 18.7418 17.9011C18.7229 17.912 18.704 17.9227 18.6853 17.9335C18.4464 18.0699 18.2213 18.1985 18.1119 18.4733C17.9921 18.7734 18.0575 19.1538 18.1155 19.4917C18.1326 19.591 18.149 19.6867 18.16 19.7756C18.3034 20.9259 18.4465 22.0762 18.5896 23.2266C18.7326 24.3761 18.8756 25.5257 19.019 26.6753C19.0283 26.7507 19.043 26.8531 19.0607 26.9767C19.2275 28.1413 19.6632 31.1828 18.4399 31.1667C17.1939 31.1516 16.8055 27.7223 16.7273 26.8523C16.57 25.0828 16.4138 23.3134 16.2577 21.5439C16.1796 20.6594 16.1016 19.7749 16.0234 18.8905C16.0096 18.7299 15.9246 18.6325 15.8148 18.5886C15.7407 18.546 15.646 18.5309 15.5348 18.5597C14.3519 18.8589 13.5862 17.558 13.1759 16.6441C12.8987 16.0252 12.7958 15.2965 12.7793 14.5692C12.7791 14.5576 12.7788 14.546 12.7785 14.5342C12.7782 14.5237 12.778 14.513 12.7777 14.5024C12.7691 14.1641 12.759 13.7635 12.8864 13.4522C12.9975 13.1832 13.0236 13.197 13.3173 13.4042C13.7962 13.7417 14.1722 14.4169 14.3547 14.9672L14.3618 14.9888C14.5165 15.4587 14.6511 15.8675 15.1918 15.9675C15.5266 16.0293 15.7119 15.6313 15.5993 15.3679C15.6477 15.4811 15.6406 15.4413 15.629 15.3768C15.6222 15.339 15.6139 15.2925 15.6144 15.2636C15.6157 15.1724 15.6136 15.0813 15.6115 14.99C15.6091 14.8903 15.6068 14.7903 15.6089 14.69C15.6185 14.2481 15.6432 13.7815 15.7832 13.3589C16.201 12.0951 17.0486 13.8747 17.4227 14.6601C17.4848 14.7906 17.5339 14.8936 17.5658 14.9507C17.773 15.3253 18.2862 15.2046 18.3562 14.7998C18.4125 14.4677 18.4687 14.1342 18.5236 13.8021C18.5417 13.6921 18.5527 13.562 18.5641 13.4256C18.5891 13.1282 18.6166 12.8008 18.7267 12.5863C18.9174 12.2144 19.1878 12.5589 19.2701 12.8114C19.3524 13.0625 19.4032 13.3287 19.4526 13.5894C19.5706 14.2069 19.6379 14.8341 19.6461 15.4612V15.4584Z" stroke="#365888" stroke-width="0.24" stroke-miterlimit="10"/>
</svg>
