<svg width="24" height="24" viewBox="0 0 24 24" fill="none" xmlns="http://www.w3.org/2000/svg">
<path d="M3 16C4.403 15.766 6.637 15.707 8.945 16.243M8.945 16.243C11.573 16.852 14.296 18.232 16 21M8.945 16.243C10.895 13.985 14.558 12 21 12H22M8.5 7C8 7 7 7.3 7 8.5C7 9.7 8 10 8.5 10C9 10 10 9.7 10 8.5C10 7.3 9 7 8.5 7Z" stroke="#FFFDFB" stroke-width="1.5" stroke-linecap="round" stroke-linejoin="round"/>
<path d="M12 22C17.5228 22 22 17.5228 22 12C22 6.47715 17.5228 2 12 2C6.47715 2 2 6.47715 2 12C2 17.5228 6.47715 22 12 22Z" stroke="#FFFDFB" stroke-width="1.5" stroke-linecap="round" stroke-linejoin="round"/>
</svg>
