<svg width="24" height="24" viewBox="0 0 24 24" fill="none" xmlns="http://www.w3.org/2000/svg">
<path fill-rule="evenodd" clip-rule="evenodd" d="M11.1499 12.0001C11.1499 12.4695 11.5305 12.8501 11.9999 12.8501L19.9999 12.8501C20.4693 12.8501 20.8499 12.4695 20.8499 12.0001C20.8499 11.5307 20.4693 11.1501 19.9999 11.1501L11.9999 11.1501C11.5305 11.1501 11.1499 11.5307 11.1499 12.0001Z" fill="black"/>
<path fill-rule="evenodd" clip-rule="evenodd" d="M17.4009 15.6011C17.7329 15.9331 18.271 15.9331 18.603 15.6011L20.9097 13.2944C21.6322 12.5719 21.6322 11.4006 20.9097 10.6781L18.6149 8.38326C18.2829 8.05132 17.7447 8.05132 17.4128 8.38326C17.0808 8.71521 17.0808 9.2534 17.4128 9.58534L19.7076 11.8802C19.7662 11.9388 19.7662 12.0337 19.7076 12.0923L17.4009 14.399C17.069 14.731 17.069 15.2692 17.4009 15.6011Z" fill="black"/>
<path fill-rule="evenodd" clip-rule="evenodd" d="M14.1499 15.0001C14.1499 16.7398 12.7396 18.1501 10.9999 18.1501H6.99985C5.26016 18.1501 3.84985 16.7398 3.84985 15.0001V8.5001C3.84985 6.7604 5.26016 5.3501 6.99985 5.3501H10.9999C12.7396 5.3501 14.1499 6.7604 14.1499 8.5001V9.67867C14.1499 10.1481 14.5304 10.5287 14.9999 10.5287C15.4693 10.5287 15.8499 10.1481 15.8499 9.67867V8.5001C15.8499 5.82152 13.6784 3.6501 10.9999 3.6501H6.99985C4.32127 3.6501 2.14985 5.82152 2.14985 8.5001V15.0001C2.14985 17.6787 4.32127 19.8501 6.99985 19.8501H10.9999C13.6784 19.8501 15.8499 17.6787 15.8499 15.0001V14.3394C15.8499 13.8699 15.4693 13.4894 14.9999 13.4894C14.5304 13.4894 14.1499 13.8699 14.1499 14.3394V15.0001Z" fill="black"/>
</svg>
