<svg width="25" height="25" viewBox="0 0 25 25" fill="none" xmlns="http://www.w3.org/2000/svg">
<path fill-rule="evenodd" clip-rule="evenodd" d="M12.65 7.4999C12.65 7.03046 13.0306 6.6499 13.5 6.6499H21.5C21.9695 6.6499 22.35 7.03046 22.35 7.4999C22.35 7.96934 21.9695 8.3499 21.5 8.3499H13.5C13.0306 8.3499 12.65 7.96934 12.65 7.4999Z" fill="black"/>
<path d="M9.5 7.5C9.5 9.15685 8.15685 10.5 6.5 10.5C4.84315 10.5 3.5 9.15685 3.5 7.5C3.5 5.84315 4.84315 4.5 6.5 4.5C8.15685 4.5 9.5 5.84315 9.5 7.5Z" fill="black"/>
<path fill-rule="evenodd" clip-rule="evenodd" d="M22.5001 16.4999C22.5001 16.0305 22.1196 15.6499 21.6501 15.6499H13.6501C13.1807 15.6499 12.8001 16.0305 12.8001 16.4999C12.8001 16.9693 13.1807 17.3499 13.6501 17.3499H21.6501C22.1196 17.3499 22.5001 16.9693 22.5001 16.4999Z" fill="black"/>
<path d="M3.65002 16.5C3.65002 18.1569 4.99317 19.5 6.65002 19.5C8.30688 19.5 9.65002 18.1569 9.65002 16.5C9.65002 14.8431 8.30688 13.5 6.65002 13.5C4.99317 13.5 3.65002 14.8431 3.65002 16.5Z" fill="black"/>
</svg>
