<svg width="40" height="40" viewBox="0 0 40 40" fill="none" xmlns="http://www.w3.org/2000/svg">
<path d="M31.8407 10.737C32.1206 10.457 32.4981 10.3021 32.8643 10.1671C32.9168 10.1658 32.9493 10.1171 32.9518 10.0671C32.9518 10.0646 32.9518 10.0633 32.9518 10.0608C32.9518 10.0583 32.9518 10.0558 32.9518 10.0533C32.9493 10.0021 32.9168 9.9546 32.8643 9.95335C32.4993 9.81837 32.1206 9.66339 31.8407 9.38343C31.557 9.09972 31.4007 8.71352 31.2645 8.34357C31.2283 8.24483 31.0995 8.24483 31.0633 8.34357C30.927 8.71477 30.7708 9.09972 30.4871 9.38343C30.2034 9.66714 29.8172 9.82337 29.4472 9.9596C29.3485 9.99585 29.3485 10.1246 29.4472 10.1608C29.8184 10.2971 30.2034 10.4533 30.4871 10.737C30.7708 11.0207 30.927 11.4069 31.0633 11.7769C31.0995 11.8756 31.2283 11.8756 31.2645 11.7769C31.4007 11.4057 31.557 11.0207 31.8407 10.737ZM31.1645 11.4607C31.0683 11.2219 30.957 10.9895 30.8021 10.7845C30.6171 10.5383 30.3759 10.3533 30.1022 10.2146C29.9922 10.1583 29.8784 10.1083 29.7635 10.0608C30.0022 9.9646 30.2346 9.85337 30.4396 9.69839C30.6858 9.51341 30.8696 9.27219 31.0095 8.99848C31.0658 8.8885 31.1158 8.77476 31.1633 8.65978C31.2595 8.89849 31.372 9.13096 31.5257 9.33594C31.7107 9.58215 31.9519 9.76588 32.2256 9.90586C32.3356 9.9621 32.4493 10.0121 32.5643 10.0596C32.3256 10.1558 32.0931 10.2671 31.8882 10.422C31.642 10.607 31.4582 10.8482 31.3182 11.1219C31.262 11.2319 31.212 11.3457 31.1645 11.4607Z" fill="#365888"/>
<path d="M31.9294 10.8257C32.0831 10.677 32.2606 10.5645 32.4531 10.4707C32.5356 10.4308 32.6206 10.3945 32.7068 10.3595C32.7931 10.3245 32.913 10.3045 32.9893 10.2458C33.078 10.177 33.0993 10.0521 33.053 9.95206C32.9818 9.79959 32.7106 9.76334 32.5706 9.7021C32.1731 9.52837 31.8557 9.2834 31.6432 8.90096C31.547 8.72723 31.4745 8.54225 31.4045 8.35728C31.3495 8.2148 31.2383 8.09106 31.0708 8.1648C30.9308 8.22729 30.9021 8.42477 30.8508 8.55225C30.7708 8.75098 30.6746 8.94845 30.5484 9.12093C30.2809 9.48588 29.8722 9.66335 29.4635 9.82083C29.3398 9.86833 29.231 9.94332 29.2535 10.0933C29.2785 10.2683 29.471 10.3008 29.6097 10.3545C30.0259 10.5182 30.3971 10.7382 30.6358 11.1282C30.7583 11.3281 30.8433 11.5444 30.9271 11.7618C30.982 11.9043 31.0933 12.028 31.2608 11.9543C31.4282 11.8806 31.4632 11.6031 31.5295 11.4531C31.632 11.2231 31.7569 11.0069 31.9319 10.8257C32.0444 10.7095 31.8669 10.532 31.7544 10.6482C31.5182 10.8919 31.3645 11.1894 31.2383 11.5019C31.2295 11.5244 31.1708 11.6968 31.1633 11.6956C31.1633 11.6956 31.0995 11.5169 31.0933 11.5019C31.0308 11.3469 30.962 11.1919 30.8783 11.0469C30.7171 10.7695 30.4984 10.542 30.2234 10.3745C30.0797 10.287 29.9272 10.217 29.7722 10.152C29.7085 10.1258 29.6385 10.1083 29.5785 10.0758C29.4972 10.0321 29.5272 10.0783 29.5547 10.0546C29.591 10.0221 29.6785 10.0071 29.7247 9.98831C30.0184 9.86958 30.3059 9.72709 30.5396 9.50837C30.7733 9.28965 30.9408 8.98469 31.067 8.68223C31.0958 8.61349 31.117 8.53975 31.1495 8.47351C31.1908 8.38977 31.1495 8.42352 31.1708 8.44977C31.192 8.47601 31.2045 8.53975 31.217 8.571C31.2783 8.72723 31.3445 8.88221 31.4257 9.02844C31.5807 9.30715 31.7894 9.54087 32.0569 9.71585C32.2094 9.81583 32.3756 9.89332 32.5443 9.96331C32.6293 9.99831 32.7181 10.0458 32.8068 10.0658C32.863 10.0783 32.8068 10.072 32.8306 10.0458C32.8056 10.0733 32.7206 10.087 32.6868 10.0995C32.3456 10.232 32.0169 10.3908 31.7519 10.6482C31.6357 10.7607 31.8132 10.9382 31.9294 10.8257Z" fill="#365888"/>
<path d="M31.2845 11.4281C31.147 11.0918 30.9845 10.7656 30.7246 10.5069C30.4646 10.2482 30.1359 10.0795 29.7959 9.9395V10.182C30.1321 10.0445 30.4583 9.88201 30.7171 9.62205C30.9758 9.36208 31.1445 9.03337 31.2845 8.69342H31.042C31.1795 9.02962 31.342 9.35583 31.6019 9.61455C31.8619 9.87326 32.1906 10.042 32.5306 10.182V9.9395C32.1944 10.077 31.8682 10.2395 31.6094 10.4994C31.3507 10.7594 31.182 11.0881 31.042 11.4281C30.9808 11.5768 31.2232 11.6418 31.2845 11.4943C31.407 11.1956 31.557 10.9069 31.7869 10.6769C32.0169 10.4469 32.3019 10.302 32.5968 10.1807C32.7155 10.132 32.7155 9.987 32.5968 9.93825C32.2981 9.81577 32.0094 9.66579 31.7794 9.43582C31.5495 9.20585 31.4045 8.92089 31.2832 8.62593C31.2345 8.50719 31.0895 8.50719 31.0408 8.62593C30.9183 8.92464 30.7683 9.21335 30.5383 9.44332C30.3084 9.67329 30.0234 9.81827 29.7284 9.9395C29.6097 9.98825 29.6097 10.1332 29.7284 10.182C30.0272 10.3045 30.3159 10.4544 30.5458 10.6844C30.7758 10.9144 30.9208 11.1993 31.042 11.4943C31.102 11.6418 31.3457 11.5768 31.2845 11.4281Z" fill="#365888"/>
<path d="M25.3773 18.3235C25.4961 18.2047 25.6561 18.1397 25.811 18.0822C25.8335 18.0822 25.8473 18.061 25.8485 18.0397V18.0335C25.8485 18.0122 25.8335 17.9923 25.811 17.991C25.6561 17.9335 25.4961 17.8685 25.3773 17.7498C25.2574 17.6298 25.1911 17.4661 25.1336 17.3098C25.1186 17.2686 25.0636 17.2686 25.0486 17.3098C24.9911 17.4673 24.9249 17.6298 24.8049 17.7498C24.6849 17.8698 24.5212 17.936 24.365 17.9935C24.3237 18.0085 24.3237 18.0635 24.365 18.0785C24.5225 18.136 24.6849 18.2022 24.8049 18.3222C24.9249 18.4422 24.9911 18.6059 25.0486 18.7621C25.0636 18.8034 25.1186 18.8034 25.1336 18.7621C25.1911 18.6047 25.2574 18.4422 25.3773 18.3222V18.3235ZM25.0911 18.6297C25.0499 18.5284 25.0036 18.4297 24.9374 18.3435C24.8587 18.2397 24.7574 18.161 24.6412 18.1022C24.5949 18.0785 24.5462 18.0572 24.4975 18.0372C24.5987 17.996 24.6974 17.9498 24.7837 17.8835C24.8874 17.8048 24.9661 17.7035 25.0249 17.5873C25.0486 17.5411 25.0699 17.4923 25.0899 17.4436C25.1311 17.5448 25.1786 17.6435 25.2436 17.7298C25.3224 17.8335 25.4236 17.9123 25.5398 17.971C25.5861 17.9948 25.6348 18.016 25.6836 18.036C25.5823 18.0772 25.4836 18.1247 25.3973 18.1897C25.2936 18.2685 25.2149 18.371 25.1561 18.4859C25.1324 18.5322 25.1111 18.5809 25.0911 18.6297Z" fill="#365888"/>
<path d="M25.4223 18.3672C25.4873 18.3047 25.5636 18.2572 25.6448 18.2172C25.6836 18.1985 25.7223 18.1822 25.761 18.1672C25.796 18.1535 25.841 18.146 25.8698 18.1222C25.9073 18.0922 25.9198 18.0385 25.9023 17.9935C25.8748 17.9248 25.7773 17.9123 25.7173 17.8873C25.5461 17.816 25.4036 17.7173 25.3099 17.5536C25.2661 17.4773 25.2349 17.3961 25.2024 17.3148C25.1799 17.2561 25.1386 17.2011 25.0661 17.2174C24.9937 17.2336 24.9799 17.3123 24.9574 17.3711C24.9224 17.4598 24.8824 17.5473 24.8262 17.6248C24.7187 17.7773 24.5487 17.856 24.38 17.9198C24.3225 17.941 24.2637 17.971 24.27 18.0435C24.2762 18.1222 24.3525 18.141 24.415 18.1647C24.5912 18.2322 24.7524 18.3235 24.8537 18.4872C24.9062 18.5722 24.9437 18.6647 24.9787 18.7571C25.0036 18.8209 25.0524 18.8796 25.1286 18.8496C25.2049 18.8196 25.2199 18.7059 25.2499 18.6384C25.2936 18.5397 25.3461 18.4459 25.4223 18.3684C25.4786 18.3097 25.3898 18.221 25.3336 18.2797C25.2349 18.3822 25.1699 18.5047 25.1161 18.6359C25.1049 18.6647 25.0886 18.6959 25.0811 18.7259H25.1011C25.0974 18.7147 25.0924 18.7034 25.0886 18.6922C25.0824 18.6772 25.0774 18.6622 25.0711 18.6472C25.0436 18.5784 25.0136 18.5109 24.9762 18.4459C24.9062 18.3272 24.8112 18.231 24.6937 18.1597C24.6374 18.126 24.5775 18.0972 24.5162 18.0722C24.4925 18.0622 24.4375 18.0285 24.415 18.0322C24.3975 18.0347 24.3975 18.041 24.415 18.0435C24.4312 18.046 24.4662 18.0235 24.4825 18.0172C24.6087 17.966 24.7312 17.906 24.8324 17.8123C24.9337 17.7185 25.0036 17.5911 25.0574 17.4623C25.0674 17.4373 25.0924 17.3998 25.0936 17.3723L25.1024 17.3498C25.0824 17.3436 25.0774 17.3473 25.0874 17.3611C25.0849 17.3736 25.0999 17.3936 25.1049 17.4061C25.1324 17.4748 25.1611 17.5436 25.1974 17.6086C25.2636 17.7285 25.3536 17.8273 25.4686 17.9023C25.5336 17.9448 25.6036 17.9773 25.6748 18.006C25.7011 18.0172 25.7573 18.051 25.786 18.0497L25.7973 18.0535C25.7848 18.0435 25.7848 18.0335 25.7973 18.0222C25.791 18.0185 25.7486 18.041 25.7423 18.0435C25.5948 18.101 25.4523 18.1685 25.3361 18.2797C25.2774 18.336 25.3674 18.4247 25.4248 18.3684L25.4223 18.3672Z" fill="#365888"/>
<path d="M25.1524 18.6134C25.0936 18.4697 25.0236 18.3297 24.9124 18.2197C24.8012 18.1097 24.6599 18.0372 24.515 17.9772V18.0985C24.6587 18.0397 24.7987 17.9697 24.9087 17.8585C25.0186 17.7473 25.0911 17.606 25.1511 17.4611H25.0299C25.0886 17.6048 25.1586 17.7448 25.2699 17.8548C25.3811 17.9647 25.5223 18.0372 25.6673 18.0972V17.976C25.5236 18.0347 25.3836 18.1047 25.2736 18.216C25.1636 18.3272 25.0911 18.4684 25.0311 18.6134C24.9999 18.6884 25.1224 18.7209 25.1524 18.6472C25.2036 18.5222 25.2661 18.4022 25.3624 18.3047C25.4586 18.2072 25.5773 18.1472 25.7011 18.0972C25.761 18.0735 25.7598 17.9997 25.7011 17.976C25.5761 17.9248 25.4561 17.8623 25.3586 17.766C25.2611 17.6698 25.2011 17.5511 25.1511 17.4273C25.1274 17.3673 25.0536 17.3686 25.0299 17.4273C24.9787 17.5523 24.9162 17.6723 24.8199 17.7698C24.7237 17.8673 24.605 17.9273 24.4812 17.9772C24.4212 18.001 24.4225 18.0747 24.4812 18.0985C24.6062 18.1497 24.7262 18.2122 24.8237 18.3085C24.9212 18.4047 24.9812 18.5234 25.0311 18.6472C25.0611 18.7209 25.1836 18.6884 25.1524 18.6134Z" fill="#365888"/>
<path d="M15.5196 31.7864L15.6676 31.9344C15.6531 30.1666 15.3716 28.2429 13.7518 27.2295C12.5561 26.4817 11.038 26.6429 9.85286 25.8964C8.86194 25.2728 8.86194 24.3466 9.25566 23.3411C9.35211 23.0928 9.47367 22.8496 9.401 22.5788C9.27416 22.1045 8.66508 21.8482 9.28077 21.321C9.34022 21.2695 9.33494 21.1638 9.28077 21.1122C8.64658 20.5058 9.97441 20.1292 9.74716 19.4805C9.67317 19.2704 9.41289 19.1872 9.2517 19.0406C8.61091 18.4579 8.72849 17.7682 9.38118 17.3031C9.99159 16.8685 10.6879 16.5329 11.2018 15.9753C11.6973 15.4362 11.8809 14.7505 12.1439 14.0873C13.3607 11.0088 16.5792 8.57512 19.8955 8.40469C23.4945 8.21839 27.0989 9.5013 29.0318 12.6973C31.0586 16.0493 30.5459 20.4384 27.7951 23.2341C26.6021 24.447 25.0945 25.467 24.4141 27.0881C23.8315 28.4741 23.8803 30.0318 24.5185 31.3874L24.5713 31.1853L24.3348 31.3029L24.537 31.3557C23.9847 30.1838 23.883 28.8493 24.2595 27.6074C24.6361 26.3654 25.5041 25.434 26.4131 24.5501C27.2402 23.7454 28.1202 23.0465 28.7795 22.0847C29.4718 21.0739 29.9553 19.9139 30.1786 18.7102C30.6305 16.2792 29.9725 13.749 28.4518 11.8055C27.0526 10.0179 24.9928 8.90543 22.7692 8.52492C20.6869 8.16819 18.4461 8.27917 16.5634 9.29783C14.6806 10.3165 13.1744 11.7976 12.2866 13.679C12.0461 14.1877 11.91 14.74 11.6603 15.2434C11.334 15.9026 10.7962 16.3426 10.1924 16.7377C9.55691 17.1538 8.40612 17.6493 8.85533 18.5979C9.12486 19.1674 10.0524 19.3101 9.48424 20.1649C9.30719 20.4318 8.97689 20.4847 9.06937 20.852C9.10637 20.996 9.21735 21.0039 9.26888 21.14C9.3574 21.3765 9.33758 21.1228 9.183 21.3606C9.02841 21.5984 8.90554 21.7504 9.03766 22.0556C9.07994 22.152 9.16714 22.2155 9.21867 22.304C9.41421 22.6409 9.3574 22.9382 9.25434 23.2645C9.14072 23.6226 8.96896 23.9516 8.93593 24.3347C8.90158 24.7535 9.02709 25.1341 9.29398 25.4591C10.0193 26.3417 11.3577 26.4672 12.4015 26.7037C14.9317 27.2758 15.6319 29.6183 15.6319 31.9357C15.6319 32.126 15.9265 32.126 15.9265 31.9357C15.9265 30.382 15.7403 28.6789 14.5723 27.5294C14.0227 26.9877 13.3039 26.6085 12.5548 26.4368C11.5163 26.1976 9.89118 26.0893 9.34947 25.0165C8.96632 24.2568 9.57408 23.6424 9.67714 22.925C9.69563 22.7968 9.68639 22.6713 9.65732 22.5458C9.63486 22.448 9.62032 22.411 9.5754 22.3212C9.43271 22.0345 9.39175 21.8191 9.57012 21.4914C9.64146 21.3606 9.82247 21.4108 9.7868 21.177C9.73923 20.8599 9.29398 20.9246 9.57012 20.5005C9.77359 20.1874 10.0312 20.0011 10.0233 19.5836C10.0154 19.1661 9.72074 19.1357 9.44328 18.8622C8.47878 17.9096 9.80794 17.3481 10.425 16.9372C10.8359 16.6637 11.2415 16.3651 11.5493 15.9753C12.2271 15.1178 12.3949 13.9565 12.9842 13.0369C13.6474 12.0011 14.4322 11.0855 15.4324 10.3654C16.204 9.80915 17.039 9.30973 17.948 9.01377C18.9918 8.67422 20.0897 8.63326 21.1784 8.66761C23.661 8.74688 26.1053 9.64003 27.8084 11.4977C29.6726 13.531 30.4455 16.4153 29.7942 19.1C29.452 20.5111 28.7451 21.8336 27.7542 22.8959C26.8888 23.8247 25.882 24.5923 25.0549 25.5661C23.6518 27.2176 23.3611 29.5483 24.2833 31.5037C24.319 31.579 24.4194 31.5896 24.4855 31.5565L24.722 31.4389C24.7973 31.4019 24.8065 31.3055 24.7748 31.2368C23.9041 29.3884 24.2873 27.2876 25.6164 25.7735C26.7712 24.4589 28.2325 23.4508 29.1798 21.9578C31.2039 18.7657 30.9899 14.6144 28.6619 11.6404C26.4832 8.85787 22.8551 7.79824 19.4278 8.1444C16.2423 8.46678 13.2101 10.8595 11.9536 13.7821C11.7647 14.222 11.6418 14.6911 11.4291 15.1218C11.1305 15.7269 10.6377 16.1286 10.0828 16.4946C9.52784 16.8605 8.62015 17.245 8.4986 17.9796C8.44179 18.3178 8.5607 18.664 8.75624 18.9362C8.90686 19.1463 9.43799 19.425 9.45781 19.6906C9.48556 20.0539 8.83023 20.2614 8.78134 20.6498C8.74831 20.9101 8.89497 21.1492 9.07334 21.3197V21.1109C8.65715 21.469 8.67432 21.8389 8.88572 22.304C8.97424 22.4969 9.11165 22.7096 9.09976 22.9448C9.09183 23.1033 8.91347 23.4046 8.8593 23.5591C8.73774 23.9053 8.63997 24.2713 8.67168 24.6412C8.79588 26.1329 10.5042 26.5332 11.6841 26.8094C12.8639 27.0855 13.9487 27.4251 14.6317 28.4952C15.291 29.5271 15.3663 30.7453 15.3756 31.9331C15.3756 32.0124 15.443 32.0811 15.5236 32.0811H15.7812C15.9715 32.0811 15.9715 31.7864 15.7812 31.7864H15.5196Z" fill="#365888"/>
<path d="M27.7847 17.8197C27.6472 17.6513 27.518 17.5256 27.3461 17.3928V17.6193C27.9448 17.0265 28.0871 16.1337 27.6425 15.4022C27.1706 14.6257 26.3063 14.3542 25.442 14.4715L25.6234 14.7075C26.1877 13.58 25.6246 12.3754 24.5706 11.7861C23.411 11.1388 22.1021 11.2016 21.0695 12.0126C20.9758 12.0861 20.9663 12.1584 20.9106 12.1347C20.8893 12.1252 20.8181 11.8027 20.8087 11.7826C20.7091 11.5561 20.549 11.3676 20.3593 11.2111C19.891 10.8234 19.2223 10.6266 18.6188 10.6729C17.4736 10.7618 16.6057 11.7506 16.8725 12.9018L17.1084 12.7204C16.3449 12.3256 15.4225 12.4287 14.8605 13.1164C14.2985 13.804 14.3886 14.794 15.0194 15.4046V15.1781C14.3898 15.7591 14.1954 16.685 14.6815 17.4225C15.0751 18.0212 15.8481 18.3793 16.5132 18.0236L16.2773 17.8422C15.9998 19.4309 18.1304 20.5371 19.1939 19.2495L18.92 19.1357C18.9603 19.7771 19.2282 20.3723 19.8116 20.6947C20.0202 20.8109 20.3202 20.8074 20.4791 20.8797C20.9213 21.0813 21.2734 21.7013 21.4584 22.121C21.6575 22.5727 21.5805 23.4963 22.1543 23.686C22.7281 23.8757 22.9985 23.2651 23.2451 22.8644L22.9937 22.8964C23.5735 23.3766 24.4224 23.6054 25.1219 23.2355C25.6945 22.9332 26.1901 22.0878 25.8795 21.4381L25.7834 21.6741C26.2423 21.5519 26.5517 21.1559 26.5968 20.6888L26.3561 20.8275C26.8849 21.0955 27.595 20.562 27.8654 20.1494C28.3313 19.4404 28.2625 18.5441 27.8096 17.8517C27.697 17.6798 27.4196 17.8398 27.5334 18.0129C27.8333 18.4717 27.9566 18.9934 27.799 19.5329C27.6887 19.9099 27.0651 20.8287 26.5173 20.5501C26.4023 20.492 26.2885 20.5655 26.2767 20.6888C26.2458 21.0125 26.0123 21.2828 25.6993 21.3658C25.5926 21.3943 25.5594 21.5104 25.6032 21.6017C25.9115 22.2479 25.1468 22.9747 24.6014 23.0719C24.1034 23.162 23.6055 22.9901 23.2214 22.6723C23.1419 22.6059 23.0281 22.6107 22.97 22.7043C22.9214 22.7826 22.8811 22.8644 22.8337 22.945C22.6594 23.2438 22.708 23.3137 22.3262 23.1762C21.9445 23.0387 22.0369 22.9747 21.9622 22.6296C21.8603 22.159 21.6516 21.7096 21.3647 21.3231C21.1774 21.0718 20.9023 20.7173 20.613 20.5833C20.3237 20.4493 20.0226 20.5051 19.7452 20.262C19.4132 19.9715 19.2686 19.5661 19.2413 19.1369C19.233 19.0124 19.0634 18.908 18.9674 19.023C18.1316 20.0344 16.3579 19.2305 16.5867 17.9276C16.6104 17.7912 16.4812 17.6774 16.3508 17.7462C15.7817 18.0497 15.1355 17.6264 14.8723 17.1166C14.5605 16.5167 14.7668 15.8445 15.2458 15.4034C15.3086 15.3453 15.3063 15.2351 15.2458 15.177C14.0282 13.9997 15.5351 12.2663 16.946 12.9955C17.0716 13.0607 17.2139 12.954 17.1819 12.8141C16.6792 10.6385 20.5158 10.3575 20.6035 12.3327C20.6059 12.3979 20.651 12.4738 20.7209 12.4868L20.926 12.5248C20.9782 12.5343 21.0458 12.5295 21.0813 12.4833C22.4744 10.7274 26.5387 12.162 25.346 14.5427C25.2784 14.6778 25.3886 14.7964 25.5273 14.7786C26.9726 14.5818 28.3562 16.1681 27.1208 17.3905C27.0651 17.4462 27.052 17.5636 27.1208 17.6169C27.2927 17.7509 27.4208 17.8766 27.5595 18.0437C27.6982 18.2109 27.9163 17.975 27.7859 17.8173L27.7847 17.8197Z" fill="#365888"/>
<path d="M23.1526 23.5428C23.0477 23.7452 22.8202 23.934 22.5727 23.5678C22.5327 23.5078 22.5365 23.3328 22.5202 23.259C22.4627 22.9903 22.374 22.7316 22.259 22.4816C22.0178 21.9605 21.6666 21.5205 21.2304 21.1493L21.1554 21.4318C21.5254 21.348 21.7941 21.1981 22.0615 20.9294L21.7728 20.8094C21.8053 21.6043 22.354 22.2229 23.1214 22.4117L23.0202 22.1629C22.8402 22.5754 23.0739 23.1378 23.3501 23.449L23.3239 23.244C23.2576 23.3378 23.2001 23.4365 23.1526 23.5403C23.0527 23.7327 23.3439 23.904 23.4439 23.7102C23.4926 23.6065 23.5501 23.5078 23.6151 23.414C23.6576 23.3478 23.6376 23.264 23.5888 23.209C23.4239 23.0228 23.2001 22.5891 23.3114 22.3317C23.3526 22.2354 23.3264 22.1117 23.2101 22.0829C22.589 21.9305 22.1365 21.4605 22.1103 20.8056C22.104 20.6619 21.9278 20.5794 21.8216 20.6856C21.5941 20.9144 21.3729 21.0306 21.0654 21.1006C20.9467 21.1281 20.8954 21.3006 20.9904 21.383C21.4679 21.7905 21.8441 22.2842 22.0603 22.8766C22.1865 23.219 22.1578 23.6577 22.3265 23.9739C22.649 24.5801 23.2239 24.1314 23.4426 23.7065C23.5413 23.514 23.2501 23.3428 23.1514 23.5365L23.1526 23.5428Z" fill="#365888"/>
<path d="M27.5914 19.6929C27.4468 19.9703 27.2796 20.1861 26.9868 20.3118C26.7876 20.3971 26.6003 20.3675 26.3951 20.4185L26.5979 20.5726C26.5576 20.2572 26.4438 19.8351 26.1391 19.6668L26.196 19.8861C26.3228 19.7083 26.72 18.6614 26.1545 18.7562C25.998 18.7823 26.0122 18.8902 25.9648 19.0017C25.992 19.176 25.9683 19.349 25.8925 19.5221C25.6233 19.828 25.3317 19.8814 25.0175 19.6822C24.9274 19.6751 24.8954 19.6656 24.7934 19.6822C24.7021 19.6976 24.6689 19.8019 24.682 19.879C24.7732 20.4374 25.7229 20.2809 26.0395 20.0403L25.845 20.0154C25.8723 20.0497 26.0964 20.3639 26.1047 20.4102C26.1865 20.8417 25.9754 21.1772 25.5403 21.1642C25.225 21.1547 25.1929 20.9804 24.9286 20.9235C24.8479 20.9057 24.7507 20.9472 24.7318 21.035C24.6333 21.495 25.251 21.6859 25.6091 21.6977L25.449 21.5377C25.4514 21.8424 25.5024 22.1281 25.3447 22.4067C25.1005 22.8395 24.6239 22.9865 24.1544 22.9272C23.4477 22.8383 23.0043 22.383 23.0162 21.674L22.8561 21.8341C23.3221 21.8412 23.7596 21.6882 23.9765 21.2448C24.0631 21.0682 24.203 20.5299 23.9054 20.4398C23.5461 20.3307 23.6457 20.7575 23.6042 20.9342C23.3956 21.8068 22.204 21.2436 21.9657 20.7421C21.7701 20.3319 22.0713 20.0154 21.9871 19.6241C21.9681 19.5364 21.8709 19.4949 21.7903 19.5127C21.6112 19.5518 21.6101 19.5945 21.5176 19.7557C21.2615 20.2074 20.875 20.5418 20.3154 20.4019C19.687 20.2442 19.3823 19.6229 19.3882 19.0195C19.3882 18.9187 19.4487 18.7515 19.3954 18.6638C19.2768 18.467 19.1061 18.493 18.9721 18.6507C18.7539 18.9068 18.9662 18.9495 18.5903 19.1866C18.3485 19.3396 18.0367 19.355 17.764 19.3123C17.0716 19.202 16.5831 18.6258 16.7408 17.9133L16.5049 18.0093C16.7823 18.1469 17.732 18.378 17.8066 17.9157C17.8304 17.7663 17.7367 17.707 17.6193 17.6572C17.4012 17.5671 17.1392 17.7698 16.8866 17.6714C16.3365 17.4545 16.5831 16.9933 16.589 16.6494C16.5902 16.5617 16.5143 16.4906 16.429 16.4894C15.7247 16.4799 16.0045 17.5327 16.2831 17.8457L16.3152 17.5944C15.7484 17.9619 15.0643 17.3667 14.9102 16.8285C14.7644 16.3222 14.9837 15.8302 15.3619 15.497L15.1675 15.5219C15.4615 15.7069 16.2085 16.027 16.5238 15.7259C16.678 15.5788 16.6056 15.4093 16.4361 15.3299C16.3993 15.3121 16.3602 15.3299 16.3235 15.3251C16.0128 15.2848 15.7579 15.3512 15.4722 15.1686C14.9553 14.839 14.7988 14.1146 15.0964 13.587C15.3773 13.0879 15.9796 12.8413 16.5321 12.98C16.7882 13.0452 16.9222 13.2219 17.1854 13.1744C17.2352 13.165 17.2885 13.1128 17.2968 13.063C17.3419 12.8164 17.2696 12.6255 17.2885 12.3682C17.3241 11.8845 17.6359 11.498 18.0616 11.2893C18.8784 10.8886 20.3948 11.2716 20.46 12.3327L20.6201 12.1726C20.2703 12.2141 19.3467 12.6409 19.559 13.1495C19.7712 13.6582 20.2751 12.7571 20.3438 12.7204C20.7375 12.552 21.0564 12.6433 21.3018 12.9942C21.3492 13.1412 21.3824 13.2906 21.4026 13.4436C21.4358 13.4969 21.4298 13.5586 21.4939 13.5918C21.5958 13.6439 21.6942 13.6534 21.7891 13.5728C22.2029 13.2219 21.4773 12.4394 21.1904 12.2888L21.2224 12.5401C22.3546 11.1921 25.4846 11.8383 25.4028 13.8443C25.3981 13.9712 25.3388 14.4122 25.2356 14.462C25.2001 14.4786 25.1218 14.3766 25.0673 14.3695C24.8634 14.3423 24.6855 14.2225 24.4638 14.2225C24.2421 14.2225 23.7382 14.2699 23.7477 14.5746C23.7572 14.8793 24.0216 14.7655 24.1911 14.7276C24.7756 14.5972 25.3435 14.992 25.2534 15.6274C25.2356 15.7543 25.1123 15.9452 25.1882 16.078C25.2878 16.2511 25.4751 16.2202 25.5972 16.0886C25.9162 15.7448 25.6933 15.0584 25.487 14.7323L25.4301 14.9517C25.7182 14.7596 26.3869 14.9445 26.6465 15.0797C26.9061 15.2149 27.1444 15.4413 27.2867 15.7093C27.6139 16.321 27.3887 16.8237 27.001 17.3169L27.1954 17.292C26.8848 17.1296 26.19 16.819 25.8415 17.0359C25.7075 17.1201 25.653 17.2624 25.7609 17.3987C25.8071 17.4568 25.8723 17.4604 25.9399 17.477C26.3086 17.5683 26.6157 17.4853 26.9844 17.7094C27.6875 18.1385 27.8689 18.9993 27.5772 19.732C27.5013 19.9241 27.8108 20.0071 27.8866 19.8174C28.1581 19.1356 28.0716 18.3318 27.5653 17.7769C27.3211 17.509 26.9939 17.3134 26.6453 17.2162C26.5291 17.1841 26.2102 17.0905 26.1059 17.145C26.0798 17.3786 26.2102 17.4497 26.4971 17.3584C26.6868 17.3987 26.8646 17.4687 27.033 17.5683C27.0899 17.5979 27.1824 17.6003 27.2274 17.5434C27.7408 16.8901 27.9862 16.1716 27.4788 15.4069C27.2678 15.0892 26.9488 14.8378 26.592 14.7051C26.2351 14.5723 25.5996 14.4525 25.2688 14.673C25.1989 14.7193 25.1633 14.8153 25.2119 14.8924C25.302 14.9991 25.3518 15.1236 25.3637 15.2635C25.436 15.4366 25.4407 15.6144 25.3743 15.7958C25.4917 15.9713 25.5629 15.7306 25.5806 15.6701C25.6399 15.4745 25.5652 15.1828 25.4822 15.005C25.3246 14.6683 25.0163 14.4418 24.6488 14.3814C24.5397 14.3636 24.4045 14.3517 24.299 14.3755C24.114 14.4181 24.0488 14.3387 24.248 14.4786C24.4472 14.6185 24.6974 14.5379 24.9072 14.6458C24.759 14.5699 25.1503 14.839 25.1977 14.8414C25.5154 14.8568 25.6293 14.4027 25.6838 14.1549C26.2126 11.728 22.3831 10.6622 20.9983 12.3113C20.9355 12.386 20.9331 12.5117 21.0303 12.5627C21.1394 12.6113 21.2354 12.68 21.3172 12.769C21.3635 13.0096 21.4951 13.1626 21.7108 13.2302C21.7405 13.1495 21.6195 12.8994 21.5792 12.8318C21.4287 12.5698 21.1738 12.3955 20.8797 12.3374C20.5857 12.2793 20.2822 12.3493 20.0439 12.5378C20.0095 12.565 19.757 12.7879 19.7736 12.8555C19.7866 12.9077 20.4482 12.5129 20.6213 12.4915C20.7031 12.482 20.7872 12.4263 20.7813 12.3315C20.7114 11.185 19.342 10.6313 18.3319 10.8613C17.8387 10.9728 17.3763 11.281 17.138 11.7351C17.0087 11.9805 16.9542 12.2509 16.9566 12.5271C16.9566 12.5271 17.0075 12.916 16.9992 12.9195C17.1237 12.8674 16.7906 12.7263 16.7823 12.7215C15.8231 12.2117 14.628 13.1709 14.6221 14.1549C14.6197 14.6683 14.8735 15.1698 15.311 15.4437C15.5101 15.5682 15.7899 15.6808 16.0306 15.6678C16.2179 15.6571 16.2559 15.7294 16.1385 15.5753C15.9974 15.3891 15.5504 15.3832 15.3287 15.2445C15.2659 15.2054 15.1876 15.2232 15.1343 15.2694C14.5676 15.7685 14.3589 16.5819 14.7478 17.2576C15.0809 17.8386 15.8587 18.2702 16.4764 17.8694C16.5665 17.8113 16.5795 17.6975 16.5084 17.6181L16.4266 16.8083L16.2665 16.6483C16.263 16.8605 16.084 17.0122 16.1195 17.2576C16.1515 17.4734 16.2737 17.6584 16.442 17.7924C16.64 17.9512 16.9293 18.0496 17.1854 18.0283C17.3881 18.0105 17.4296 18.0757 17.2992 17.9287C17.1569 17.7675 16.8641 17.8291 16.6661 17.7319C16.5784 17.688 16.4551 17.72 16.4302 17.8279C16.2523 18.6329 16.7218 19.3739 17.5174 19.5945C17.9169 19.7059 18.39 19.681 18.7516 19.4629C18.8867 19.3811 19.0029 19.272 19.093 19.1439C19.157 19.0538 19.2732 18.678 19.0812 18.793C18.8891 18.908 19.1748 19.7522 19.2519 19.9039C19.4357 20.2703 19.7534 20.556 20.1447 20.6817C20.511 20.8002 20.9011 20.767 21.2354 20.5714C21.3729 20.492 21.4951 20.39 21.5946 20.2655C21.6373 20.2122 21.8021 19.8363 21.8744 19.8209L21.6776 19.7095C21.7073 19.8494 21.5425 20.1387 21.5401 20.2999C21.5366 20.5086 21.5935 20.7196 21.6883 20.9034C21.8982 21.3065 22.319 21.6041 22.7636 21.6752C23.1205 21.7321 23.5023 21.6456 23.737 21.3539C23.8497 21.2152 23.9362 21.0279 23.935 20.8465C23.9327 20.4588 23.7939 20.8998 23.7299 21.0077C23.5177 21.3634 23.2972 21.5211 22.8561 21.514C22.7684 21.5128 22.6973 21.5886 22.6961 21.674C22.6807 22.5964 23.3209 23.2023 24.2457 23.2675C24.7069 23.2995 25.1491 23.1418 25.4585 22.792C25.8047 22.3996 25.7739 22.0155 25.7703 21.5377C25.7703 21.4487 25.6968 21.38 25.6103 21.3776C25.5486 21.3752 25.0068 21.2863 25.0424 21.1203L24.8456 21.2318C24.9701 21.2591 25.1183 21.444 25.2439 21.4938C25.3601 21.54 25.4893 21.5626 25.6138 21.5543C25.8521 21.5389 26.0739 21.4156 26.2268 21.2353C26.637 20.7492 26.4153 20.2252 26.0727 19.7889C26.0335 19.7391 25.9292 19.7249 25.8782 19.764C25.7336 19.8731 25.0447 20.1209 24.9914 19.7936L24.88 19.9905C25.0293 19.9656 25.2748 20.1244 25.455 20.1126C25.6352 20.1007 25.794 20.0462 25.9328 19.9418C26.0798 19.8316 26.1912 19.6763 26.2541 19.5044C26.2778 19.4392 26.3288 19.2269 26.3098 19.1546C26.2517 18.9448 26.0158 19.5921 25.9221 19.7237C25.8723 19.7936 25.9091 19.9039 25.979 19.943C26.158 20.1102 26.2588 20.3201 26.2801 20.5726C26.2932 20.6757 26.3714 20.754 26.4829 20.7267C26.8149 20.6449 27.0674 20.6947 27.3733 20.4694C27.595 20.307 27.7432 20.0948 27.87 19.8529C27.9649 19.6703 27.6886 19.5079 27.5938 19.6917L27.5914 19.6929Z" fill="#365888"/>
<path d="M23.3366 14.9502C22.5604 14.2816 21.7055 14.4866 21.0294 15.1627H21.4243C20.8956 14.634 20.0845 14.2353 19.3808 14.744C19.3284 14.7815 19.2521 14.9203 19.3134 14.8678C19.2821 14.894 19.2084 14.8703 19.1721 14.9053C19.0296 15.0502 18.9159 15.179 18.8284 15.3639C18.6522 15.7364 18.6397 16.1676 18.7934 16.55C18.9897 17.0387 19.4921 17.4199 19.8558 17.7836C20.2457 18.1736 20.6369 18.5648 21.0269 18.9547C21.1331 19.0609 21.3143 19.0609 21.4218 18.9547H21.4231C21.2918 18.9535 21.1606 18.9535 21.0281 18.9535H21.0294C21.1356 19.0622 21.3168 19.0622 21.4243 18.9547C21.9668 18.4123 22.5104 17.8686 23.0529 17.3262C23.7453 16.6338 24.0515 15.7789 23.3353 14.949C23.1004 14.6765 22.7079 15.0727 22.9404 15.3439C23.654 16.1726 22.7442 16.845 22.2005 17.3899C21.8105 17.7799 21.4193 18.1711 21.0294 18.561H21.4243H21.4231C21.3168 18.4523 21.1356 18.4523 21.0281 18.5598H21.0269C21.1581 18.561 21.2893 18.561 21.4218 18.561C20.8794 18.0186 20.3357 17.4749 19.7933 16.9325C19.4058 16.545 19.1059 16.1738 19.3459 15.5689C19.2709 15.4564 19.2846 15.4052 19.3883 15.4164L19.4546 15.3889C19.5846 15.2465 19.7945 15.129 19.987 15.0927C20.447 15.0052 20.7382 15.2677 21.0294 15.5589C21.1356 15.6652 21.3168 15.6652 21.4243 15.5589C21.8605 15.1227 22.4042 14.8815 22.9429 15.3464C23.2141 15.5802 23.6103 15.1865 23.3378 14.9515L23.3366 14.9502Z" fill="#365888"/>
<path d="M31.8407 10.737C32.1206 10.457 32.4981 10.3021 32.8643 10.1671C32.9168 10.1658 32.9493 10.1171 32.9518 10.0671C32.9518 10.0646 32.9518 10.0633 32.9518 10.0608C32.9518 10.0583 32.9518 10.0558 32.9518 10.0533C32.9493 10.0021 32.9168 9.9546 32.8643 9.95335C32.4993 9.81837 32.1206 9.66339 31.8407 9.38343C31.557 9.09972 31.4007 8.71352 31.2645 8.34357C31.2283 8.24483 31.0995 8.24483 31.0633 8.34357C30.927 8.71477 30.7708 9.09972 30.4871 9.38343C30.2034 9.66714 29.8172 9.82337 29.4472 9.9596C29.3485 9.99585 29.3485 10.1246 29.4472 10.1608C29.8184 10.2971 30.2034 10.4533 30.4871 10.737C30.7708 11.0207 30.927 11.4069 31.0633 11.7769C31.0995 11.8756 31.2283 11.8756 31.2645 11.7769C31.4007 11.4057 31.557 11.0207 31.8407 10.737ZM31.1645 11.4607C31.0683 11.2219 30.957 10.9895 30.8021 10.7845C30.6171 10.5383 30.3759 10.3533 30.1022 10.2146C29.9922 10.1583 29.8784 10.1083 29.7635 10.0608C30.0022 9.9646 30.2346 9.85337 30.4396 9.69839C30.6858 9.51341 30.8696 9.27219 31.0095 8.99848C31.0658 8.8885 31.1158 8.77476 31.1633 8.65978C31.2595 8.89849 31.372 9.13096 31.5257 9.33594C31.7107 9.58215 31.9519 9.76588 32.2256 9.90586C32.3356 9.9621 32.4493 10.0121 32.5643 10.0596C32.3256 10.1558 32.0931 10.2671 31.8882 10.422C31.642 10.607 31.4582 10.8482 31.3182 11.1219C31.262 11.2319 31.212 11.3457 31.1645 11.4607Z" stroke="#365888" stroke-width="0.238068" stroke-miterlimit="10"/>
<path d="M31.9294 10.8257C32.0831 10.677 32.2606 10.5645 32.4531 10.4707C32.5356 10.4308 32.6206 10.3945 32.7068 10.3595C32.7931 10.3245 32.913 10.3045 32.9893 10.2458C33.078 10.177 33.0993 10.0521 33.053 9.95206C32.9818 9.79959 32.7106 9.76334 32.5706 9.7021C32.1731 9.52837 31.8557 9.2834 31.6432 8.90096C31.547 8.72723 31.4745 8.54225 31.4045 8.35728C31.3495 8.2148 31.2383 8.09106 31.0708 8.1648C30.9308 8.22729 30.9021 8.42477 30.8508 8.55225C30.7708 8.75098 30.6746 8.94845 30.5484 9.12093C30.2809 9.48588 29.8722 9.66335 29.4635 9.82083C29.3398 9.86833 29.231 9.94332 29.2535 10.0933C29.2785 10.2683 29.471 10.3008 29.6097 10.3545C30.0259 10.5182 30.3971 10.7382 30.6358 11.1282C30.7583 11.3281 30.8433 11.5444 30.9271 11.7618C30.982 11.9043 31.0933 12.028 31.2608 11.9543C31.4282 11.8806 31.4632 11.6031 31.5295 11.4531C31.632 11.2231 31.7569 11.0069 31.9319 10.8257C32.0444 10.7095 31.8669 10.532 31.7544 10.6482C31.5182 10.8919 31.3645 11.1894 31.2383 11.5019C31.2295 11.5244 31.1708 11.6968 31.1633 11.6956C31.1633 11.6956 31.0995 11.5169 31.0933 11.5019C31.0308 11.3469 30.962 11.1919 30.8783 11.0469C30.7171 10.7695 30.4984 10.542 30.2234 10.3745C30.0797 10.287 29.9272 10.217 29.7722 10.152C29.7085 10.1258 29.6385 10.1083 29.5785 10.0758C29.4972 10.0321 29.5272 10.0783 29.5547 10.0546C29.591 10.0221 29.6785 10.0071 29.7247 9.98831C30.0184 9.86958 30.3059 9.72709 30.5396 9.50837C30.7733 9.28965 30.9408 8.98469 31.067 8.68223C31.0958 8.61349 31.117 8.53975 31.1495 8.47351C31.1908 8.38977 31.1495 8.42352 31.1708 8.44977C31.192 8.47601 31.2045 8.53975 31.217 8.571C31.2783 8.72723 31.3445 8.88221 31.4257 9.02844C31.5807 9.30715 31.7894 9.54087 32.0569 9.71585C32.2094 9.81583 32.3756 9.89332 32.5443 9.96331C32.6293 9.99831 32.7181 10.0458 32.8068 10.0658C32.863 10.0783 32.8068 10.072 32.8306 10.0458C32.8056 10.0733 32.7206 10.087 32.6868 10.0995C32.3456 10.232 32.0169 10.3908 31.7519 10.6482C31.6357 10.7607 31.8132 10.9382 31.9294 10.8257Z" stroke="#365888" stroke-width="0.238068" stroke-miterlimit="10"/>
<path d="M31.2845 11.4281C31.147 11.0918 30.9845 10.7656 30.7246 10.5069C30.4646 10.2482 30.1359 10.0795 29.7959 9.9395V10.182C30.1321 10.0445 30.4583 9.88201 30.7171 9.62205C30.9758 9.36208 31.1445 9.03337 31.2845 8.69342H31.042C31.1795 9.02962 31.342 9.35583 31.6019 9.61455C31.8619 9.87326 32.1906 10.042 32.5306 10.182V9.9395C32.1944 10.077 31.8682 10.2395 31.6094 10.4994C31.3507 10.7594 31.182 11.0881 31.042 11.4281C30.9808 11.5768 31.2232 11.6418 31.2845 11.4943C31.407 11.1956 31.557 10.9069 31.7869 10.6769C32.0169 10.4469 32.3019 10.302 32.5968 10.1807C32.7155 10.132 32.7155 9.987 32.5968 9.93825C32.2981 9.81577 32.0094 9.66579 31.7794 9.43582C31.5495 9.20585 31.4045 8.92089 31.2832 8.62593C31.2345 8.50719 31.0895 8.50719 31.0408 8.62593C30.9183 8.92464 30.7683 9.21335 30.5383 9.44332C30.3084 9.67329 30.0234 9.81827 29.7284 9.9395C29.6097 9.98825 29.6097 10.1332 29.7284 10.182C30.0272 10.3045 30.3159 10.4544 30.5458 10.6844C30.7758 10.9144 30.9208 11.1993 31.042 11.4943C31.102 11.6418 31.3457 11.5768 31.2845 11.4281Z" stroke="#365888" stroke-width="0.238068" stroke-miterlimit="10"/>
<path d="M25.3773 18.3235C25.4961 18.2047 25.6561 18.1397 25.811 18.0822C25.8335 18.0822 25.8473 18.061 25.8485 18.0397V18.0335C25.8485 18.0122 25.8335 17.9923 25.811 17.991C25.6561 17.9335 25.4961 17.8685 25.3773 17.7498C25.2574 17.6298 25.1911 17.4661 25.1336 17.3098C25.1186 17.2686 25.0636 17.2686 25.0486 17.3098C24.9911 17.4673 24.9249 17.6298 24.8049 17.7498C24.6849 17.8698 24.5212 17.936 24.365 17.9935C24.3237 18.0085 24.3237 18.0635 24.365 18.0785C24.5225 18.136 24.6849 18.2022 24.8049 18.3222C24.9249 18.4422 24.9911 18.6059 25.0486 18.7621C25.0636 18.8034 25.1186 18.8034 25.1336 18.7621C25.1911 18.6047 25.2574 18.4422 25.3773 18.3222V18.3235ZM25.0911 18.6297C25.0499 18.5284 25.0036 18.4297 24.9374 18.3435C24.8587 18.2397 24.7574 18.161 24.6412 18.1022C24.5949 18.0785 24.5462 18.0572 24.4975 18.0372C24.5987 17.996 24.6974 17.9498 24.7837 17.8835C24.8874 17.8048 24.9661 17.7035 25.0249 17.5873C25.0486 17.5411 25.0699 17.4923 25.0899 17.4436C25.1311 17.5448 25.1786 17.6435 25.2436 17.7298C25.3224 17.8335 25.4236 17.9123 25.5398 17.971C25.5861 17.9948 25.6348 18.016 25.6836 18.036C25.5823 18.0772 25.4836 18.1247 25.3973 18.1897C25.2936 18.2685 25.2149 18.371 25.1561 18.4859C25.1324 18.5322 25.1111 18.5809 25.0911 18.6297Z" stroke="#365888" stroke-width="0.238068" stroke-miterlimit="10"/>
<path d="M25.4223 18.3672C25.4873 18.3047 25.5636 18.2572 25.6448 18.2172C25.6836 18.1985 25.7223 18.1822 25.761 18.1672C25.796 18.1535 25.841 18.146 25.8698 18.1222C25.9073 18.0922 25.9198 18.0385 25.9023 17.9935C25.8748 17.9248 25.7773 17.9123 25.7173 17.8873C25.5461 17.816 25.4036 17.7173 25.3099 17.5536C25.2661 17.4773 25.2349 17.3961 25.2024 17.3148C25.1799 17.2561 25.1386 17.2011 25.0661 17.2174C24.9937 17.2336 24.9799 17.3123 24.9574 17.3711C24.9224 17.4598 24.8824 17.5473 24.8262 17.6248C24.7187 17.7773 24.5487 17.856 24.38 17.9198C24.3225 17.941 24.2637 17.971 24.27 18.0435C24.2762 18.1222 24.3525 18.141 24.415 18.1647C24.5912 18.2322 24.7524 18.3235 24.8537 18.4872C24.9062 18.5722 24.9437 18.6647 24.9787 18.7571C25.0036 18.8209 25.0524 18.8796 25.1286 18.8496C25.2049 18.8196 25.2199 18.7059 25.2499 18.6384C25.2936 18.5397 25.3461 18.4459 25.4223 18.3684C25.4786 18.3097 25.3898 18.221 25.3336 18.2797C25.2349 18.3822 25.1699 18.5047 25.1161 18.6359C25.1049 18.6647 25.0886 18.6959 25.0811 18.7259H25.1011C25.0974 18.7147 25.0924 18.7034 25.0886 18.6922C25.0824 18.6772 25.0774 18.6622 25.0711 18.6472C25.0436 18.5784 25.0136 18.5109 24.9762 18.4459C24.9062 18.3272 24.8112 18.231 24.6937 18.1597C24.6374 18.126 24.5775 18.0972 24.5162 18.0722C24.4925 18.0622 24.4375 18.0285 24.415 18.0322C24.3975 18.0347 24.3975 18.041 24.415 18.0435C24.4312 18.046 24.4662 18.0235 24.4825 18.0172C24.6087 17.966 24.7312 17.906 24.8324 17.8123C24.9337 17.7185 25.0036 17.5911 25.0574 17.4623C25.0674 17.4373 25.0924 17.3998 25.0936 17.3723L25.1024 17.3498C25.0824 17.3436 25.0774 17.3473 25.0874 17.3611C25.0849 17.3736 25.0999 17.3936 25.1049 17.4061C25.1324 17.4748 25.1611 17.5436 25.1974 17.6086C25.2636 17.7285 25.3536 17.8273 25.4686 17.9023C25.5336 17.9448 25.6036 17.9773 25.6748 18.006C25.7011 18.0172 25.7573 18.051 25.786 18.0497L25.7973 18.0535C25.7848 18.0435 25.7848 18.0335 25.7973 18.0222C25.791 18.0185 25.7486 18.041 25.7423 18.0435C25.5948 18.101 25.4523 18.1685 25.3361 18.2797C25.2774 18.336 25.3674 18.4247 25.4248 18.3684L25.4223 18.3672Z" stroke="#365888" stroke-width="0.238068" stroke-miterlimit="10"/>
<path d="M25.1524 18.6134C25.0936 18.4697 25.0236 18.3297 24.9124 18.2197C24.8012 18.1097 24.6599 18.0372 24.515 17.9772V18.0985C24.6587 18.0397 24.7987 17.9697 24.9087 17.8585C25.0186 17.7473 25.0911 17.606 25.1511 17.4611H25.0299C25.0886 17.6048 25.1586 17.7448 25.2699 17.8548C25.3811 17.9647 25.5223 18.0372 25.6673 18.0972V17.976C25.5236 18.0347 25.3836 18.1047 25.2736 18.216C25.1636 18.3272 25.0911 18.4684 25.0311 18.6134C24.9999 18.6884 25.1224 18.7209 25.1524 18.6472C25.2036 18.5222 25.2661 18.4022 25.3624 18.3047C25.4586 18.2072 25.5773 18.1472 25.7011 18.0972C25.761 18.0735 25.7598 17.9997 25.7011 17.976C25.5761 17.9248 25.4561 17.8623 25.3586 17.766C25.2611 17.6698 25.2011 17.5511 25.1511 17.4273C25.1274 17.3673 25.0536 17.3686 25.0299 17.4273C24.9787 17.5523 24.9162 17.6723 24.8199 17.7698C24.7237 17.8673 24.605 17.9273 24.4812 17.9772C24.4212 18.001 24.4225 18.0747 24.4812 18.0985C24.6062 18.1497 24.7262 18.2122 24.8237 18.3085C24.9212 18.4047 24.9812 18.5234 25.0311 18.6472C25.0611 18.7209 25.1836 18.6884 25.1524 18.6134Z" stroke="#365888" stroke-width="0.238068" stroke-miterlimit="10"/>
<path d="M15.5196 31.7864L15.6676 31.9344C15.6531 30.1666 15.3716 28.2429 13.7518 27.2295C12.5561 26.4817 11.038 26.6429 9.85286 25.8964C8.86194 25.2728 8.86194 24.3466 9.25566 23.3411C9.35211 23.0928 9.47367 22.8496 9.401 22.5788C9.27416 22.1045 8.66508 21.8482 9.28077 21.321C9.34022 21.2695 9.33494 21.1638 9.28077 21.1122C8.64658 20.5058 9.97441 20.1292 9.74716 19.4805C9.67317 19.2704 9.41289 19.1872 9.2517 19.0406C8.61091 18.4579 8.72849 17.7682 9.38118 17.3031C9.99159 16.8685 10.6879 16.5329 11.2018 15.9753C11.6973 15.4362 11.8809 14.7505 12.1439 14.0873C13.3607 11.0088 16.5792 8.57512 19.8955 8.40469C23.4945 8.21839 27.0989 9.5013 29.0318 12.6973C31.0586 16.0493 30.5459 20.4384 27.7951 23.2341C26.6021 24.447 25.0945 25.467 24.4141 27.0881C23.8315 28.4741 23.8803 30.0318 24.5185 31.3874L24.5713 31.1853L24.3348 31.3029L24.537 31.3557C23.9847 30.1838 23.883 28.8493 24.2595 27.6074C24.6361 26.3654 25.5041 25.434 26.4131 24.5501C27.2402 23.7454 28.1202 23.0465 28.7795 22.0847C29.4718 21.0739 29.9553 19.9139 30.1786 18.7102C30.6305 16.2792 29.9725 13.749 28.4518 11.8055C27.0526 10.0179 24.9928 8.90543 22.7692 8.52492C20.6869 8.16819 18.4461 8.27917 16.5634 9.29783C14.6806 10.3165 13.1744 11.7976 12.2866 13.679C12.0461 14.1877 11.91 14.74 11.6603 15.2434C11.334 15.9026 10.7962 16.3426 10.1924 16.7377C9.55691 17.1538 8.40612 17.6493 8.85533 18.5979C9.12486 19.1674 10.0524 19.3101 9.48424 20.1649C9.30719 20.4318 8.97689 20.4847 9.06937 20.852C9.10637 20.996 9.21735 21.0039 9.26888 21.14C9.3574 21.3765 9.33758 21.1228 9.183 21.3606C9.02841 21.5984 8.90554 21.7504 9.03766 22.0556C9.07994 22.152 9.16714 22.2155 9.21867 22.304C9.41421 22.6409 9.3574 22.9382 9.25434 23.2645C9.14072 23.6226 8.96896 23.9516 8.93593 24.3347C8.90158 24.7535 9.02709 25.1341 9.29398 25.4591C10.0193 26.3417 11.3577 26.4672 12.4015 26.7037C14.9317 27.2758 15.6319 29.6183 15.6319 31.9357C15.6319 32.126 15.9265 32.126 15.9265 31.9357C15.9265 30.382 15.7403 28.6789 14.5723 27.5294C14.0227 26.9877 13.3039 26.6085 12.5548 26.4368C11.5163 26.1976 9.89118 26.0893 9.34947 25.0165C8.96632 24.2568 9.57408 23.6424 9.67714 22.925C9.69563 22.7968 9.68639 22.6713 9.65732 22.5458C9.63486 22.448 9.62032 22.411 9.5754 22.3212C9.43271 22.0345 9.39175 21.8191 9.57012 21.4914C9.64146 21.3606 9.82247 21.4108 9.7868 21.177C9.73923 20.8599 9.29398 20.9246 9.57012 20.5005C9.77359 20.1874 10.0312 20.0011 10.0233 19.5836C10.0154 19.1661 9.72074 19.1357 9.44328 18.8622C8.47878 17.9096 9.80794 17.3481 10.425 16.9372C10.8359 16.6637 11.2415 16.3651 11.5493 15.9753C12.2271 15.1178 12.3949 13.9565 12.9842 13.0369C13.6474 12.0011 14.4322 11.0855 15.4324 10.3654C16.204 9.80915 17.039 9.30973 17.948 9.01377C18.9918 8.67422 20.0897 8.63326 21.1784 8.66761C23.661 8.74688 26.1053 9.64003 27.8084 11.4977C29.6726 13.531 30.4455 16.4153 29.7942 19.1C29.452 20.5111 28.7451 21.8336 27.7542 22.8959C26.8888 23.8247 25.882 24.5923 25.0549 25.5661C23.6518 27.2176 23.3611 29.5483 24.2833 31.5037C24.319 31.579 24.4194 31.5896 24.4855 31.5565L24.722 31.4389C24.7973 31.4019 24.8065 31.3055 24.7748 31.2368C23.9041 29.3884 24.2873 27.2876 25.6164 25.7735C26.7712 24.4589 28.2325 23.4508 29.1798 21.9578C31.2039 18.7657 30.9899 14.6144 28.6619 11.6404C26.4832 8.85787 22.8551 7.79824 19.4278 8.1444C16.2423 8.46678 13.2101 10.8595 11.9536 13.7821C11.7647 14.222 11.6418 14.6911 11.4291 15.1218C11.1305 15.7269 10.6377 16.1286 10.0828 16.4946C9.52784 16.8605 8.62015 17.245 8.4986 17.9796C8.44179 18.3178 8.5607 18.664 8.75624 18.9362C8.90686 19.1463 9.43799 19.425 9.45781 19.6906C9.48556 20.0539 8.83023 20.2614 8.78134 20.6498C8.74831 20.9101 8.89497 21.1492 9.07334 21.3197V21.1109C8.65715 21.469 8.67432 21.8389 8.88572 22.304C8.97424 22.4969 9.11165 22.7096 9.09976 22.9448C9.09183 23.1033 8.91347 23.4046 8.8593 23.5591C8.73774 23.9053 8.63997 24.2713 8.67168 24.6412C8.79588 26.1329 10.5042 26.5332 11.6841 26.8094C12.8639 27.0855 13.9487 27.4251 14.6317 28.4952C15.291 29.5271 15.3663 30.7453 15.3756 31.9331C15.3756 32.0124 15.443 32.0811 15.5236 32.0811H15.7812C15.9715 32.0811 15.9715 31.7864 15.7812 31.7864H15.5196Z" stroke="#365888" stroke-width="0.238068" stroke-miterlimit="10"/>
<path d="M27.7847 17.8197C27.6472 17.6513 27.518 17.5256 27.3461 17.3928V17.6193C27.9448 17.0265 28.0871 16.1337 27.6425 15.4022C27.1706 14.6257 26.3063 14.3542 25.442 14.4715L25.6234 14.7075C26.1877 13.58 25.6246 12.3754 24.5706 11.7861C23.411 11.1388 22.1021 11.2016 21.0695 12.0126C20.9758 12.0861 20.9663 12.1584 20.9106 12.1347C20.8893 12.1252 20.8181 11.8027 20.8087 11.7826C20.7091 11.5561 20.549 11.3676 20.3593 11.2111C19.891 10.8234 19.2223 10.6266 18.6188 10.6729C17.4736 10.7618 16.6057 11.7506 16.8725 12.9018L17.1084 12.7204C16.3449 12.3256 15.4225 12.4287 14.8605 13.1164C14.2985 13.804 14.3886 14.794 15.0194 15.4046V15.1781C14.3898 15.7591 14.1954 16.685 14.6815 17.4225C15.0751 18.0212 15.8481 18.3793 16.5132 18.0236L16.2773 17.8422C15.9998 19.4309 18.1304 20.5371 19.1939 19.2495L18.92 19.1357C18.9603 19.7771 19.2282 20.3723 19.8116 20.6947C20.0202 20.8109 20.3202 20.8074 20.4791 20.8797C20.9213 21.0813 21.2734 21.7013 21.4584 22.121C21.6575 22.5727 21.5805 23.4963 22.1543 23.686C22.7281 23.8757 22.9985 23.2651 23.2451 22.8644L22.9937 22.8964C23.5735 23.3766 24.4224 23.6054 25.1219 23.2355C25.6945 22.9332 26.1901 22.0878 25.8795 21.4381L25.7834 21.6741C26.2423 21.5519 26.5517 21.1559 26.5968 20.6888L26.3561 20.8275C26.8849 21.0955 27.595 20.562 27.8654 20.1494C28.3313 19.4404 28.2625 18.5441 27.8096 17.8517C27.697 17.6798 27.4196 17.8398 27.5334 18.0129C27.8333 18.4717 27.9566 18.9934 27.799 19.5329C27.6887 19.9099 27.0651 20.8287 26.5173 20.5501C26.4023 20.492 26.2885 20.5655 26.2767 20.6888C26.2458 21.0125 26.0123 21.2828 25.6993 21.3658C25.5926 21.3943 25.5594 21.5104 25.6032 21.6017C25.9115 22.2479 25.1468 22.9747 24.6014 23.0719C24.1034 23.162 23.6055 22.9901 23.2214 22.6723C23.1419 22.6059 23.0281 22.6107 22.97 22.7043C22.9214 22.7826 22.8811 22.8644 22.8337 22.945C22.6594 23.2438 22.708 23.3137 22.3262 23.1762C21.9445 23.0387 22.0369 22.9747 21.9622 22.6296C21.8603 22.159 21.6516 21.7096 21.3647 21.3231C21.1774 21.0718 20.9023 20.7173 20.613 20.5833C20.3237 20.4493 20.0226 20.5051 19.7452 20.262C19.4132 19.9715 19.2686 19.5661 19.2413 19.1369C19.233 19.0124 19.0634 18.908 18.9674 19.023C18.1316 20.0344 16.3579 19.2305 16.5867 17.9276C16.6104 17.7912 16.4812 17.6774 16.3508 17.7462C15.7817 18.0497 15.1355 17.6264 14.8723 17.1166C14.5605 16.5167 14.7668 15.8445 15.2458 15.4034C15.3086 15.3453 15.3063 15.2351 15.2458 15.177C14.0282 13.9997 15.5351 12.2663 16.946 12.9955C17.0716 13.0607 17.2139 12.954 17.1819 12.8141C16.6792 10.6385 20.5158 10.3575 20.6035 12.3327C20.6059 12.3979 20.651 12.4738 20.7209 12.4868L20.926 12.5248C20.9782 12.5343 21.0458 12.5295 21.0813 12.4833C22.4744 10.7274 26.5387 12.162 25.346 14.5427C25.2784 14.6778 25.3886 14.7964 25.5273 14.7786C26.9726 14.5818 28.3562 16.1681 27.1208 17.3905C27.0651 17.4462 27.052 17.5636 27.1208 17.6169C27.2927 17.7509 27.4208 17.8766 27.5595 18.0437C27.6982 18.2109 27.9163 17.975 27.7859 17.8173L27.7847 17.8197Z" stroke="#365888" stroke-width="0.238068" stroke-miterlimit="10"/>
<path d="M23.1526 23.5428C23.0477 23.7452 22.8202 23.934 22.5727 23.5678C22.5327 23.5078 22.5365 23.3328 22.5202 23.259C22.4627 22.9903 22.374 22.7316 22.259 22.4816C22.0178 21.9605 21.6666 21.5205 21.2304 21.1493L21.1554 21.4318C21.5254 21.348 21.7941 21.1981 22.0615 20.9294L21.7728 20.8094C21.8053 21.6043 22.354 22.2229 23.1214 22.4117L23.0202 22.1629C22.8402 22.5754 23.0739 23.1378 23.3501 23.449L23.3239 23.244C23.2576 23.3378 23.2001 23.4365 23.1526 23.5403C23.0527 23.7327 23.3439 23.904 23.4439 23.7102C23.4926 23.6065 23.5501 23.5078 23.6151 23.414C23.6576 23.3478 23.6376 23.264 23.5888 23.209C23.4239 23.0228 23.2001 22.5891 23.3114 22.3317C23.3526 22.2354 23.3264 22.1117 23.2101 22.0829C22.589 21.9305 22.1365 21.4605 22.1103 20.8056C22.104 20.6619 21.9278 20.5794 21.8216 20.6856C21.5941 20.9144 21.3729 21.0306 21.0654 21.1006C20.9467 21.1281 20.8954 21.3006 20.9904 21.383C21.4679 21.7905 21.8441 22.2842 22.0603 22.8766C22.1865 23.219 22.1578 23.6577 22.3265 23.9739C22.649 24.5801 23.2239 24.1314 23.4426 23.7065C23.5413 23.514 23.2501 23.3428 23.1514 23.5365L23.1526 23.5428Z" stroke="#365888" stroke-width="0.238068" stroke-miterlimit="10"/>
<path d="M27.5914 19.6929C27.4468 19.9703 27.2796 20.1861 26.9868 20.3118C26.7876 20.3971 26.6003 20.3675 26.3951 20.4185L26.5979 20.5726C26.5576 20.2572 26.4438 19.8351 26.1391 19.6668L26.196 19.8861C26.3228 19.7083 26.72 18.6614 26.1545 18.7562C25.998 18.7823 26.0122 18.8902 25.9648 19.0017C25.992 19.176 25.9683 19.349 25.8925 19.5221C25.6233 19.828 25.3317 19.8814 25.0175 19.6822C24.9274 19.6751 24.8954 19.6656 24.7934 19.6822C24.7021 19.6976 24.6689 19.8019 24.682 19.879C24.7732 20.4374 25.7229 20.2809 26.0395 20.0403L25.845 20.0154C25.8723 20.0497 26.0964 20.3639 26.1047 20.4102C26.1865 20.8417 25.9754 21.1772 25.5403 21.1642C25.225 21.1547 25.1929 20.9804 24.9286 20.9235C24.8479 20.9057 24.7507 20.9472 24.7318 21.035C24.6333 21.495 25.251 21.6859 25.6091 21.6977L25.449 21.5377C25.4514 21.8424 25.5024 22.1281 25.3447 22.4067C25.1005 22.8395 24.6239 22.9865 24.1544 22.9272C23.4477 22.8383 23.0043 22.383 23.0162 21.674L22.8561 21.8341C23.3221 21.8412 23.7596 21.6882 23.9765 21.2448C24.0631 21.0682 24.203 20.5299 23.9054 20.4398C23.5461 20.3307 23.6457 20.7575 23.6042 20.9342C23.3956 21.8068 22.204 21.2436 21.9657 20.7421C21.7701 20.3319 22.0713 20.0154 21.9871 19.6241C21.9681 19.5364 21.8709 19.4949 21.7903 19.5127C21.6112 19.5518 21.6101 19.5945 21.5176 19.7557C21.2615 20.2074 20.875 20.5418 20.3154 20.4019C19.687 20.2442 19.3823 19.6229 19.3882 19.0195C19.3882 18.9187 19.4487 18.7515 19.3954 18.6638C19.2768 18.467 19.1061 18.493 18.9721 18.6507C18.7539 18.9068 18.9662 18.9495 18.5903 19.1866C18.3485 19.3396 18.0367 19.355 17.764 19.3123C17.0716 19.202 16.5831 18.6258 16.7408 17.9133L16.5049 18.0093C16.7823 18.1469 17.732 18.378 17.8066 17.9157C17.8304 17.7663 17.7367 17.707 17.6193 17.6572C17.4012 17.5671 17.1392 17.7698 16.8866 17.6714C16.3365 17.4545 16.5831 16.9933 16.589 16.6494C16.5902 16.5617 16.5143 16.4906 16.429 16.4894C15.7247 16.4799 16.0045 17.5327 16.2831 17.8457L16.3152 17.5944C15.7484 17.9619 15.0643 17.3667 14.9102 16.8285C14.7644 16.3222 14.9837 15.8302 15.3619 15.497L15.1675 15.5219C15.4615 15.7069 16.2085 16.027 16.5238 15.7259C16.678 15.5788 16.6056 15.4093 16.4361 15.3299C16.3993 15.3121 16.3602 15.3299 16.3235 15.3251C16.0128 15.2848 15.7579 15.3512 15.4722 15.1686C14.9553 14.839 14.7988 14.1146 15.0964 13.587C15.3773 13.0879 15.9796 12.8413 16.5321 12.98C16.7882 13.0452 16.9222 13.2219 17.1854 13.1744C17.2352 13.165 17.2885 13.1128 17.2968 13.063C17.3419 12.8164 17.2696 12.6255 17.2885 12.3682C17.3241 11.8845 17.6359 11.498 18.0616 11.2893C18.8784 10.8886 20.3948 11.2716 20.46 12.3327L20.6201 12.1726C20.2703 12.2141 19.3467 12.6409 19.559 13.1495C19.7712 13.6582 20.2751 12.7571 20.3438 12.7204C20.7375 12.552 21.0564 12.6433 21.3018 12.9942C21.3492 13.1412 21.3824 13.2906 21.4026 13.4436C21.4358 13.4969 21.4298 13.5586 21.4939 13.5918C21.5958 13.6439 21.6942 13.6534 21.7891 13.5728C22.2029 13.2219 21.4773 12.4394 21.1904 12.2888L21.2224 12.5401C22.3546 11.1921 25.4846 11.8383 25.4028 13.8443C25.3981 13.9712 25.3388 14.4122 25.2356 14.462C25.2001 14.4786 25.1218 14.3766 25.0673 14.3695C24.8634 14.3423 24.6855 14.2225 24.4638 14.2225C24.2421 14.2225 23.7382 14.2699 23.7477 14.5746C23.7572 14.8793 24.0216 14.7655 24.1911 14.7276C24.7756 14.5972 25.3435 14.992 25.2534 15.6274C25.2356 15.7543 25.1123 15.9452 25.1882 16.078C25.2878 16.2511 25.4751 16.2202 25.5972 16.0886C25.9162 15.7448 25.6933 15.0584 25.487 14.7323L25.4301 14.9517C25.7182 14.7596 26.3869 14.9445 26.6465 15.0797C26.9061 15.2149 27.1444 15.4413 27.2867 15.7093C27.6139 16.321 27.3887 16.8237 27.001 17.3169L27.1954 17.292C26.8848 17.1296 26.19 16.819 25.8415 17.0359C25.7075 17.1201 25.653 17.2624 25.7609 17.3987C25.8071 17.4568 25.8723 17.4604 25.9399 17.477C26.3086 17.5683 26.6157 17.4853 26.9844 17.7094C27.6875 18.1385 27.8689 18.9993 27.5772 19.732C27.5013 19.9241 27.8108 20.0071 27.8866 19.8174C28.1581 19.1356 28.0716 18.3318 27.5653 17.7769C27.3211 17.509 26.9939 17.3134 26.6453 17.2162C26.5291 17.1841 26.2102 17.0905 26.1059 17.145C26.0798 17.3786 26.2102 17.4497 26.4971 17.3584C26.6868 17.3987 26.8646 17.4687 27.033 17.5683C27.0899 17.5979 27.1824 17.6003 27.2274 17.5434C27.7408 16.8901 27.9862 16.1716 27.4788 15.4069C27.2678 15.0892 26.9488 14.8378 26.592 14.7051C26.2351 14.5723 25.5996 14.4525 25.2688 14.673C25.1989 14.7193 25.1633 14.8153 25.2119 14.8924C25.302 14.9991 25.3518 15.1236 25.3637 15.2635C25.436 15.4366 25.4407 15.6144 25.3743 15.7958C25.4917 15.9713 25.5629 15.7306 25.5806 15.6701C25.6399 15.4745 25.5652 15.1828 25.4822 15.005C25.3246 14.6683 25.0163 14.4418 24.6488 14.3814C24.5397 14.3636 24.4045 14.3517 24.299 14.3755C24.114 14.4181 24.0488 14.3387 24.248 14.4786C24.4472 14.6185 24.6974 14.5379 24.9072 14.6458C24.759 14.5699 25.1503 14.839 25.1977 14.8414C25.5154 14.8568 25.6293 14.4027 25.6838 14.1549C26.2126 11.728 22.3831 10.6622 20.9983 12.3113C20.9355 12.386 20.9331 12.5117 21.0303 12.5627C21.1394 12.6113 21.2354 12.68 21.3172 12.769C21.3635 13.0096 21.4951 13.1626 21.7108 13.2302C21.7405 13.1495 21.6195 12.8994 21.5792 12.8318C21.4287 12.5698 21.1738 12.3955 20.8797 12.3374C20.5857 12.2793 20.2822 12.3493 20.0439 12.5378C20.0095 12.565 19.757 12.7879 19.7736 12.8555C19.7866 12.9077 20.4482 12.5129 20.6213 12.4915C20.7031 12.482 20.7872 12.4263 20.7813 12.3315C20.7114 11.185 19.342 10.6313 18.3319 10.8613C17.8387 10.9728 17.3763 11.281 17.138 11.7351C17.0087 11.9805 16.9542 12.2509 16.9566 12.5271C16.9566 12.5271 17.0075 12.916 16.9992 12.9195C17.1237 12.8674 16.7906 12.7263 16.7823 12.7215C15.8231 12.2117 14.628 13.1709 14.6221 14.1549C14.6197 14.6683 14.8735 15.1698 15.311 15.4437C15.5101 15.5682 15.7899 15.6808 16.0306 15.6678C16.2179 15.6571 16.2559 15.7294 16.1385 15.5753C15.9974 15.3891 15.5504 15.3832 15.3287 15.2445C15.2659 15.2054 15.1876 15.2232 15.1343 15.2694C14.5676 15.7685 14.3589 16.5819 14.7478 17.2576C15.0809 17.8386 15.8587 18.2702 16.4764 17.8694C16.5665 17.8113 16.5795 17.6975 16.5084 17.6181L16.4266 16.8083L16.2665 16.6483C16.263 16.8605 16.084 17.0122 16.1195 17.2576C16.1515 17.4734 16.2737 17.6584 16.442 17.7924C16.64 17.9512 16.9293 18.0496 17.1854 18.0283C17.3881 18.0105 17.4296 18.0757 17.2992 17.9287C17.1569 17.7675 16.8641 17.8291 16.6661 17.7319C16.5784 17.688 16.4551 17.72 16.4302 17.8279C16.2523 18.6329 16.7218 19.3739 17.5174 19.5945C17.9169 19.7059 18.39 19.681 18.7516 19.4629C18.8867 19.3811 19.0029 19.272 19.093 19.1439C19.157 19.0538 19.2732 18.678 19.0812 18.793C18.8891 18.908 19.1748 19.7522 19.2519 19.9039C19.4357 20.2703 19.7534 20.556 20.1447 20.6817C20.511 20.8002 20.9011 20.767 21.2354 20.5714C21.3729 20.492 21.4951 20.39 21.5946 20.2655C21.6373 20.2122 21.8021 19.8363 21.8744 19.8209L21.6776 19.7095C21.7073 19.8494 21.5425 20.1387 21.5401 20.2999C21.5366 20.5086 21.5935 20.7196 21.6883 20.9034C21.8982 21.3065 22.319 21.6041 22.7636 21.6752C23.1205 21.7321 23.5023 21.6456 23.737 21.3539C23.8497 21.2152 23.9362 21.0279 23.935 20.8465C23.9327 20.4588 23.7939 20.8998 23.7299 21.0077C23.5177 21.3634 23.2972 21.5211 22.8561 21.514C22.7684 21.5128 22.6973 21.5886 22.6961 21.674C22.6807 22.5964 23.3209 23.2023 24.2457 23.2675C24.7069 23.2995 25.1491 23.1418 25.4585 22.792C25.8047 22.3996 25.7739 22.0155 25.7703 21.5377C25.7703 21.4487 25.6968 21.38 25.6103 21.3776C25.5486 21.3752 25.0068 21.2863 25.0424 21.1203L24.8456 21.2318C24.9701 21.2591 25.1183 21.444 25.2439 21.4938C25.3601 21.54 25.4893 21.5626 25.6138 21.5543C25.8521 21.5389 26.0739 21.4156 26.2268 21.2353C26.637 20.7492 26.4153 20.2252 26.0727 19.7889C26.0335 19.7391 25.9292 19.7249 25.8782 19.764C25.7336 19.8731 25.0447 20.1209 24.9914 19.7936L24.88 19.9905C25.0293 19.9656 25.2748 20.1244 25.455 20.1126C25.6352 20.1007 25.794 20.0462 25.9328 19.9418C26.0798 19.8316 26.1912 19.6763 26.2541 19.5044C26.2778 19.4392 26.3288 19.2269 26.3098 19.1546C26.2517 18.9448 26.0158 19.5921 25.9221 19.7237C25.8723 19.7936 25.9091 19.9039 25.979 19.943C26.158 20.1102 26.2588 20.3201 26.2801 20.5726C26.2932 20.6757 26.3714 20.754 26.4829 20.7267C26.8149 20.6449 27.0674 20.6947 27.3733 20.4694C27.595 20.307 27.7432 20.0948 27.87 19.8529C27.9649 19.6703 27.6886 19.5079 27.5938 19.6917L27.5914 19.6929Z" stroke="#365888" stroke-width="0.238068" stroke-miterlimit="10"/>
<path d="M23.3366 14.9502C22.5604 14.2816 21.7055 14.4866 21.0294 15.1627H21.4243C20.8956 14.634 20.0845 14.2353 19.3808 14.744C19.3284 14.7815 19.2521 14.9203 19.3134 14.8678C19.2821 14.894 19.2084 14.8703 19.1721 14.9053C19.0296 15.0502 18.9159 15.179 18.8284 15.3639C18.6522 15.7364 18.6397 16.1676 18.7934 16.55C18.9897 17.0387 19.4921 17.4199 19.8558 17.7836C20.2457 18.1736 20.6369 18.5648 21.0269 18.9547C21.1331 19.0609 21.3143 19.0609 21.4218 18.9547H21.4231C21.2918 18.9535 21.1606 18.9535 21.0281 18.9535H21.0294C21.1356 19.0622 21.3168 19.0622 21.4243 18.9547C21.9668 18.4123 22.5104 17.8686 23.0529 17.3262C23.7453 16.6338 24.0515 15.7789 23.3353 14.949C23.1004 14.6765 22.7079 15.0727 22.9404 15.3439C23.654 16.1726 22.7442 16.845 22.2005 17.3899C21.8105 17.7799 21.4193 18.1711 21.0294 18.561H21.4243H21.4231C21.3168 18.4523 21.1356 18.4523 21.0281 18.5598H21.0269C21.1581 18.561 21.2893 18.561 21.4218 18.561C20.8794 18.0186 20.3357 17.4749 19.7933 16.9325C19.4058 16.545 19.1059 16.1738 19.3459 15.5689C19.2709 15.4564 19.2846 15.4052 19.3883 15.4164L19.4546 15.3889C19.5846 15.2465 19.7945 15.129 19.987 15.0927C20.447 15.0052 20.7382 15.2677 21.0294 15.5589C21.1356 15.6652 21.3168 15.6652 21.4243 15.5589C21.8605 15.1227 22.4042 14.8815 22.9429 15.3464C23.2141 15.5802 23.6103 15.1865 23.3378 14.9515L23.3366 14.9502Z" stroke="#365888" stroke-width="0.238068" stroke-miterlimit="10"/>
</svg>
