<svg width="20" height="20" viewBox="0 0 20 20" fill="none" xmlns="http://www.w3.org/2000/svg">
<path fill-rule="evenodd" clip-rule="evenodd" d="M18.1499 10C18.1499 5.4989 14.501 1.85002 9.99985 1.85002C5.49873 1.85002 1.84985 5.4989 1.84985 10C1.84985 14.5011 5.49873 18.15 9.99985 18.15C14.501 18.15 18.1499 14.5011 18.1499 10ZM9.99985 0.150024C15.4399 0.150024 19.8499 4.56002 19.8499 10C19.8499 15.44 15.4399 19.85 9.99985 19.85C4.55985 19.85 0.149853 15.44 0.149853 10C0.149853 4.56002 4.55985 0.150024 9.99985 0.150024Z" fill="black"/>
<path d="M7.72757 10C7.72757 10.7531 7.11709 11.3636 6.36403 11.3636C5.61097 11.3636 5.00049 10.7531 5.00049 10C5.00049 9.24695 5.61097 8.63647 6.36403 8.63647C7.11709 8.63647 7.72757 9.24695 7.72757 10Z" fill="black"/>
<path d="M11.3636 10C11.3636 10.7531 10.7531 11.3636 10 11.3636C9.24695 11.3636 8.63647 10.7531 8.63647 10C8.63647 9.24695 9.24695 8.63647 10 8.63647C10.7531 8.63647 11.3636 9.24695 11.3636 10Z" fill="black"/>
<path d="M15 10C15 10.7531 14.3896 11.3636 13.6365 11.3636C12.8834 11.3636 12.2729 10.7531 12.2729 10C12.2729 9.24695 12.8834 8.63647 13.6365 8.63647C14.3896 8.63647 15 9.24695 15 10Z" fill="black"/>
</svg>
