<svg width="40" height="40" viewBox="0 0 40 40" fill="none" xmlns="http://www.w3.org/2000/svg">
<path d="M20.1504 31.3332C17.5153 31.3332 15.0776 29.761 13.9495 27.3872C13.272 25.9617 13.3 24.4828 13.3 22.9546V17.6444C13.3 16.3082 13.192 14.908 13.5707 13.6118C14.3095 11.0767 16.5179 9.13507 19.1316 8.73768C21.7453 8.34028 24.4284 9.55514 25.8753 11.7648C26.8381 13.2344 26.9995 14.8213 26.9995 16.5162V21.629C26.9995 23.1173 27.1595 24.7588 26.7768 26.2111C25.9873 29.2129 23.2296 31.2932 20.1491 31.3332C19.721 31.3385 19.7197 32.0053 20.1491 32C22.8642 31.9653 25.3992 30.5037 26.7234 28.1167C27.6049 26.5284 27.6663 24.8615 27.6663 23.1066V17.3083C27.6663 15.6601 27.7156 14.0718 27.0368 12.5169C25.9847 10.1086 23.683 8.38162 21.0759 8.05624C18.4248 7.72552 15.7631 8.87236 14.1535 10.998C12.9466 12.5903 12.6332 14.4066 12.6332 16.3469V21.9984C12.6332 23.8267 12.4959 25.6763 13.2293 27.4019C14.3962 30.1477 17.1606 32 20.1504 32C20.5798 32 20.5798 31.3332 20.1504 31.3332Z" fill="#365888"/>
<path d="M15.0723 14.9853C15.1123 17.0936 16.3858 18.9966 18.3781 19.7434C20.3918 20.4982 22.7335 19.8567 24.087 18.1885C25.4046 16.5642 25.5926 14.2305 24.5338 12.4223C23.4456 10.5646 21.2559 9.59648 19.1489 10.0072C16.7739 10.4699 15.1176 12.6036 15.0723 14.9853C15.0643 15.4147 15.7311 15.4147 15.7391 14.9853C15.7751 13.1477 16.8912 11.4741 18.6382 10.8393C20.3851 10.2046 22.3188 10.7367 23.5056 12.1209C24.7125 13.5291 24.8965 15.6121 23.959 17.2123C23.0215 18.8126 21.1439 19.662 19.3263 19.322C17.2393 18.9299 15.7791 17.079 15.7391 14.9867C15.7311 14.5586 15.0643 14.5573 15.0723 14.9867V14.9853Z" fill="#365888"/>
<path d="M21.8493 10.926C22.1654 11.3901 22.2547 11.9502 21.9974 12.4663C21.74 12.9823 21.2226 13.2877 20.6705 13.1597C20.1184 13.0317 19.705 12.4596 19.9677 11.9128C20.3518 11.118 21.5306 11.7675 20.8985 12.3289C20.5772 12.6143 21.0492 13.0837 21.3706 12.801C22.1974 12.0675 21.5506 10.8087 20.5011 10.846C19.4516 10.8833 18.9182 12.2102 19.4516 13.0597C20.0131 13.9545 21.2613 14.0905 22.0547 13.4384C22.9122 12.7356 23.0389 11.4914 22.4268 10.5913C22.1867 10.2392 21.6093 10.5713 21.8507 10.9274L21.8493 10.926Z" fill="#365888"/>
<path d="M20.7945 15.6348C20.6065 16.1175 19.9837 16.1175 19.7957 15.6348C19.7223 15.4454 19.509 15.6134 19.5823 15.8028C19.8544 16.5002 20.7358 16.5002 21.0079 15.8028C21.0812 15.6134 20.8692 15.4441 20.7945 15.6348Z" fill="#365888"/>
<path d="M18.2408 14.804C18.2261 15.0787 17.8287 15.0787 17.8141 14.804C17.8021 14.5906 17.4687 14.5893 17.4807 14.804C17.4967 15.1013 17.7194 15.3494 18.0274 15.3507C18.3355 15.352 18.5582 15.0987 18.5742 14.804C18.5862 14.5893 18.2528 14.5906 18.2408 14.804Z" fill="#365888"/>
<path d="M22.4854 14.804C22.4708 15.0787 22.0734 15.0787 22.0587 14.804C22.0467 14.5906 21.7133 14.5893 21.7253 14.804C21.7413 15.1013 21.964 15.3494 22.2721 15.3507C22.5801 15.352 22.8028 15.0987 22.8188 14.804C22.8308 14.5893 22.4974 14.5906 22.4854 14.804Z" fill="#365888"/>
<path d="M13.0906 20.0514C14.6322 20.2715 16.1631 20.7195 17.6314 21.2263C20.8892 22.3491 23.9883 24.0241 26.5127 26.3924C26.8261 26.6858 27.2982 26.2151 26.9848 25.9204C24.4511 23.544 21.3679 21.8491 18.1088 20.6889C16.5485 20.1328 14.9136 19.6447 13.2693 19.41C12.8493 19.35 12.6679 19.9928 13.092 20.0528L13.0906 20.0514Z" fill="#365888"/>
<path d="M27.2449 19.0059C26.2367 19.1726 25.2299 19.4527 24.2777 19.8207C23.0389 20.2981 21.5493 21.0196 21.1439 22.3985C21.0226 22.8105 21.6653 22.9866 21.7867 22.5758C22.1654 21.2916 23.831 20.6635 24.9685 20.2781C25.7646 20.0074 26.5914 19.7874 27.4222 19.65C27.8449 19.5807 27.6649 18.9379 27.2449 19.0073V19.0059Z" fill="#365888"/>
<path d="M15.0723 14.9853C15.1123 17.0936 16.3858 18.9966 18.3781 19.7434C20.3918 20.4982 22.7335 19.8567 24.087 18.1885C25.4046 16.5642 25.5926 14.2305 24.5338 12.4223C23.4456 10.5646 21.2559 9.59648 19.1489 10.0072C16.7739 10.4699 15.1176 12.6036 15.0723 14.9853ZM15.0723 14.9853C15.0643 15.4147 15.7311 15.4147 15.7391 14.9853C15.7751 13.1477 16.8912 11.4741 18.6382 10.8393C20.3851 10.2046 22.3188 10.7367 23.5056 12.1209C24.7125 13.5291 24.8965 15.6121 23.959 17.2123C23.0215 18.8126 21.1439 19.662 19.3263 19.322C17.2393 18.9299 15.7791 17.079 15.7391 14.9867C15.7311 14.5586 15.0643 14.5573 15.0723 14.9867V14.9853ZM20.1504 31.3332C17.5153 31.3332 15.0776 29.761 13.9495 27.3872C13.272 25.9617 13.3 24.4828 13.3 22.9546V17.6444C13.3 16.3082 13.192 14.908 13.5707 13.6118C14.3095 11.0767 16.5179 9.13507 19.1316 8.73768C21.7453 8.34028 24.4284 9.55514 25.8753 11.7648C26.8381 13.2344 26.9995 14.8213 26.9995 16.5162V21.629C26.9995 23.1173 27.1595 24.7588 26.7768 26.2111C25.9873 29.2129 23.2296 31.2932 20.1491 31.3332C19.721 31.3385 19.7197 32.0053 20.1491 32C22.8642 31.9653 25.3992 30.5037 26.7234 28.1167C27.6049 26.5284 27.6663 24.8615 27.6663 23.1066V17.3083C27.6663 15.6601 27.7156 14.0718 27.0368 12.5169C25.9847 10.1086 23.683 8.38162 21.0759 8.05624C18.4248 7.72552 15.7631 8.87236 14.1535 10.998C12.9466 12.5903 12.6332 14.4066 12.6332 16.3469V21.9984C12.6332 23.8267 12.4959 25.6763 13.2293 27.4019C14.3962 30.1477 17.1606 32 20.1504 32C20.5798 32 20.5798 31.3332 20.1504 31.3332ZM21.8493 10.926C22.1654 11.3901 22.2547 11.9502 21.9974 12.4663C21.74 12.9823 21.2226 13.2877 20.6705 13.1597C20.1184 13.0317 19.705 12.4596 19.9677 11.9128C20.3518 11.118 21.5306 11.7675 20.8985 12.3289C20.5772 12.6143 21.0492 13.0837 21.3706 12.801C22.1974 12.0675 21.5506 10.8087 20.5011 10.846C19.4516 10.8833 18.9182 12.2102 19.4516 13.0597C20.0131 13.9545 21.2613 14.0905 22.0547 13.4384C22.9122 12.7356 23.0389 11.4914 22.4268 10.5913C22.1867 10.2392 21.6093 10.5713 21.8507 10.9274L21.8493 10.926ZM20.7945 15.6348C20.6065 16.1175 19.9837 16.1175 19.7957 15.6348C19.7223 15.4454 19.509 15.6134 19.5823 15.8028C19.8544 16.5002 20.7358 16.5002 21.0079 15.8028C21.0812 15.6134 20.8692 15.4441 20.7945 15.6348ZM18.2408 14.804C18.2261 15.0787 17.8287 15.0787 17.8141 14.804C17.8021 14.5906 17.4687 14.5893 17.4807 14.804C17.4967 15.1013 17.7194 15.3494 18.0274 15.3507C18.3355 15.352 18.5582 15.0987 18.5742 14.804C18.5862 14.5893 18.2528 14.5906 18.2408 14.804ZM22.4854 14.804C22.4708 15.0787 22.0734 15.0787 22.0587 14.804C22.0467 14.5906 21.7133 14.5893 21.7253 14.804C21.7413 15.1013 21.964 15.3494 22.2721 15.3507C22.5801 15.352 22.8028 15.0987 22.8188 14.804C22.8308 14.5893 22.4974 14.5906 22.4854 14.804ZM13.0906 20.0514C14.6322 20.2715 16.1631 20.7195 17.6314 21.2263C20.8892 22.3491 23.9883 24.0241 26.5127 26.3924C26.8261 26.6858 27.2982 26.2151 26.9848 25.9204C24.4511 23.544 21.3679 21.8491 18.1088 20.6889C16.5485 20.1328 14.9136 19.6447 13.2693 19.41C12.8493 19.35 12.6679 19.9928 13.092 20.0528L13.0906 20.0514ZM27.2449 19.0059C26.2367 19.1726 25.2299 19.4527 24.2777 19.8207C23.0389 20.2981 21.5493 21.0196 21.1439 22.3985C21.0226 22.8105 21.6653 22.9866 21.7867 22.5758C22.1654 21.2916 23.831 20.6635 24.9685 20.2781C25.7646 20.0074 26.5914 19.7874 27.4222 19.65C27.8449 19.5807 27.6649 18.9379 27.2449 19.0073V19.0059Z" stroke="#365888" stroke-width="0.2" stroke-miterlimit="10"/>
</svg>
