<svg width="40" height="40" viewBox="0 0 40 40" fill="none" xmlns="http://www.w3.org/2000/svg">
<circle cx="20" cy="20" r="20" fill="#FAEDE3"/>
<path fill-rule="evenodd" clip-rule="evenodd" d="M27.2093 18.674L17.6084 12.4019C16.9466 11.9691 16.0495 11.8792 15.267 12.1647C14.4846 12.452 14 13.0507 14 13.7283V18.8454V26.2714C14 26.948 14.4846 27.5477 15.267 27.8341C15.5684 27.9444 15.8887 28 16.2055 28C16.7078 28 17.2019 27.8628 17.6084 27.5968L27.2093 21.3257C27.7116 20.9957 28 20.5129 28 19.9994C28 19.4868 27.7116 19.003 27.2093 18.674ZM16.7013 26.7432L26.301 20.4712C26.4795 20.3544 26.5823 20.182 26.5823 19.9994C26.5823 19.8168 26.4795 19.6445 26.301 19.5277L16.7013 13.2566C16.5548 13.1611 16.3822 13.1129 16.2049 13.1129C16.0926 13.1129 15.9792 13.1314 15.8693 13.1722C15.5868 13.2751 15.4189 13.4836 15.4189 13.7283V26.2715C15.4189 26.5152 15.5868 26.7238 15.8693 26.8267C16.1517 26.9323 16.4626 26.899 16.7013 26.7432Z" fill="#222222"/>
</svg>
