<svg width="40" height="40" viewBox="0 0 40 40" fill="none" xmlns="http://www.w3.org/2000/svg">
<path d="M30.5147 20.643C29.9183 19.3839 28.9005 18.5837 28.0128 17.5509C27.0875 16.4744 26.3724 15.2115 25.9285 13.8624C25.5259 12.6383 25.5446 11.2892 24.977 10.1252C24.4581 9.06113 23.5079 8.24717 22.4038 7.83831C21.4148 7.47196 20.1495 7.42445 19.1042 7.60825C18.0877 7.78704 17.1337 8.28593 16.4285 9.04363C15.477 10.0652 15.3307 11.248 15.0731 12.5546C14.7743 14.065 14.1541 15.4979 13.2664 16.7544C12.3562 18.0435 11.0508 18.965 10.2869 20.3604C10.2756 20.3742 10.2644 20.3904 10.2556 20.4079C9.55917 21.8345 9.56167 23.5025 10.4094 24.8729C11.2221 26.1857 12.6287 26.9272 14.1554 26.8334C14.6493 28.04 15.582 28.9552 16.6998 29.5654C16.4597 30.6081 17.4525 30.9832 18.3402 31.2321C19.5793 31.5796 20.9109 31.5934 22.1575 31.2746C23.039 31.0495 24.2518 30.6694 23.9642 29.5591C24.7007 29.144 25.3583 28.5863 25.8872 27.8712C26.1235 27.5523 26.3436 27.2022 26.5011 26.8334C29.7595 27.0397 31.7425 23.515 30.516 20.643H30.5147ZM22.4101 30.6169C21.8699 30.7894 21.311 30.8982 20.7459 30.9307C19.7919 30.9845 18.8466 30.8394 17.9501 30.5156C17.6726 30.4156 17.3937 30.3468 17.2762 30.0542C17.2424 29.9692 17.2299 29.8967 17.2299 29.8267L17.3737 29.3003C17.4788 28.9915 17.5775 28.6814 17.6663 28.3675C17.8714 27.6386 18.0252 26.8971 18.1089 26.1457C18.1789 26.1419 18.2477 26.1357 18.319 26.1282C18.4228 26.2595 18.5353 26.3845 18.6591 26.4995C19.5881 27.331 20.8584 27.6699 22.0687 27.3148C22.2913 27.2497 22.4951 27.1622 22.6864 27.0584C22.8277 27.8174 23.0352 28.5638 23.284 29.2953L23.4353 29.8254C23.4516 30.3231 22.8552 30.4756 22.4126 30.6169H22.4101ZM24.4706 20.3241C24.4106 20.1966 24.4068 20.0391 24.4756 19.9153C24.5431 19.7915 24.6869 19.709 24.8269 19.7252C24.9357 19.7377 25.0383 19.814 25.0658 19.919C25.0933 20.0241 25.0308 20.1503 24.9257 20.1779C24.8745 20.1916 24.8169 20.1829 24.7719 20.2116C24.6994 20.2566 24.7094 20.3767 24.7757 20.4304C24.842 20.4842 24.9395 20.4829 25.0195 20.4554C25.2258 20.3867 25.3671 20.1653 25.3508 19.9478C25.3358 19.7302 25.1733 19.5352 24.9657 19.4689C24.7582 19.4026 24.5194 19.4639 24.3593 19.6114C24.1868 19.7715 24.1093 20.0253 24.1543 20.2541C24.1543 20.2541 24.2355 20.6042 24.4694 20.7405C24.6144 20.8468 24.7907 20.8943 24.967 20.8905C25.0833 20.888 25.1995 20.863 25.3083 20.8168C25.5196 20.7267 25.6959 20.5555 25.791 20.3454C25.931 20.8855 25.8272 21.4895 25.4909 21.9346C25.0495 22.5197 24.2393 22.771 23.5241 22.616C23.4928 22.6098 23.4616 22.601 23.4353 22.5822C23.4053 22.5585 23.3891 22.5222 23.3716 22.4885C23.2115 22.1659 22.8977 21.9233 22.5451 21.8508C22.5138 21.8445 22.4813 21.8383 22.4551 21.8208C22.4288 21.8033 22.4126 21.7758 22.3976 21.7483C22.0862 21.1931 22.0875 20.4767 22.4001 19.9228C22.7126 19.3689 23.3266 18.9988 23.963 18.9788C24.5981 18.9588 25.2346 19.2914 25.5796 19.8253C25.5972 19.8528 25.6147 19.8803 25.6197 19.9115C25.6259 19.9453 25.6172 19.9803 25.6084 20.0141C25.5621 20.1791 25.4784 20.3379 25.3521 20.4542C25.2246 20.5692 25.0508 20.638 24.8795 20.6192C24.7057 20.5992 24.5444 20.4842 24.4706 20.3241ZM23.2828 23.8901C23.4891 23.9476 23.6979 24.0314 23.8992 24.1289C23.8817 24.1189 24.4006 24.4015 24.4006 24.4015C24.4656 24.4402 24.5281 24.479 24.5881 24.5165C24.4468 24.6666 24.3043 24.8178 24.163 24.9679C23.8217 25.3305 23.4841 25.7518 23.1015 26.0944L22.4451 26.5533C21.3448 27.1235 19.9907 26.9384 19.0529 26.0994C19.0229 26.0707 18.9954 26.0407 18.9667 26.0119C19.6681 25.8481 20.3645 25.5655 20.9747 25.3092C21.341 25.1554 21.7649 24.9966 22.16 24.7978L22.6689 24.504C22.8077 24.409 22.9364 24.3077 23.049 24.1939C23.1403 24.0989 23.2178 23.9976 23.2815 23.8901H23.2828ZM24.1405 23.6325C23.9255 23.5312 23.7017 23.4425 23.4778 23.3775C23.4903 23.3112 23.4991 23.2437 23.5028 23.1762C23.7554 23.2287 24.0142 23.2437 24.2693 23.2162C24.2693 23.2162 24.7132 23.1286 24.877 23.0724C25.2045 22.9486 25.5096 22.756 25.7622 22.486C26.6599 21.5295 26.6324 19.9703 25.6697 19.0663C24.7782 18.2298 23.4678 18.2261 22.5301 18.9225C22.1037 19.2389 21.8287 19.6765 21.7124 20.1979C21.6486 20.4829 21.6324 20.7768 21.6474 21.0681C21.6511 21.1306 21.7161 21.8633 21.8149 21.8445C21.7611 21.8545 21.7086 21.8671 21.6561 21.8821L21.1222 22.0809C20.7396 22.2559 20.3695 22.476 20.0082 22.6323C19.408 22.8911 18.7966 23.1336 18.1802 23.3575C18.209 23.2112 18.2477 23.0674 18.299 22.9248C18.5278 22.2897 18.9867 21.8433 19.4355 21.3669C19.5818 21.2106 19.7281 21.0556 19.8756 20.8993C19.9744 20.7943 20.0732 20.6892 20.172 20.5855C20.172 20.5855 20.5596 20.1741 20.5583 20.1729C20.5858 20.1441 20.6133 20.1141 20.6408 20.0853C20.6421 20.0853 20.6433 20.0853 20.6446 20.0853L21.8287 18.8312C21.9174 18.7512 22.0075 18.675 22.1025 18.6074C24.2681 17.0395 27.3064 19.0463 26.7237 21.6507C26.5637 22.3659 26.136 22.8761 25.6522 23.39C25.4284 23.6288 25.2033 23.8676 24.9795 24.1051C24.8745 24.0389 24.7644 23.9701 24.6482 23.9038L24.1393 23.6363L24.1405 23.6325ZM21.0022 17.4946C21.0022 17.791 21.0647 18.3061 21.0109 18.7462L20.9922 18.8537L20.5121 19.3276C20.4445 19.4014 20.377 19.4752 20.3095 19.5502C20.0919 19.5464 19.9407 19.4589 19.8369 19.3201C19.6943 19.2251 19.6443 18.7587 19.6443 18.7587C19.5881 18.3149 19.6518 17.7922 19.6518 17.4934C19.6518 17.3609 19.5631 17.2671 19.4455 17.2221C18.2315 16.7644 17.6876 15.6842 17.6876 14.4463V12.6821C18.7503 12.7021 19.7731 12.1895 20.4208 11.3617C21.0059 12.1457 22.005 12.5633 22.964 12.6571V14.4488C22.964 15.6867 22.4201 16.7669 21.2072 17.2233C21.0897 17.2671 21.0009 17.3621 21.0009 17.4946H21.0022ZM19.218 19.3389C19.3292 19.6652 19.5268 19.9278 19.8756 20.0453C19.6706 20.2804 19.4693 20.5104 19.2692 20.723C18.6778 21.3519 18.0539 21.9371 17.7576 22.7748C17.6663 23.0324 17.6088 23.2987 17.5813 23.5675C17.2625 23.6763 16.9424 23.7801 16.621 23.8788C16.5835 23.8001 16.5485 23.72 16.5173 23.6388C16.4285 23.3049 16.3772 22.9611 16.3772 22.6135C16.3772 22.531 16.3472 22.4672 16.3009 22.4209C16.3122 21.8383 16.4847 21.2506 16.8448 20.7205C17.3625 19.9603 18.2102 19.4489 19.1242 19.3476C19.1555 19.3439 19.1867 19.3414 19.2192 19.3389H19.218ZM16.3097 24.4915L16.9149 24.374L18.244 23.9226C18.5128 23.8251 18.7804 23.7275 19.0454 23.625C19.7556 23.3512 20.4608 23.0574 21.1472 22.7285C21.2185 22.6935 21.2998 22.6548 21.386 22.616C21.386 22.616 21.9187 22.4197 21.9199 22.4184C22.2525 22.2959 22.5926 22.2497 22.7977 22.5922C23.0277 22.9773 22.9865 23.7175 22.5063 23.9264L22.0062 24.2364C21.7236 24.3802 21.4223 24.5003 21.1647 24.6178C20.3358 24.9966 19.458 25.3105 18.5603 25.4855C18.5603 25.4855 18.1827 25.6005 17.9576 25.6005C17.7326 25.6005 17.2825 25.5643 17.1137 25.413C16.4672 25.1542 16.0046 24.5828 15.9809 23.8351C15.9871 23.8526 15.9946 23.8688 16.0009 23.8863C16.0421 24.0301 16.0909 24.1702 16.1447 24.3077C16.1759 24.3877 16.2347 24.4565 16.3085 24.4903L16.3097 24.4915ZM26.3148 26.257C26.1873 26.2432 26.081 26.3545 26.0435 26.4633C25.6772 27.5136 24.7944 28.4238 23.7817 29.0265C23.5304 28.2725 23.3241 27.5023 23.1928 26.7196C23.4928 26.487 23.7642 26.2145 24.0355 25.9269C24.6494 25.2742 25.2633 24.6203 25.8785 23.9676C26.3974 23.4162 26.9 22.8948 27.1601 22.1609C28.0328 19.7015 25.8947 17.1483 23.3303 17.5196C22.6726 17.6147 22.0975 17.9197 21.5736 18.3261C21.5761 18.101 21.5698 17.8797 21.5661 17.6772C22.7577 17.142 23.4991 16.0367 23.5279 14.7076C23.5441 13.9374 23.5279 13.1647 23.5279 12.3945C23.5279 12.2382 23.3991 12.1182 23.2465 12.1132C22.255 12.0807 21.1497 11.6418 20.6759 10.7053C20.6121 10.579 20.4996 10.5465 20.3958 10.5715C20.3183 10.5778 20.242 10.6166 20.1907 10.7053C19.6243 11.6731 18.529 12.2232 17.4075 12.1032C17.2562 12.0869 17.1262 12.2457 17.1262 12.3845C17.1262 13.1585 17.1099 13.9349 17.1262 14.7089C17.1549 16.038 17.8964 17.1445 19.0892 17.6784C19.0829 18.0185 19.0679 18.4161 19.1067 18.79C17.6275 18.9513 16.3435 19.969 15.8946 21.4119C15.7646 21.8295 15.7145 22.2534 15.7345 22.6685C15.597 22.9123 15.4995 23.1661 15.4445 23.4487H15.4545C15.4445 23.4725 15.437 23.4962 15.4332 23.5225C15.2694 24.8178 16.2559 25.9919 17.5438 26.1344C17.4237 27.1297 17.1624 28.0875 16.8586 29.0427C15.8433 28.4751 15.0219 27.6223 14.6118 26.4633C14.5742 26.3557 14.468 26.2432 14.3404 26.257C11.3109 26.5771 9.47915 23.3149 10.7282 20.7142C10.732 20.7092 10.7357 20.7042 10.7382 20.6992C11.3771 19.4989 12.4337 18.71 13.2714 17.6684C14.0191 16.7407 14.6205 15.7104 15.0556 14.6026C15.2869 14.015 15.467 13.4085 15.5945 12.7896C15.717 12.1945 15.7508 11.5806 15.9309 10.9992C16.3185 9.74882 17.29 8.7548 18.5278 8.33219C19.4393 8.02086 20.6809 7.98085 21.6311 8.1934C22.8327 8.46348 23.8842 9.22368 24.4493 10.3277C25.027 11.4555 24.9895 12.8121 25.3846 14.01C25.8035 15.2828 26.4449 16.4731 27.2701 17.5271C28.1853 18.695 29.3781 19.5552 30.0271 20.9256C31.1299 23.5062 29.2081 26.5621 26.3136 26.257H26.3148Z" fill="#365888" stroke="#365888" stroke-width="0.144" stroke-miterlimit="10"/>
</svg>
