<svg width="16" height="14" viewBox="0 0 16 14" fill="none" xmlns="http://www.w3.org/2000/svg">
<path fill-rule="evenodd" clip-rule="evenodd" d="M11.4353 10.9243C14.6277 9.46109 14.6277 4.92497 11.4353 3.46175C11.0737 3.29602 10.9149 2.86855 11.0806 2.50697C11.2464 2.14538 11.6738 1.98661 12.0354 2.15234C16.3482 4.12904 16.3482 10.257 12.0354 12.2337C11.6738 12.3994 11.2464 12.2407 11.0806 11.8791C10.9149 11.5175 11.0737 11.09 11.4353 10.9243Z" fill="#FFFDFB"/>
<path fill-rule="evenodd" clip-rule="evenodd" d="M8.66751 11.7407V2.89971C8.66751 2.45177 8.12379 2.22982 7.81033 2.54982L7.20798 3.16472C6.25257 4.14003 4.94475 4.68967 3.57944 4.68967C2.431 4.68967 1.5 5.62066 1.5 6.7691V7.87133C1.5 9.01977 2.431 9.95077 3.57944 9.95077C4.94475 9.95077 6.25257 10.5004 7.20798 11.4757L7.81033 12.0906C8.12379 12.4106 8.66751 12.1887 8.66751 11.7407ZM3.57944 3.18967C1.60257 3.18967 0 4.79223 0 6.7691V7.87133C0 9.8482 1.60257 11.4508 3.57944 11.4508C4.54156 11.4508 5.46317 11.8381 6.13644 12.5254L6.73879 13.1403C7.99263 14.4202 10.1675 13.5325 10.1675 11.7407V2.89971C10.1675 1.10794 7.99263 0.220185 6.73879 1.50015L6.13644 2.11505C5.46317 2.80234 4.54156 3.18967 3.57944 3.18967Z" fill="#FFFDFB"/>
</svg>
