<svg width="66" height="65" viewBox="0 0 66 65" fill="none" xmlns="http://www.w3.org/2000/svg">
<g clip-path="url(#clip0_818_215)">
<path d="M65.0877 -0.225266C61.9553 -3.38935 58.2243 -5.89807 54.1122 -7.60509C50 -9.31211 45.5892 -10.1833 41.1369 -10.1678C22.4819 -10.1678 7.27773 5.0364 7.27773 23.6914C7.27773 29.6706 8.84939 35.4789 11.7877 40.6039L7.00439 58.1656L24.9419 53.4506C29.8961 56.1497 35.4652 57.5847 41.1369 57.5847C59.7919 57.5847 74.9961 42.3806 74.9961 23.7256C74.9961 14.6714 71.4769 6.1639 65.0877 -0.225266ZM41.1369 51.8447C36.0802 51.8447 31.1261 50.4781 26.7869 47.9156L25.7619 47.3006L15.1019 50.1022L17.9377 39.7156L17.2544 38.6564C14.445 34.1702 12.9533 28.9846 12.9494 23.6914C12.9494 8.17973 25.5911 -4.46193 41.1027 -4.46193C48.6194 -4.46193 55.6919 -1.5236 60.9877 3.8064C63.61 6.41661 65.688 9.52133 67.1015 12.9406C68.5149 16.3599 69.2357 20.0257 69.2219 23.7256C69.2902 39.2372 56.6486 51.8447 41.1369 51.8447ZM56.5802 30.7981C55.7261 30.3881 51.5577 28.3381 50.8061 28.0306C50.0202 27.7572 49.4736 27.6206 48.8927 28.4406C48.3119 29.2947 46.7061 31.2081 46.2277 31.7547C45.7494 32.3356 45.2369 32.4039 44.3827 31.9597C43.5286 31.5497 40.7952 30.6272 37.5836 27.7572C35.0552 25.5022 33.3811 22.7347 32.8686 21.8806C32.3902 21.0264 32.8002 20.5822 33.2444 20.1381C33.6202 19.7622 34.0986 19.1472 34.5086 18.6689C34.9186 18.1906 35.0894 17.8147 35.3627 17.2681C35.6361 16.6872 35.4994 16.2089 35.2944 15.7989C35.0894 15.3889 33.3811 11.2206 32.6977 9.51224C32.0144 7.87223 31.2969 8.07723 30.7844 8.04307H29.1444C28.5636 8.04307 27.6752 8.24807 26.8894 9.10223C26.1377 9.9564 23.9511 12.0064 23.9511 16.1747C23.9511 20.3431 26.9919 24.3747 27.4019 24.9214C27.8119 25.5022 33.3811 34.0439 41.8544 37.6997C43.8702 38.5881 45.4419 39.1006 46.6719 39.4764C48.6877 40.1256 50.5327 40.0231 52.0019 39.8181C53.6419 39.5789 57.0244 37.7681 57.7077 35.7864C58.4252 33.8047 58.4252 32.1306 58.1861 31.7547C57.9469 31.3789 57.4344 31.2081 56.5802 30.7981Z" fill="white" fill-opacity="0.5"/>
</g>
<defs>
<clipPath id="clip0_818_215">
<rect width="66" height="65" fill="white"/>
</clipPath>
</defs>
</svg>
