<svg width="20" height="20" viewBox="0 0 20 20" fill="none" xmlns="http://www.w3.org/2000/svg">
<path d="M12.571 13.004L13.429 14.849C13.429 14.849 17.286 15.668 17.286 17.616C17.286 19 15.57 19 15.57 19H11L8.75 17.75" stroke="#365888" stroke-width="1.5" stroke-linecap="round" stroke-linejoin="round"/>
<path d="M7.42984 13.004L6.57284 14.849C6.57284 14.849 2.71484 15.668 2.71484 17.616C2.71484 19 4.43084 19 4.43084 19H6.50084L8.75084 17.75L11.5008 16" stroke="#365888" stroke-width="1.5" stroke-linecap="round" stroke-linejoin="round"/>
<path d="M1 13.926C1 13.926 3.143 13.465 4.429 13.004C5.714 6.546 9.57 7.007 10 7.007C10.429 7.007 14.286 6.546 15.571 13.004C16.857 13.464 19 13.926 19 13.926M10 5C10.5304 5 11.0391 4.78929 11.4142 4.41421C11.7893 4.03914 12 3.53043 12 3C12 2.46957 11.7893 1.96086 11.4142 1.58579C11.0391 1.21071 10.5304 1 10 1C9.46957 1 8.96086 1.21071 8.58579 1.58579C8.21071 1.96086 8 2.46957 8 3C8 3.53043 8.21071 4.03914 8.58579 4.41421C8.96086 4.78929 9.46957 5 10 5Z" stroke="#365888" stroke-width="1.5" stroke-linecap="round" stroke-linejoin="round"/>
</svg>
