<svg width="94" height="77" viewBox="0 0 94 77" fill="none" xmlns="http://www.w3.org/2000/svg">
<g clip-path="url(#clip0_818_207)">
<path d="M70.5002 24.046V6.49935C70.5002 2.19102 66.9752 -1.33398 62.6668 -1.33398H15.6668C11.3585 -1.33398 7.8335 2.19102 7.8335 6.49935V53.4994C7.8335 57.8077 11.3585 61.3327 15.6668 61.3327H62.6668C66.9752 61.3327 70.5002 57.8077 70.5002 53.4994V35.9527L86.1668 51.541V8.45768L70.5002 24.046ZM39.1668 14.3327C43.4752 14.3327 47.0002 17.8577 47.0002 22.166C47.0002 26.4743 43.4752 29.9993 39.1668 29.9993C34.8585 29.9993 31.3335 26.4743 31.3335 22.166C31.3335 17.8577 34.8585 14.3327 39.1668 14.3327ZM54.8335 45.666H23.5002V43.4335C23.5002 40.261 25.3802 37.441 28.2785 36.1877C31.7128 34.6888 35.4197 33.9152 39.1668 33.9152C42.914 33.9152 46.6208 34.6888 50.0552 36.1877C51.4741 36.7942 52.6835 37.8044 53.5331 39.0926C54.3826 40.3809 54.8348 41.8904 54.8335 43.4335V45.666Z" fill="white" fill-opacity="0.5"/>
</g>
<defs>
<clipPath id="clip0_818_207">
<rect width="94" height="77" fill="white"/>
</clipPath>
</defs>
</svg>
